G04 #@! TF.GenerationSoftware,KiCad,Pcbnew,8.0.6*
G04 #@! TF.CreationDate,2024-11-23T12:10:56+00:00*
G04 #@! TF.ProjectId,rgb-to-hdmi,7267622d-746f-42d6-9864-6d692e6b6963,4 / 01*
G04 #@! TF.SameCoordinates,Original*
G04 #@! TF.FileFunction,Soldermask,Bot*
G04 #@! TF.FilePolarity,Negative*
%FSLAX46Y46*%
G04 Gerber Fmt 4.6, Leading zero omitted, Abs format (unit mm)*
G04 Created by KiCad (PCBNEW 8.0.6) date 2024-11-23 12:10:56*
%MOMM*%
%LPD*%
G01*
G04 APERTURE LIST*
G04 Aperture macros list*
%AMFreePoly0*
4,1,19,0.500000,-0.750000,0.000000,-0.750000,0.000000,-0.744911,-0.071157,-0.744911,-0.207708,-0.704816,-0.327430,-0.627875,-0.420627,-0.520320,-0.479746,-0.390866,-0.500000,-0.250000,-0.500000,0.250000,-0.479746,0.390866,-0.420627,0.520320,-0.327430,0.627875,-0.207708,0.704816,-0.071157,0.744911,0.000000,0.744911,0.000000,0.750000,0.500000,0.750000,0.500000,-0.750000,0.500000,-0.750000,
$1*%
%AMFreePoly1*
4,1,19,0.000000,0.744911,0.071157,0.744911,0.207708,0.704816,0.327430,0.627875,0.420627,0.520320,0.479746,0.390866,0.500000,0.250000,0.500000,-0.250000,0.479746,-0.390866,0.420627,-0.520320,0.327430,-0.627875,0.207708,-0.704816,0.071157,-0.744911,0.000000,-0.744911,0.000000,-0.750000,-0.500000,-0.750000,-0.500000,0.750000,0.000000,0.750000,0.000000,0.744911,0.000000,0.744911,
$1*%
G04 Aperture macros list end*
%ADD10R,1.700000X1.700000*%
%ADD11O,1.700000X1.700000*%
%ADD12C,5.200000*%
%ADD13FreePoly0,0.000000*%
%ADD14FreePoly1,0.000000*%
G04 APERTURE END LIST*
D10*
X17646200Y-42326560D03*
D11*
X17646200Y-39786560D03*
X17646200Y-37246560D03*
D12*
X19500000Y-51000000D03*
X77500000Y-28000000D03*
X19500000Y-28000000D03*
X77500000Y-51000000D03*
D13*
X58870400Y-38618160D03*
D14*
X60170400Y-38618160D03*
D13*
X58870400Y-33411160D03*
D14*
X60170400Y-33411160D03*
D13*
X58870400Y-36052760D03*
D14*
X60170400Y-36052760D03*
D10*
X24372000Y-29270960D03*
D11*
X24372000Y-26730960D03*
X26912000Y-29270960D03*
X26912000Y-26730960D03*
X29452000Y-29270960D03*
X29452000Y-26730960D03*
X31992000Y-29270960D03*
X31992000Y-26730960D03*
X34532000Y-29270960D03*
X34532000Y-26730960D03*
X37072000Y-29270960D03*
X37072000Y-26730960D03*
X39612000Y-29270960D03*
X39612000Y-26730960D03*
X42152000Y-29270960D03*
X42152000Y-26730960D03*
X44692000Y-29270960D03*
X44692000Y-26730960D03*
X47232000Y-29270960D03*
X47232000Y-26730960D03*
X49772000Y-29270960D03*
X49772000Y-26730960D03*
X52312000Y-29270960D03*
X52312000Y-26730960D03*
X54852000Y-29270960D03*
X54852000Y-26730960D03*
X57392000Y-29270960D03*
X57392000Y-26730960D03*
X59932000Y-29270960D03*
X59932000Y-26730960D03*
X62472000Y-29270960D03*
X62472000Y-26730960D03*
X65012000Y-29270960D03*
X65012000Y-26730960D03*
X67552000Y-29270960D03*
X67552000Y-26730960D03*
X70092000Y-29270960D03*
X70092000Y-26730960D03*
X72632000Y-29270960D03*
X72632000Y-26730960D03*
D10*
X70092000Y-31810960D03*
D11*
X72632000Y-31810960D03*
D10*
X24372000Y-46669960D03*
D11*
X26912000Y-46669960D03*
X24372000Y-44129960D03*
X26912000Y-44129960D03*
X24372000Y-41589960D03*
X26912000Y-41589960D03*
X24372000Y-39049960D03*
X26912000Y-39049960D03*
X24372000Y-36509960D03*
X26912000Y-36509960D03*
X24372000Y-33969960D03*
X26912000Y-33969960D03*
D10*
X70097200Y-45374560D03*
D11*
X67557200Y-45374560D03*
X70097200Y-42834560D03*
X67557200Y-42834560D03*
X70097200Y-40294560D03*
X67557200Y-40294560D03*
X70097200Y-37754560D03*
X67557200Y-37754560D03*
X70097200Y-35214560D03*
X67557200Y-35214560D03*
M02*
