G04 #@! TF.GenerationSoftware,KiCad,Pcbnew,8.0.6*
G04 #@! TF.CreationDate,2024-11-23T12:10:56+00:00*
G04 #@! TF.ProjectId,rgb-to-hdmi,7267622d-746f-42d6-9864-6d692e6b6963,4 / 01*
G04 #@! TF.SameCoordinates,Original*
G04 #@! TF.FileFunction,Legend,Top*
G04 #@! TF.FilePolarity,Positive*
%FSLAX46Y46*%
G04 Gerber Fmt 4.6, Leading zero omitted, Abs format (unit mm)*
G04 Created by KiCad (PCBNEW 8.0.6) date 2024-11-23 12:10:56*
%MOMM*%
%LPD*%
G01*
G04 APERTURE LIST*
%ADD10C,0.150000*%
%ADD11C,0.100000*%
%ADD12C,0.110000*%
%ADD13C,0.120000*%
G04 APERTURE END LIST*
D10*
X62680400Y-45074960D02*
X55060400Y-45074960D01*
X30193800Y-35239960D02*
X26129800Y-35239960D01*
X26175400Y-40294560D02*
X25642000Y-40294560D01*
X26150000Y-45374560D02*
X25642000Y-45374560D01*
X26150000Y-37779960D02*
X25642000Y-37779960D01*
X50339961Y-43240960D02*
G75*
G02*
X49204039Y-43240960I-567961J0D01*
G01*
X49204039Y-43240960D02*
G75*
G02*
X50339961Y-43240960I567961J0D01*
G01*
X30193800Y-37779960D02*
X26129800Y-37779960D01*
X25621800Y-42834560D02*
X25164600Y-42377360D01*
X25621800Y-40294560D02*
X25164600Y-39837360D01*
X26150000Y-42834560D02*
X25642000Y-42834560D01*
X30193800Y-40294560D02*
X26129800Y-40294560D01*
X25621800Y-37779960D02*
X25164600Y-37322760D01*
X55060400Y-33644960D02*
X62680400Y-33644960D01*
X25642000Y-35239960D02*
X25184800Y-34782760D01*
X30193800Y-45374560D02*
X26129800Y-45374560D01*
X30193800Y-42834560D02*
X26129800Y-42834560D01*
X25642000Y-45374560D02*
X25190000Y-44917360D01*
X26150000Y-35239960D02*
X25642000Y-35239960D01*
D11*
X66963543Y-34013731D02*
X66963543Y-33613731D01*
X66963543Y-33670874D02*
X66992114Y-33642302D01*
X66992114Y-33642302D02*
X67049257Y-33613731D01*
X67049257Y-33613731D02*
X67134971Y-33613731D01*
X67134971Y-33613731D02*
X67192114Y-33642302D01*
X67192114Y-33642302D02*
X67220686Y-33699445D01*
X67220686Y-33699445D02*
X67220686Y-34013731D01*
X67220686Y-33699445D02*
X67249257Y-33642302D01*
X67249257Y-33642302D02*
X67306400Y-33613731D01*
X67306400Y-33613731D02*
X67392114Y-33613731D01*
X67392114Y-33613731D02*
X67449257Y-33642302D01*
X67449257Y-33642302D02*
X67477828Y-33699445D01*
X67477828Y-33699445D02*
X67477828Y-34013731D01*
X67706400Y-33413731D02*
X68106400Y-33413731D01*
X68106400Y-33413731D02*
X67849257Y-34013731D01*
X66007171Y-45963446D02*
X66492885Y-45963446D01*
X66492885Y-45963446D02*
X66550028Y-45992017D01*
X66550028Y-45992017D02*
X66578600Y-46020588D01*
X66578600Y-46020588D02*
X66607171Y-46077731D01*
X66607171Y-46077731D02*
X66607171Y-46163446D01*
X66607171Y-46163446D02*
X66578600Y-46220588D01*
X66378600Y-45963446D02*
X66407171Y-46020588D01*
X66407171Y-46020588D02*
X66407171Y-46134874D01*
X66407171Y-46134874D02*
X66378600Y-46192017D01*
X66378600Y-46192017D02*
X66350028Y-46220588D01*
X66350028Y-46220588D02*
X66292885Y-46249160D01*
X66292885Y-46249160D02*
X66121457Y-46249160D01*
X66121457Y-46249160D02*
X66064314Y-46220588D01*
X66064314Y-46220588D02*
X66035742Y-46192017D01*
X66035742Y-46192017D02*
X66007171Y-46134874D01*
X66007171Y-46134874D02*
X66007171Y-46020588D01*
X66007171Y-46020588D02*
X66035742Y-45963446D01*
X66407171Y-45677731D02*
X66007171Y-45677731D01*
X66121457Y-45677731D02*
X66064314Y-45649160D01*
X66064314Y-45649160D02*
X66035742Y-45620589D01*
X66035742Y-45620589D02*
X66007171Y-45563446D01*
X66007171Y-45563446D02*
X66007171Y-45506303D01*
X66007171Y-45306302D02*
X66407171Y-45306302D01*
X66064314Y-45306302D02*
X66035742Y-45277731D01*
X66035742Y-45277731D02*
X66007171Y-45220588D01*
X66007171Y-45220588D02*
X66007171Y-45134874D01*
X66007171Y-45134874D02*
X66035742Y-45077731D01*
X66035742Y-45077731D02*
X66092885Y-45049160D01*
X66092885Y-45049160D02*
X66407171Y-45049160D01*
X66407171Y-44449160D02*
X66407171Y-44792017D01*
X66407171Y-44620588D02*
X65807171Y-44620588D01*
X65807171Y-44620588D02*
X65892885Y-44677731D01*
X65892885Y-44677731D02*
X65950028Y-44734874D01*
X65950028Y-44734874D02*
X65978600Y-44792017D01*
D12*
X30641600Y-43051073D02*
X30641600Y-42584406D01*
X30641600Y-42717740D02*
X30674934Y-42651073D01*
X30674934Y-42651073D02*
X30708267Y-42617740D01*
X30708267Y-42617740D02*
X30774934Y-42584406D01*
X30774934Y-42584406D02*
X30841600Y-42584406D01*
X31341600Y-43017740D02*
X31274933Y-43051073D01*
X31274933Y-43051073D02*
X31141600Y-43051073D01*
X31141600Y-43051073D02*
X31074933Y-43017740D01*
X31074933Y-43017740D02*
X31041600Y-42951073D01*
X31041600Y-42951073D02*
X31041600Y-42684406D01*
X31041600Y-42684406D02*
X31074933Y-42617740D01*
X31074933Y-42617740D02*
X31141600Y-42584406D01*
X31141600Y-42584406D02*
X31274933Y-42584406D01*
X31274933Y-42584406D02*
X31341600Y-42617740D01*
X31341600Y-42617740D02*
X31374933Y-42684406D01*
X31374933Y-42684406D02*
X31374933Y-42751073D01*
X31374933Y-42751073D02*
X31041600Y-42817740D01*
X31974933Y-43051073D02*
X31974933Y-42351073D01*
X31974933Y-43017740D02*
X31908267Y-43051073D01*
X31908267Y-43051073D02*
X31774933Y-43051073D01*
X31774933Y-43051073D02*
X31708267Y-43017740D01*
X31708267Y-43017740D02*
X31674933Y-42984406D01*
X31674933Y-42984406D02*
X31641600Y-42917740D01*
X31641600Y-42917740D02*
X31641600Y-42717740D01*
X31641600Y-42717740D02*
X31674933Y-42651073D01*
X31674933Y-42651073D02*
X31708267Y-42617740D01*
X31708267Y-42617740D02*
X31774933Y-42584406D01*
X31774933Y-42584406D02*
X31908267Y-42584406D01*
X31908267Y-42584406D02*
X31974933Y-42617740D01*
X32274933Y-42417740D02*
X32308266Y-42384406D01*
X32308266Y-42384406D02*
X32374933Y-42351073D01*
X32374933Y-42351073D02*
X32541600Y-42351073D01*
X32541600Y-42351073D02*
X32608266Y-42384406D01*
X32608266Y-42384406D02*
X32641600Y-42417740D01*
X32641600Y-42417740D02*
X32674933Y-42484406D01*
X32674933Y-42484406D02*
X32674933Y-42551073D01*
X32674933Y-42551073D02*
X32641600Y-42651073D01*
X32641600Y-42651073D02*
X32241600Y-43051073D01*
X32241600Y-43051073D02*
X32674933Y-43051073D01*
X30641600Y-40561873D02*
X30641600Y-40095206D01*
X30641600Y-40228540D02*
X30674934Y-40161873D01*
X30674934Y-40161873D02*
X30708267Y-40128540D01*
X30708267Y-40128540D02*
X30774934Y-40095206D01*
X30774934Y-40095206D02*
X30841600Y-40095206D01*
X31341600Y-40528540D02*
X31274933Y-40561873D01*
X31274933Y-40561873D02*
X31141600Y-40561873D01*
X31141600Y-40561873D02*
X31074933Y-40528540D01*
X31074933Y-40528540D02*
X31041600Y-40461873D01*
X31041600Y-40461873D02*
X31041600Y-40195206D01*
X31041600Y-40195206D02*
X31074933Y-40128540D01*
X31074933Y-40128540D02*
X31141600Y-40095206D01*
X31141600Y-40095206D02*
X31274933Y-40095206D01*
X31274933Y-40095206D02*
X31341600Y-40128540D01*
X31341600Y-40128540D02*
X31374933Y-40195206D01*
X31374933Y-40195206D02*
X31374933Y-40261873D01*
X31374933Y-40261873D02*
X31041600Y-40328540D01*
X31974933Y-40561873D02*
X31974933Y-39861873D01*
X31974933Y-40528540D02*
X31908267Y-40561873D01*
X31908267Y-40561873D02*
X31774933Y-40561873D01*
X31774933Y-40561873D02*
X31708267Y-40528540D01*
X31708267Y-40528540D02*
X31674933Y-40495206D01*
X31674933Y-40495206D02*
X31641600Y-40428540D01*
X31641600Y-40428540D02*
X31641600Y-40228540D01*
X31641600Y-40228540D02*
X31674933Y-40161873D01*
X31674933Y-40161873D02*
X31708267Y-40128540D01*
X31708267Y-40128540D02*
X31774933Y-40095206D01*
X31774933Y-40095206D02*
X31908267Y-40095206D01*
X31908267Y-40095206D02*
X31974933Y-40128540D01*
X32241600Y-39861873D02*
X32674933Y-39861873D01*
X32674933Y-39861873D02*
X32441600Y-40128540D01*
X32441600Y-40128540D02*
X32541600Y-40128540D01*
X32541600Y-40128540D02*
X32608266Y-40161873D01*
X32608266Y-40161873D02*
X32641600Y-40195206D01*
X32641600Y-40195206D02*
X32674933Y-40261873D01*
X32674933Y-40261873D02*
X32674933Y-40428540D01*
X32674933Y-40428540D02*
X32641600Y-40495206D01*
X32641600Y-40495206D02*
X32608266Y-40528540D01*
X32608266Y-40528540D02*
X32541600Y-40561873D01*
X32541600Y-40561873D02*
X32341600Y-40561873D01*
X32341600Y-40561873D02*
X32274933Y-40528540D01*
X32274933Y-40528540D02*
X32241600Y-40495206D01*
D11*
X66007171Y-40832646D02*
X66492885Y-40832646D01*
X66492885Y-40832646D02*
X66550028Y-40861217D01*
X66550028Y-40861217D02*
X66578600Y-40889788D01*
X66578600Y-40889788D02*
X66607171Y-40946931D01*
X66607171Y-40946931D02*
X66607171Y-41032646D01*
X66607171Y-41032646D02*
X66578600Y-41089788D01*
X66378600Y-40832646D02*
X66407171Y-40889788D01*
X66407171Y-40889788D02*
X66407171Y-41004074D01*
X66407171Y-41004074D02*
X66378600Y-41061217D01*
X66378600Y-41061217D02*
X66350028Y-41089788D01*
X66350028Y-41089788D02*
X66292885Y-41118360D01*
X66292885Y-41118360D02*
X66121457Y-41118360D01*
X66121457Y-41118360D02*
X66064314Y-41089788D01*
X66064314Y-41089788D02*
X66035742Y-41061217D01*
X66035742Y-41061217D02*
X66007171Y-41004074D01*
X66007171Y-41004074D02*
X66007171Y-40889788D01*
X66007171Y-40889788D02*
X66035742Y-40832646D01*
X66407171Y-40546931D02*
X66007171Y-40546931D01*
X66121457Y-40546931D02*
X66064314Y-40518360D01*
X66064314Y-40518360D02*
X66035742Y-40489789D01*
X66035742Y-40489789D02*
X66007171Y-40432646D01*
X66007171Y-40432646D02*
X66007171Y-40375503D01*
X66007171Y-40175502D02*
X66407171Y-40175502D01*
X66064314Y-40175502D02*
X66035742Y-40146931D01*
X66035742Y-40146931D02*
X66007171Y-40089788D01*
X66007171Y-40089788D02*
X66007171Y-40004074D01*
X66007171Y-40004074D02*
X66035742Y-39946931D01*
X66035742Y-39946931D02*
X66092885Y-39918360D01*
X66092885Y-39918360D02*
X66407171Y-39918360D01*
X65807171Y-39518360D02*
X65807171Y-39461217D01*
X65807171Y-39461217D02*
X65835742Y-39404074D01*
X65835742Y-39404074D02*
X65864314Y-39375503D01*
X65864314Y-39375503D02*
X65921457Y-39346931D01*
X65921457Y-39346931D02*
X66035742Y-39318360D01*
X66035742Y-39318360D02*
X66178600Y-39318360D01*
X66178600Y-39318360D02*
X66292885Y-39346931D01*
X66292885Y-39346931D02*
X66350028Y-39375503D01*
X66350028Y-39375503D02*
X66378600Y-39404074D01*
X66378600Y-39404074D02*
X66407171Y-39461217D01*
X66407171Y-39461217D02*
X66407171Y-39518360D01*
X66407171Y-39518360D02*
X66378600Y-39575503D01*
X66378600Y-39575503D02*
X66350028Y-39604074D01*
X66350028Y-39604074D02*
X66292885Y-39632645D01*
X66292885Y-39632645D02*
X66178600Y-39661217D01*
X66178600Y-39661217D02*
X66035742Y-39661217D01*
X66035742Y-39661217D02*
X65921457Y-39632645D01*
X65921457Y-39632645D02*
X65864314Y-39604074D01*
X65864314Y-39604074D02*
X65835742Y-39575503D01*
X65835742Y-39575503D02*
X65807171Y-39518360D01*
D13*
X71322866Y-43211120D02*
X71437152Y-43249215D01*
X71437152Y-43249215D02*
X71627628Y-43249215D01*
X71627628Y-43249215D02*
X71703819Y-43211120D01*
X71703819Y-43211120D02*
X71741914Y-43173024D01*
X71741914Y-43173024D02*
X71780009Y-43096834D01*
X71780009Y-43096834D02*
X71780009Y-43020643D01*
X71780009Y-43020643D02*
X71741914Y-42944453D01*
X71741914Y-42944453D02*
X71703819Y-42906358D01*
X71703819Y-42906358D02*
X71627628Y-42868262D01*
X71627628Y-42868262D02*
X71475247Y-42830167D01*
X71475247Y-42830167D02*
X71399057Y-42792072D01*
X71399057Y-42792072D02*
X71360962Y-42753977D01*
X71360962Y-42753977D02*
X71322866Y-42677786D01*
X71322866Y-42677786D02*
X71322866Y-42601596D01*
X71322866Y-42601596D02*
X71360962Y-42525405D01*
X71360962Y-42525405D02*
X71399057Y-42487310D01*
X71399057Y-42487310D02*
X71475247Y-42449215D01*
X71475247Y-42449215D02*
X71665724Y-42449215D01*
X71665724Y-42449215D02*
X71780009Y-42487310D01*
X72008581Y-42449215D02*
X72465724Y-42449215D01*
X72237152Y-43249215D02*
X72237152Y-42449215D01*
X72999057Y-42830167D02*
X73113343Y-42868262D01*
X73113343Y-42868262D02*
X73151438Y-42906358D01*
X73151438Y-42906358D02*
X73189534Y-42982548D01*
X73189534Y-42982548D02*
X73189534Y-43096834D01*
X73189534Y-43096834D02*
X73151438Y-43173024D01*
X73151438Y-43173024D02*
X73113343Y-43211120D01*
X73113343Y-43211120D02*
X73037153Y-43249215D01*
X73037153Y-43249215D02*
X72732391Y-43249215D01*
X72732391Y-43249215D02*
X72732391Y-42449215D01*
X72732391Y-42449215D02*
X72999057Y-42449215D01*
X72999057Y-42449215D02*
X73075248Y-42487310D01*
X73075248Y-42487310D02*
X73113343Y-42525405D01*
X73113343Y-42525405D02*
X73151438Y-42601596D01*
X73151438Y-42601596D02*
X73151438Y-42677786D01*
X73151438Y-42677786D02*
X73113343Y-42753977D01*
X73113343Y-42753977D02*
X73075248Y-42792072D01*
X73075248Y-42792072D02*
X72999057Y-42830167D01*
X72999057Y-42830167D02*
X72732391Y-42830167D01*
D12*
X21294400Y-48029473D02*
X21294400Y-47562806D01*
X21294400Y-47696140D02*
X21327734Y-47629473D01*
X21327734Y-47629473D02*
X21361067Y-47596140D01*
X21361067Y-47596140D02*
X21427734Y-47562806D01*
X21427734Y-47562806D02*
X21494400Y-47562806D01*
X21994400Y-47996140D02*
X21927733Y-48029473D01*
X21927733Y-48029473D02*
X21794400Y-48029473D01*
X21794400Y-48029473D02*
X21727733Y-47996140D01*
X21727733Y-47996140D02*
X21694400Y-47929473D01*
X21694400Y-47929473D02*
X21694400Y-47662806D01*
X21694400Y-47662806D02*
X21727733Y-47596140D01*
X21727733Y-47596140D02*
X21794400Y-47562806D01*
X21794400Y-47562806D02*
X21927733Y-47562806D01*
X21927733Y-47562806D02*
X21994400Y-47596140D01*
X21994400Y-47596140D02*
X22027733Y-47662806D01*
X22027733Y-47662806D02*
X22027733Y-47729473D01*
X22027733Y-47729473D02*
X21694400Y-47796140D01*
X22627733Y-48029473D02*
X22627733Y-47329473D01*
X22627733Y-47996140D02*
X22561067Y-48029473D01*
X22561067Y-48029473D02*
X22427733Y-48029473D01*
X22427733Y-48029473D02*
X22361067Y-47996140D01*
X22361067Y-47996140D02*
X22327733Y-47962806D01*
X22327733Y-47962806D02*
X22294400Y-47896140D01*
X22294400Y-47896140D02*
X22294400Y-47696140D01*
X22294400Y-47696140D02*
X22327733Y-47629473D01*
X22327733Y-47629473D02*
X22361067Y-47596140D01*
X22361067Y-47596140D02*
X22427733Y-47562806D01*
X22427733Y-47562806D02*
X22561067Y-47562806D01*
X22561067Y-47562806D02*
X22627733Y-47596140D01*
X23327733Y-48029473D02*
X22927733Y-48029473D01*
X23127733Y-48029473D02*
X23127733Y-47329473D01*
X23127733Y-47329473D02*
X23061066Y-47429473D01*
X23061066Y-47429473D02*
X22994400Y-47496140D01*
X22994400Y-47496140D02*
X22927733Y-47529473D01*
X28841267Y-33638873D02*
X28507933Y-33638873D01*
X28507933Y-33638873D02*
X28474600Y-33972206D01*
X28474600Y-33972206D02*
X28507933Y-33938873D01*
X28507933Y-33938873D02*
X28574600Y-33905540D01*
X28574600Y-33905540D02*
X28741267Y-33905540D01*
X28741267Y-33905540D02*
X28807933Y-33938873D01*
X28807933Y-33938873D02*
X28841267Y-33972206D01*
X28841267Y-33972206D02*
X28874600Y-34038873D01*
X28874600Y-34038873D02*
X28874600Y-34205540D01*
X28874600Y-34205540D02*
X28841267Y-34272206D01*
X28841267Y-34272206D02*
X28807933Y-34305540D01*
X28807933Y-34305540D02*
X28741267Y-34338873D01*
X28741267Y-34338873D02*
X28574600Y-34338873D01*
X28574600Y-34338873D02*
X28507933Y-34305540D01*
X28507933Y-34305540D02*
X28474600Y-34272206D01*
X29074600Y-33638873D02*
X29307934Y-34338873D01*
X29307934Y-34338873D02*
X29541267Y-33638873D01*
D11*
X71305091Y-45866455D02*
X71305091Y-45066455D01*
X71305091Y-45066455D02*
X71609853Y-45066455D01*
X71609853Y-45066455D02*
X71686043Y-45104550D01*
X71686043Y-45104550D02*
X71724138Y-45142645D01*
X71724138Y-45142645D02*
X71762234Y-45218836D01*
X71762234Y-45218836D02*
X71762234Y-45333121D01*
X71762234Y-45333121D02*
X71724138Y-45409312D01*
X71724138Y-45409312D02*
X71686043Y-45447407D01*
X71686043Y-45447407D02*
X71609853Y-45485502D01*
X71609853Y-45485502D02*
X71305091Y-45485502D01*
X72524138Y-45866455D02*
X72066995Y-45866455D01*
X72295567Y-45866455D02*
X72295567Y-45066455D01*
X72295567Y-45066455D02*
X72219376Y-45180740D01*
X72219376Y-45180740D02*
X72143186Y-45256931D01*
X72143186Y-45256931D02*
X72066995Y-45295026D01*
X72905091Y-45866455D02*
X73057472Y-45866455D01*
X73057472Y-45866455D02*
X73133662Y-45828360D01*
X73133662Y-45828360D02*
X73171758Y-45790264D01*
X73171758Y-45790264D02*
X73247948Y-45675979D01*
X73247948Y-45675979D02*
X73286043Y-45523598D01*
X73286043Y-45523598D02*
X73286043Y-45218836D01*
X73286043Y-45218836D02*
X73247948Y-45142645D01*
X73247948Y-45142645D02*
X73209853Y-45104550D01*
X73209853Y-45104550D02*
X73133662Y-45066455D01*
X73133662Y-45066455D02*
X72981281Y-45066455D01*
X72981281Y-45066455D02*
X72905091Y-45104550D01*
X72905091Y-45104550D02*
X72866996Y-45142645D01*
X72866996Y-45142645D02*
X72828900Y-45218836D01*
X72828900Y-45218836D02*
X72828900Y-45409312D01*
X72828900Y-45409312D02*
X72866996Y-45485502D01*
X72866996Y-45485502D02*
X72905091Y-45523598D01*
X72905091Y-45523598D02*
X72981281Y-45561693D01*
X72981281Y-45561693D02*
X73133662Y-45561693D01*
X73133662Y-45561693D02*
X73209853Y-45523598D01*
X73209853Y-45523598D02*
X73247948Y-45485502D01*
X73247948Y-45485502D02*
X73286043Y-45409312D01*
D13*
X71805410Y-40683824D02*
X71767314Y-40721920D01*
X71767314Y-40721920D02*
X71653029Y-40760015D01*
X71653029Y-40760015D02*
X71576838Y-40760015D01*
X71576838Y-40760015D02*
X71462552Y-40721920D01*
X71462552Y-40721920D02*
X71386362Y-40645729D01*
X71386362Y-40645729D02*
X71348267Y-40569539D01*
X71348267Y-40569539D02*
X71310171Y-40417158D01*
X71310171Y-40417158D02*
X71310171Y-40302872D01*
X71310171Y-40302872D02*
X71348267Y-40150491D01*
X71348267Y-40150491D02*
X71386362Y-40074300D01*
X71386362Y-40074300D02*
X71462552Y-39998110D01*
X71462552Y-39998110D02*
X71576838Y-39960015D01*
X71576838Y-39960015D02*
X71653029Y-39960015D01*
X71653029Y-39960015D02*
X71767314Y-39998110D01*
X71767314Y-39998110D02*
X71805410Y-40036205D01*
X72529219Y-40760015D02*
X72148267Y-40760015D01*
X72148267Y-40760015D02*
X72148267Y-39960015D01*
X72795886Y-40760015D02*
X72795886Y-39960015D01*
X73253029Y-40760015D02*
X72910171Y-40302872D01*
X73253029Y-39960015D02*
X72795886Y-40417158D01*
D12*
X28842133Y-44032206D02*
X28842133Y-44598873D01*
X28842133Y-44598873D02*
X28808800Y-44665540D01*
X28808800Y-44665540D02*
X28775467Y-44698873D01*
X28775467Y-44698873D02*
X28708800Y-44732206D01*
X28708800Y-44732206D02*
X28608800Y-44732206D01*
X28608800Y-44732206D02*
X28542133Y-44698873D01*
X28842133Y-44465540D02*
X28775467Y-44498873D01*
X28775467Y-44498873D02*
X28642133Y-44498873D01*
X28642133Y-44498873D02*
X28575467Y-44465540D01*
X28575467Y-44465540D02*
X28542133Y-44432206D01*
X28542133Y-44432206D02*
X28508800Y-44365540D01*
X28508800Y-44365540D02*
X28508800Y-44165540D01*
X28508800Y-44165540D02*
X28542133Y-44098873D01*
X28542133Y-44098873D02*
X28575467Y-44065540D01*
X28575467Y-44065540D02*
X28642133Y-44032206D01*
X28642133Y-44032206D02*
X28775467Y-44032206D01*
X28775467Y-44032206D02*
X28842133Y-44065540D01*
X29175466Y-44498873D02*
X29175466Y-44032206D01*
X29175466Y-44165540D02*
X29208800Y-44098873D01*
X29208800Y-44098873D02*
X29242133Y-44065540D01*
X29242133Y-44065540D02*
X29308800Y-44032206D01*
X29308800Y-44032206D02*
X29375466Y-44032206D01*
X29608799Y-44032206D02*
X29608799Y-44498873D01*
X29608799Y-44098873D02*
X29642133Y-44065540D01*
X29642133Y-44065540D02*
X29708799Y-44032206D01*
X29708799Y-44032206D02*
X29808799Y-44032206D01*
X29808799Y-44032206D02*
X29875466Y-44065540D01*
X29875466Y-44065540D02*
X29908799Y-44132206D01*
X29908799Y-44132206D02*
X29908799Y-44498873D01*
X30208799Y-43865540D02*
X30242132Y-43832206D01*
X30242132Y-43832206D02*
X30308799Y-43798873D01*
X30308799Y-43798873D02*
X30475466Y-43798873D01*
X30475466Y-43798873D02*
X30542132Y-43832206D01*
X30542132Y-43832206D02*
X30575466Y-43865540D01*
X30575466Y-43865540D02*
X30608799Y-43932206D01*
X30608799Y-43932206D02*
X30608799Y-43998873D01*
X30608799Y-43998873D02*
X30575466Y-44098873D01*
X30575466Y-44098873D02*
X30175466Y-44498873D01*
X30175466Y-44498873D02*
X30608799Y-44498873D01*
D11*
X69274972Y-34039131D02*
X69274972Y-33639131D01*
X69274972Y-33696274D02*
X69303543Y-33667702D01*
X69303543Y-33667702D02*
X69360686Y-33639131D01*
X69360686Y-33639131D02*
X69446400Y-33639131D01*
X69446400Y-33639131D02*
X69503543Y-33667702D01*
X69503543Y-33667702D02*
X69532115Y-33724845D01*
X69532115Y-33724845D02*
X69532115Y-34039131D01*
X69532115Y-33724845D02*
X69560686Y-33667702D01*
X69560686Y-33667702D02*
X69617829Y-33639131D01*
X69617829Y-33639131D02*
X69703543Y-33639131D01*
X69703543Y-33639131D02*
X69760686Y-33667702D01*
X69760686Y-33667702D02*
X69789257Y-33724845D01*
X69789257Y-33724845D02*
X69789257Y-34039131D01*
X70332115Y-33639131D02*
X70332115Y-34039131D01*
X70074972Y-33639131D02*
X70074972Y-33953417D01*
X70074972Y-33953417D02*
X70103543Y-34010560D01*
X70103543Y-34010560D02*
X70160686Y-34039131D01*
X70160686Y-34039131D02*
X70246400Y-34039131D01*
X70246400Y-34039131D02*
X70303543Y-34010560D01*
X70303543Y-34010560D02*
X70332115Y-33981988D01*
X70560686Y-34039131D02*
X70874972Y-33639131D01*
X70560686Y-33639131D02*
X70874972Y-34039131D01*
D12*
X28524666Y-47013473D02*
X28524666Y-46313473D01*
X28524666Y-46580140D02*
X28591333Y-46546806D01*
X28591333Y-46546806D02*
X28724666Y-46546806D01*
X28724666Y-46546806D02*
X28791333Y-46580140D01*
X28791333Y-46580140D02*
X28824666Y-46613473D01*
X28824666Y-46613473D02*
X28858000Y-46680140D01*
X28858000Y-46680140D02*
X28858000Y-46880140D01*
X28858000Y-46880140D02*
X28824666Y-46946806D01*
X28824666Y-46946806D02*
X28791333Y-46980140D01*
X28791333Y-46980140D02*
X28724666Y-47013473D01*
X28724666Y-47013473D02*
X28591333Y-47013473D01*
X28591333Y-47013473D02*
X28524666Y-46980140D01*
X29257999Y-47013473D02*
X29191333Y-46980140D01*
X29191333Y-46980140D02*
X29157999Y-46913473D01*
X29157999Y-46913473D02*
X29157999Y-46313473D01*
X29824666Y-46546806D02*
X29824666Y-47013473D01*
X29524666Y-46546806D02*
X29524666Y-46913473D01*
X29524666Y-46913473D02*
X29558000Y-46980140D01*
X29558000Y-46980140D02*
X29624666Y-47013473D01*
X29624666Y-47013473D02*
X29724666Y-47013473D01*
X29724666Y-47013473D02*
X29791333Y-46980140D01*
X29791333Y-46980140D02*
X29824666Y-46946806D01*
X30524666Y-47013473D02*
X30124666Y-47013473D01*
X30324666Y-47013473D02*
X30324666Y-46313473D01*
X30324666Y-46313473D02*
X30257999Y-46413473D01*
X30257999Y-46413473D02*
X30191333Y-46480140D01*
X30191333Y-46480140D02*
X30124666Y-46513473D01*
X30632866Y-35608873D02*
X30632866Y-34908873D01*
X30632866Y-35175540D02*
X30699533Y-35142206D01*
X30699533Y-35142206D02*
X30832866Y-35142206D01*
X30832866Y-35142206D02*
X30899533Y-35175540D01*
X30899533Y-35175540D02*
X30932866Y-35208873D01*
X30932866Y-35208873D02*
X30966200Y-35275540D01*
X30966200Y-35275540D02*
X30966200Y-35475540D01*
X30966200Y-35475540D02*
X30932866Y-35542206D01*
X30932866Y-35542206D02*
X30899533Y-35575540D01*
X30899533Y-35575540D02*
X30832866Y-35608873D01*
X30832866Y-35608873D02*
X30699533Y-35608873D01*
X30699533Y-35608873D02*
X30632866Y-35575540D01*
X31366199Y-35608873D02*
X31299533Y-35575540D01*
X31299533Y-35575540D02*
X31266199Y-35508873D01*
X31266199Y-35508873D02*
X31266199Y-34908873D01*
X31932866Y-35142206D02*
X31932866Y-35608873D01*
X31632866Y-35142206D02*
X31632866Y-35508873D01*
X31632866Y-35508873D02*
X31666200Y-35575540D01*
X31666200Y-35575540D02*
X31732866Y-35608873D01*
X31732866Y-35608873D02*
X31832866Y-35608873D01*
X31832866Y-35608873D02*
X31899533Y-35575540D01*
X31899533Y-35575540D02*
X31932866Y-35542206D01*
X32199533Y-34908873D02*
X32632866Y-34908873D01*
X32632866Y-34908873D02*
X32399533Y-35175540D01*
X32399533Y-35175540D02*
X32499533Y-35175540D01*
X32499533Y-35175540D02*
X32566199Y-35208873D01*
X32566199Y-35208873D02*
X32599533Y-35242206D01*
X32599533Y-35242206D02*
X32632866Y-35308873D01*
X32632866Y-35308873D02*
X32632866Y-35475540D01*
X32632866Y-35475540D02*
X32599533Y-35542206D01*
X32599533Y-35542206D02*
X32566199Y-35575540D01*
X32566199Y-35575540D02*
X32499533Y-35608873D01*
X32499533Y-35608873D02*
X32299533Y-35608873D01*
X32299533Y-35608873D02*
X32232866Y-35575540D01*
X32232866Y-35575540D02*
X32199533Y-35542206D01*
D11*
X19203166Y-42776559D02*
X19169833Y-42843226D01*
X19169833Y-42843226D02*
X19169833Y-42943226D01*
X19169833Y-42943226D02*
X19203166Y-43043226D01*
X19203166Y-43043226D02*
X19269833Y-43109893D01*
X19269833Y-43109893D02*
X19336500Y-43143226D01*
X19336500Y-43143226D02*
X19469833Y-43176559D01*
X19469833Y-43176559D02*
X19569833Y-43176559D01*
X19569833Y-43176559D02*
X19703166Y-43143226D01*
X19703166Y-43143226D02*
X19769833Y-43109893D01*
X19769833Y-43109893D02*
X19836500Y-43043226D01*
X19836500Y-43043226D02*
X19869833Y-42943226D01*
X19869833Y-42943226D02*
X19869833Y-42876559D01*
X19869833Y-42876559D02*
X19836500Y-42776559D01*
X19836500Y-42776559D02*
X19803166Y-42743226D01*
X19803166Y-42743226D02*
X19569833Y-42743226D01*
X19569833Y-42743226D02*
X19569833Y-42876559D01*
X19403166Y-42443226D02*
X19869833Y-42443226D01*
X19469833Y-42443226D02*
X19436500Y-42409893D01*
X19436500Y-42409893D02*
X19403166Y-42343226D01*
X19403166Y-42343226D02*
X19403166Y-42243226D01*
X19403166Y-42243226D02*
X19436500Y-42176559D01*
X19436500Y-42176559D02*
X19503166Y-42143226D01*
X19503166Y-42143226D02*
X19869833Y-42143226D01*
X19869833Y-41509893D02*
X19169833Y-41509893D01*
X19836500Y-41509893D02*
X19869833Y-41576560D01*
X19869833Y-41576560D02*
X19869833Y-41709893D01*
X19869833Y-41709893D02*
X19836500Y-41776560D01*
X19836500Y-41776560D02*
X19803166Y-41809893D01*
X19803166Y-41809893D02*
X19736500Y-41843226D01*
X19736500Y-41843226D02*
X19536500Y-41843226D01*
X19536500Y-41843226D02*
X19469833Y-41809893D01*
X19469833Y-41809893D02*
X19436500Y-41776560D01*
X19436500Y-41776560D02*
X19403166Y-41709893D01*
X19403166Y-41709893D02*
X19403166Y-41576560D01*
X19403166Y-41576560D02*
X19436500Y-41509893D01*
D12*
X28542866Y-39418873D02*
X28542866Y-38718873D01*
X28542866Y-39052206D02*
X28942866Y-39052206D01*
X28942866Y-39418873D02*
X28942866Y-38718873D01*
X29242866Y-39385540D02*
X29342866Y-39418873D01*
X29342866Y-39418873D02*
X29509533Y-39418873D01*
X29509533Y-39418873D02*
X29576199Y-39385540D01*
X29576199Y-39385540D02*
X29609533Y-39352206D01*
X29609533Y-39352206D02*
X29642866Y-39285540D01*
X29642866Y-39285540D02*
X29642866Y-39218873D01*
X29642866Y-39218873D02*
X29609533Y-39152206D01*
X29609533Y-39152206D02*
X29576199Y-39118873D01*
X29576199Y-39118873D02*
X29509533Y-39085540D01*
X29509533Y-39085540D02*
X29376199Y-39052206D01*
X29376199Y-39052206D02*
X29309533Y-39018873D01*
X29309533Y-39018873D02*
X29276199Y-38985540D01*
X29276199Y-38985540D02*
X29242866Y-38918873D01*
X29242866Y-38918873D02*
X29242866Y-38852206D01*
X29242866Y-38852206D02*
X29276199Y-38785540D01*
X29276199Y-38785540D02*
X29309533Y-38752206D01*
X29309533Y-38752206D02*
X29376199Y-38718873D01*
X29376199Y-38718873D02*
X29542866Y-38718873D01*
X29542866Y-38718873D02*
X29642866Y-38752206D01*
D11*
X19869833Y-37663226D02*
X19536500Y-37896559D01*
X19869833Y-38063226D02*
X19169833Y-38063226D01*
X19169833Y-38063226D02*
X19169833Y-37796559D01*
X19169833Y-37796559D02*
X19203166Y-37729893D01*
X19203166Y-37729893D02*
X19236500Y-37696559D01*
X19236500Y-37696559D02*
X19303166Y-37663226D01*
X19303166Y-37663226D02*
X19403166Y-37663226D01*
X19403166Y-37663226D02*
X19469833Y-37696559D01*
X19469833Y-37696559D02*
X19503166Y-37729893D01*
X19503166Y-37729893D02*
X19536500Y-37796559D01*
X19536500Y-37796559D02*
X19536500Y-38063226D01*
X19869833Y-37429893D02*
X19403166Y-37063226D01*
X19403166Y-37429893D02*
X19869833Y-37063226D01*
X19869833Y-36796559D02*
X19169833Y-36796559D01*
X19169833Y-36796559D02*
X19169833Y-36629892D01*
X19169833Y-36629892D02*
X19203166Y-36529892D01*
X19203166Y-36529892D02*
X19269833Y-36463226D01*
X19269833Y-36463226D02*
X19336500Y-36429892D01*
X19336500Y-36429892D02*
X19469833Y-36396559D01*
X19469833Y-36396559D02*
X19569833Y-36396559D01*
X19569833Y-36396559D02*
X19703166Y-36429892D01*
X19703166Y-36429892D02*
X19769833Y-36463226D01*
X19769833Y-36463226D02*
X19836500Y-36529892D01*
X19836500Y-36529892D02*
X19869833Y-36629892D01*
X19869833Y-36629892D02*
X19869833Y-36796559D01*
D10*
X75976184Y-34462879D02*
X75642851Y-33986688D01*
X75404756Y-34462879D02*
X75404756Y-33462879D01*
X75404756Y-33462879D02*
X75785708Y-33462879D01*
X75785708Y-33462879D02*
X75880946Y-33510498D01*
X75880946Y-33510498D02*
X75928565Y-33558117D01*
X75928565Y-33558117D02*
X75976184Y-33653355D01*
X75976184Y-33653355D02*
X75976184Y-33796212D01*
X75976184Y-33796212D02*
X75928565Y-33891450D01*
X75928565Y-33891450D02*
X75880946Y-33939069D01*
X75880946Y-33939069D02*
X75785708Y-33986688D01*
X75785708Y-33986688D02*
X75404756Y-33986688D01*
X76785708Y-34415260D02*
X76690470Y-34462879D01*
X76690470Y-34462879D02*
X76499994Y-34462879D01*
X76499994Y-34462879D02*
X76404756Y-34415260D01*
X76404756Y-34415260D02*
X76357137Y-34320021D01*
X76357137Y-34320021D02*
X76357137Y-33939069D01*
X76357137Y-33939069D02*
X76404756Y-33843831D01*
X76404756Y-33843831D02*
X76499994Y-33796212D01*
X76499994Y-33796212D02*
X76690470Y-33796212D01*
X76690470Y-33796212D02*
X76785708Y-33843831D01*
X76785708Y-33843831D02*
X76833327Y-33939069D01*
X76833327Y-33939069D02*
X76833327Y-34034307D01*
X76833327Y-34034307D02*
X76357137Y-34129545D01*
X77214280Y-34415260D02*
X77309518Y-34462879D01*
X77309518Y-34462879D02*
X77499994Y-34462879D01*
X77499994Y-34462879D02*
X77595232Y-34415260D01*
X77595232Y-34415260D02*
X77642851Y-34320021D01*
X77642851Y-34320021D02*
X77642851Y-34272402D01*
X77642851Y-34272402D02*
X77595232Y-34177164D01*
X77595232Y-34177164D02*
X77499994Y-34129545D01*
X77499994Y-34129545D02*
X77357137Y-34129545D01*
X77357137Y-34129545D02*
X77261899Y-34081926D01*
X77261899Y-34081926D02*
X77214280Y-33986688D01*
X77214280Y-33986688D02*
X77214280Y-33939069D01*
X77214280Y-33939069D02*
X77261899Y-33843831D01*
X77261899Y-33843831D02*
X77357137Y-33796212D01*
X77357137Y-33796212D02*
X77499994Y-33796212D01*
X77499994Y-33796212D02*
X77595232Y-33843831D01*
X78452375Y-34415260D02*
X78357137Y-34462879D01*
X78357137Y-34462879D02*
X78166661Y-34462879D01*
X78166661Y-34462879D02*
X78071423Y-34415260D01*
X78071423Y-34415260D02*
X78023804Y-34320021D01*
X78023804Y-34320021D02*
X78023804Y-33939069D01*
X78023804Y-33939069D02*
X78071423Y-33843831D01*
X78071423Y-33843831D02*
X78166661Y-33796212D01*
X78166661Y-33796212D02*
X78357137Y-33796212D01*
X78357137Y-33796212D02*
X78452375Y-33843831D01*
X78452375Y-33843831D02*
X78499994Y-33939069D01*
X78499994Y-33939069D02*
X78499994Y-34034307D01*
X78499994Y-34034307D02*
X78023804Y-34129545D01*
X78785709Y-33796212D02*
X79166661Y-33796212D01*
X78928566Y-33462879D02*
X78928566Y-34320021D01*
X78928566Y-34320021D02*
X78976185Y-34415260D01*
X78976185Y-34415260D02*
X79071423Y-34462879D01*
X79071423Y-34462879D02*
X79166661Y-34462879D01*
X61839819Y-44497427D02*
X60839819Y-44497427D01*
X61316009Y-44497427D02*
X61316009Y-43937427D01*
X61839819Y-43937427D02*
X60839819Y-43937427D01*
X61839819Y-43330760D02*
X61792200Y-43424094D01*
X61792200Y-43424094D02*
X61744580Y-43470760D01*
X61744580Y-43470760D02*
X61649342Y-43517427D01*
X61649342Y-43517427D02*
X61363628Y-43517427D01*
X61363628Y-43517427D02*
X61268390Y-43470760D01*
X61268390Y-43470760D02*
X61220771Y-43424094D01*
X61220771Y-43424094D02*
X61173152Y-43330760D01*
X61173152Y-43330760D02*
X61173152Y-43190760D01*
X61173152Y-43190760D02*
X61220771Y-43097427D01*
X61220771Y-43097427D02*
X61268390Y-43050760D01*
X61268390Y-43050760D02*
X61363628Y-43004094D01*
X61363628Y-43004094D02*
X61649342Y-43004094D01*
X61649342Y-43004094D02*
X61744580Y-43050760D01*
X61744580Y-43050760D02*
X61792200Y-43097427D01*
X61792200Y-43097427D02*
X61839819Y-43190760D01*
X61839819Y-43190760D02*
X61839819Y-43330760D01*
X61173152Y-42164093D02*
X61982676Y-42164093D01*
X61982676Y-42164093D02*
X62077914Y-42210760D01*
X62077914Y-42210760D02*
X62125533Y-42257427D01*
X62125533Y-42257427D02*
X62173152Y-42350760D01*
X62173152Y-42350760D02*
X62173152Y-42490760D01*
X62173152Y-42490760D02*
X62125533Y-42584093D01*
X61792200Y-42164093D02*
X61839819Y-42257427D01*
X61839819Y-42257427D02*
X61839819Y-42444093D01*
X61839819Y-42444093D02*
X61792200Y-42537427D01*
X61792200Y-42537427D02*
X61744580Y-42584093D01*
X61744580Y-42584093D02*
X61649342Y-42630760D01*
X61649342Y-42630760D02*
X61363628Y-42630760D01*
X61363628Y-42630760D02*
X61268390Y-42584093D01*
X61268390Y-42584093D02*
X61220771Y-42537427D01*
X61220771Y-42537427D02*
X61173152Y-42444093D01*
X61173152Y-42444093D02*
X61173152Y-42257427D01*
X61173152Y-42257427D02*
X61220771Y-42164093D01*
X61839819Y-41557426D02*
X61792200Y-41650760D01*
X61792200Y-41650760D02*
X61696961Y-41697426D01*
X61696961Y-41697426D02*
X60839819Y-41697426D01*
X61792200Y-40810760D02*
X61839819Y-40904093D01*
X61839819Y-40904093D02*
X61839819Y-41090760D01*
X61839819Y-41090760D02*
X61792200Y-41184093D01*
X61792200Y-41184093D02*
X61696961Y-41230760D01*
X61696961Y-41230760D02*
X61316009Y-41230760D01*
X61316009Y-41230760D02*
X61220771Y-41184093D01*
X61220771Y-41184093D02*
X61173152Y-41090760D01*
X61173152Y-41090760D02*
X61173152Y-40904093D01*
X61173152Y-40904093D02*
X61220771Y-40810760D01*
X61220771Y-40810760D02*
X61316009Y-40764093D01*
X61316009Y-40764093D02*
X61411247Y-40764093D01*
X61411247Y-40764093D02*
X61506485Y-41230760D01*
X61173152Y-40484093D02*
X61173152Y-40110760D01*
X60839819Y-40344093D02*
X61696961Y-40344093D01*
X61696961Y-40344093D02*
X61792200Y-40297427D01*
X61792200Y-40297427D02*
X61839819Y-40204093D01*
X61839819Y-40204093D02*
X61839819Y-40110760D01*
X61839819Y-38244093D02*
X61839819Y-38290760D01*
X61839819Y-38290760D02*
X61792200Y-38384093D01*
X61792200Y-38384093D02*
X61649342Y-38524093D01*
X61649342Y-38524093D02*
X61363628Y-38757426D01*
X61363628Y-38757426D02*
X61220771Y-38850760D01*
X61220771Y-38850760D02*
X61077914Y-38897426D01*
X61077914Y-38897426D02*
X60982676Y-38897426D01*
X60982676Y-38897426D02*
X60887438Y-38850760D01*
X60887438Y-38850760D02*
X60839819Y-38757426D01*
X60839819Y-38757426D02*
X60839819Y-38710760D01*
X60839819Y-38710760D02*
X60887438Y-38617426D01*
X60887438Y-38617426D02*
X60982676Y-38570760D01*
X60982676Y-38570760D02*
X61030295Y-38570760D01*
X61030295Y-38570760D02*
X61125533Y-38617426D01*
X61125533Y-38617426D02*
X61173152Y-38664093D01*
X61173152Y-38664093D02*
X61363628Y-38944093D01*
X61363628Y-38944093D02*
X61411247Y-38990760D01*
X61411247Y-38990760D02*
X61506485Y-39037426D01*
X61506485Y-39037426D02*
X61649342Y-39037426D01*
X61649342Y-39037426D02*
X61744580Y-38990760D01*
X61744580Y-38990760D02*
X61792200Y-38944093D01*
X61792200Y-38944093D02*
X61839819Y-38850760D01*
X61839819Y-38850760D02*
X61839819Y-38710760D01*
X61839819Y-38710760D02*
X61792200Y-38617426D01*
X61792200Y-38617426D02*
X61744580Y-38570760D01*
X61744580Y-38570760D02*
X61554104Y-38430760D01*
X61554104Y-38430760D02*
X61411247Y-38384093D01*
X61411247Y-38384093D02*
X61316009Y-38384093D01*
X61839819Y-37077426D02*
X60839819Y-37077426D01*
X61839819Y-36190759D02*
X61316009Y-36190759D01*
X61316009Y-36190759D02*
X61220771Y-36237426D01*
X61220771Y-36237426D02*
X61173152Y-36330759D01*
X61173152Y-36330759D02*
X61173152Y-36517426D01*
X61173152Y-36517426D02*
X61220771Y-36610759D01*
X61792200Y-36190759D02*
X61839819Y-36284093D01*
X61839819Y-36284093D02*
X61839819Y-36517426D01*
X61839819Y-36517426D02*
X61792200Y-36610759D01*
X61792200Y-36610759D02*
X61696961Y-36657426D01*
X61696961Y-36657426D02*
X61601723Y-36657426D01*
X61601723Y-36657426D02*
X61506485Y-36610759D01*
X61506485Y-36610759D02*
X61458866Y-36517426D01*
X61458866Y-36517426D02*
X61458866Y-36284093D01*
X61458866Y-36284093D02*
X61411247Y-36190759D01*
X61173152Y-35724092D02*
X61839819Y-35724092D01*
X61268390Y-35724092D02*
X61220771Y-35677426D01*
X61220771Y-35677426D02*
X61173152Y-35584092D01*
X61173152Y-35584092D02*
X61173152Y-35444092D01*
X61173152Y-35444092D02*
X61220771Y-35350759D01*
X61220771Y-35350759D02*
X61316009Y-35304092D01*
X61316009Y-35304092D02*
X61839819Y-35304092D01*
X61316009Y-34510759D02*
X61363628Y-34370759D01*
X61363628Y-34370759D02*
X61411247Y-34324092D01*
X61411247Y-34324092D02*
X61506485Y-34277425D01*
X61506485Y-34277425D02*
X61649342Y-34277425D01*
X61649342Y-34277425D02*
X61744580Y-34324092D01*
X61744580Y-34324092D02*
X61792200Y-34370759D01*
X61792200Y-34370759D02*
X61839819Y-34464092D01*
X61839819Y-34464092D02*
X61839819Y-34837425D01*
X61839819Y-34837425D02*
X60839819Y-34837425D01*
X60839819Y-34837425D02*
X60839819Y-34510759D01*
X60839819Y-34510759D02*
X60887438Y-34417425D01*
X60887438Y-34417425D02*
X60935057Y-34370759D01*
X60935057Y-34370759D02*
X61030295Y-34324092D01*
X61030295Y-34324092D02*
X61125533Y-34324092D01*
X61125533Y-34324092D02*
X61220771Y-34370759D01*
X61220771Y-34370759D02*
X61268390Y-34417425D01*
X61268390Y-34417425D02*
X61316009Y-34510759D01*
X61316009Y-34510759D02*
X61316009Y-34837425D01*
D12*
X28547133Y-36153473D02*
X28780467Y-36853473D01*
X28780467Y-36853473D02*
X29013800Y-36153473D01*
X29213800Y-36820140D02*
X29313800Y-36853473D01*
X29313800Y-36853473D02*
X29480467Y-36853473D01*
X29480467Y-36853473D02*
X29547133Y-36820140D01*
X29547133Y-36820140D02*
X29580467Y-36786806D01*
X29580467Y-36786806D02*
X29613800Y-36720140D01*
X29613800Y-36720140D02*
X29613800Y-36653473D01*
X29613800Y-36653473D02*
X29580467Y-36586806D01*
X29580467Y-36586806D02*
X29547133Y-36553473D01*
X29547133Y-36553473D02*
X29480467Y-36520140D01*
X29480467Y-36520140D02*
X29347133Y-36486806D01*
X29347133Y-36486806D02*
X29280467Y-36453473D01*
X29280467Y-36453473D02*
X29247133Y-36420140D01*
X29247133Y-36420140D02*
X29213800Y-36353473D01*
X29213800Y-36353473D02*
X29213800Y-36286806D01*
X29213800Y-36286806D02*
X29247133Y-36220140D01*
X29247133Y-36220140D02*
X29280467Y-36186806D01*
X29280467Y-36186806D02*
X29347133Y-36153473D01*
X29347133Y-36153473D02*
X29513800Y-36153473D01*
X29513800Y-36153473D02*
X29613800Y-36186806D01*
X30413800Y-36120140D02*
X29813800Y-37020140D01*
X30947133Y-36386806D02*
X30947133Y-36953473D01*
X30947133Y-36953473D02*
X30913800Y-37020140D01*
X30913800Y-37020140D02*
X30880467Y-37053473D01*
X30880467Y-37053473D02*
X30813800Y-37086806D01*
X30813800Y-37086806D02*
X30713800Y-37086806D01*
X30713800Y-37086806D02*
X30647133Y-37053473D01*
X30947133Y-36820140D02*
X30880467Y-36853473D01*
X30880467Y-36853473D02*
X30747133Y-36853473D01*
X30747133Y-36853473D02*
X30680467Y-36820140D01*
X30680467Y-36820140D02*
X30647133Y-36786806D01*
X30647133Y-36786806D02*
X30613800Y-36720140D01*
X30613800Y-36720140D02*
X30613800Y-36520140D01*
X30613800Y-36520140D02*
X30647133Y-36453473D01*
X30647133Y-36453473D02*
X30680467Y-36420140D01*
X30680467Y-36420140D02*
X30747133Y-36386806D01*
X30747133Y-36386806D02*
X30880467Y-36386806D01*
X30880467Y-36386806D02*
X30947133Y-36420140D01*
X31280466Y-36853473D02*
X31280466Y-36386806D01*
X31280466Y-36520140D02*
X31313800Y-36453473D01*
X31313800Y-36453473D02*
X31347133Y-36420140D01*
X31347133Y-36420140D02*
X31413800Y-36386806D01*
X31413800Y-36386806D02*
X31480466Y-36386806D01*
X31713799Y-36386806D02*
X31713799Y-36853473D01*
X31713799Y-36453473D02*
X31747133Y-36420140D01*
X31747133Y-36420140D02*
X31813799Y-36386806D01*
X31813799Y-36386806D02*
X31913799Y-36386806D01*
X31913799Y-36386806D02*
X31980466Y-36420140D01*
X31980466Y-36420140D02*
X32013799Y-36486806D01*
X32013799Y-36486806D02*
X32013799Y-36853473D01*
X32713799Y-36853473D02*
X32313799Y-36853473D01*
X32513799Y-36853473D02*
X32513799Y-36153473D01*
X32513799Y-36153473D02*
X32447132Y-36253473D01*
X32447132Y-36253473D02*
X32380466Y-36320140D01*
X32380466Y-36320140D02*
X32313799Y-36353473D01*
X33213799Y-37120140D02*
X33180466Y-37086806D01*
X33180466Y-37086806D02*
X33113799Y-36986806D01*
X33113799Y-36986806D02*
X33080466Y-36920140D01*
X33080466Y-36920140D02*
X33047133Y-36820140D01*
X33047133Y-36820140D02*
X33013799Y-36653473D01*
X33013799Y-36653473D02*
X33013799Y-36520140D01*
X33013799Y-36520140D02*
X33047133Y-36353473D01*
X33047133Y-36353473D02*
X33080466Y-36253473D01*
X33080466Y-36253473D02*
X33113799Y-36186806D01*
X33113799Y-36186806D02*
X33180466Y-36086806D01*
X33180466Y-36086806D02*
X33213799Y-36053473D01*
X33513800Y-36853473D02*
X33647133Y-36853473D01*
X33647133Y-36853473D02*
X33713800Y-36820140D01*
X33713800Y-36820140D02*
X33747133Y-36786806D01*
X33747133Y-36786806D02*
X33813800Y-36686806D01*
X33813800Y-36686806D02*
X33847133Y-36553473D01*
X33847133Y-36553473D02*
X33847133Y-36286806D01*
X33847133Y-36286806D02*
X33813800Y-36220140D01*
X33813800Y-36220140D02*
X33780466Y-36186806D01*
X33780466Y-36186806D02*
X33713800Y-36153473D01*
X33713800Y-36153473D02*
X33580466Y-36153473D01*
X33580466Y-36153473D02*
X33513800Y-36186806D01*
X33513800Y-36186806D02*
X33480466Y-36220140D01*
X33480466Y-36220140D02*
X33447133Y-36286806D01*
X33447133Y-36286806D02*
X33447133Y-36453473D01*
X33447133Y-36453473D02*
X33480466Y-36520140D01*
X33480466Y-36520140D02*
X33513800Y-36553473D01*
X33513800Y-36553473D02*
X33580466Y-36586806D01*
X33580466Y-36586806D02*
X33713800Y-36586806D01*
X33713800Y-36586806D02*
X33780466Y-36553473D01*
X33780466Y-36553473D02*
X33813800Y-36520140D01*
X33813800Y-36520140D02*
X33847133Y-36453473D01*
X34080467Y-37120140D02*
X34113800Y-37086806D01*
X34113800Y-37086806D02*
X34180467Y-36986806D01*
X34180467Y-36986806D02*
X34213800Y-36920140D01*
X34213800Y-36920140D02*
X34247133Y-36820140D01*
X34247133Y-36820140D02*
X34280467Y-36653473D01*
X34280467Y-36653473D02*
X34280467Y-36520140D01*
X34280467Y-36520140D02*
X34247133Y-36353473D01*
X34247133Y-36353473D02*
X34213800Y-36253473D01*
X34213800Y-36253473D02*
X34180467Y-36186806D01*
X34180467Y-36186806D02*
X34113800Y-36086806D01*
X34113800Y-36086806D02*
X34080467Y-36053473D01*
D10*
X59376114Y-42953292D02*
X59328495Y-43046625D01*
X59328495Y-43046625D02*
X59328495Y-43233292D01*
X59328495Y-43233292D02*
X59376114Y-43326625D01*
X59376114Y-43326625D02*
X59471352Y-43419959D01*
X59471352Y-43419959D02*
X59566590Y-43466625D01*
X59566590Y-43466625D02*
X59757066Y-43466625D01*
X59757066Y-43466625D02*
X59852304Y-43419959D01*
X59852304Y-43419959D02*
X59947542Y-43326625D01*
X59947542Y-43326625D02*
X59995161Y-43233292D01*
X59995161Y-43233292D02*
X59995161Y-43046625D01*
X59995161Y-43046625D02*
X59947542Y-42953292D01*
X58995161Y-43139959D02*
X59042780Y-43373292D01*
X59042780Y-43373292D02*
X59185638Y-43606625D01*
X59185638Y-43606625D02*
X59423733Y-43746625D01*
X59423733Y-43746625D02*
X59661828Y-43793292D01*
X59661828Y-43793292D02*
X59899923Y-43746625D01*
X59899923Y-43746625D02*
X60138019Y-43606625D01*
X60138019Y-43606625D02*
X60280876Y-43373292D01*
X60280876Y-43373292D02*
X60328495Y-43139959D01*
X60328495Y-43139959D02*
X60280876Y-42906625D01*
X60280876Y-42906625D02*
X60138019Y-42673292D01*
X60138019Y-42673292D02*
X59899923Y-42533292D01*
X59899923Y-42533292D02*
X59661828Y-42486625D01*
X59661828Y-42486625D02*
X59423733Y-42533292D01*
X59423733Y-42533292D02*
X59185638Y-42673292D01*
X59185638Y-42673292D02*
X59042780Y-42906625D01*
X59042780Y-42906625D02*
X58995161Y-43139959D01*
X59233257Y-41366625D02*
X59185638Y-41319958D01*
X59185638Y-41319958D02*
X59138019Y-41226625D01*
X59138019Y-41226625D02*
X59138019Y-40993292D01*
X59138019Y-40993292D02*
X59185638Y-40899958D01*
X59185638Y-40899958D02*
X59233257Y-40853292D01*
X59233257Y-40853292D02*
X59328495Y-40806625D01*
X59328495Y-40806625D02*
X59423733Y-40806625D01*
X59423733Y-40806625D02*
X59566590Y-40853292D01*
X59566590Y-40853292D02*
X60138019Y-41413292D01*
X60138019Y-41413292D02*
X60138019Y-40806625D01*
X59138019Y-40199959D02*
X59138019Y-40106625D01*
X59138019Y-40106625D02*
X59185638Y-40013292D01*
X59185638Y-40013292D02*
X59233257Y-39966625D01*
X59233257Y-39966625D02*
X59328495Y-39919959D01*
X59328495Y-39919959D02*
X59518971Y-39873292D01*
X59518971Y-39873292D02*
X59757066Y-39873292D01*
X59757066Y-39873292D02*
X59947542Y-39919959D01*
X59947542Y-39919959D02*
X60042780Y-39966625D01*
X60042780Y-39966625D02*
X60090400Y-40013292D01*
X60090400Y-40013292D02*
X60138019Y-40106625D01*
X60138019Y-40106625D02*
X60138019Y-40199959D01*
X60138019Y-40199959D02*
X60090400Y-40293292D01*
X60090400Y-40293292D02*
X60042780Y-40339959D01*
X60042780Y-40339959D02*
X59947542Y-40386625D01*
X59947542Y-40386625D02*
X59757066Y-40433292D01*
X59757066Y-40433292D02*
X59518971Y-40433292D01*
X59518971Y-40433292D02*
X59328495Y-40386625D01*
X59328495Y-40386625D02*
X59233257Y-40339959D01*
X59233257Y-40339959D02*
X59185638Y-40293292D01*
X59185638Y-40293292D02*
X59138019Y-40199959D01*
X60138019Y-38939959D02*
X60138019Y-39499959D01*
X60138019Y-39219959D02*
X59138019Y-39219959D01*
X59138019Y-39219959D02*
X59280876Y-39313292D01*
X59280876Y-39313292D02*
X59376114Y-39406626D01*
X59376114Y-39406626D02*
X59423733Y-39499959D01*
X59566590Y-38379959D02*
X59518971Y-38473293D01*
X59518971Y-38473293D02*
X59471352Y-38519959D01*
X59471352Y-38519959D02*
X59376114Y-38566626D01*
X59376114Y-38566626D02*
X59328495Y-38566626D01*
X59328495Y-38566626D02*
X59233257Y-38519959D01*
X59233257Y-38519959D02*
X59185638Y-38473293D01*
X59185638Y-38473293D02*
X59138019Y-38379959D01*
X59138019Y-38379959D02*
X59138019Y-38193293D01*
X59138019Y-38193293D02*
X59185638Y-38099959D01*
X59185638Y-38099959D02*
X59233257Y-38053293D01*
X59233257Y-38053293D02*
X59328495Y-38006626D01*
X59328495Y-38006626D02*
X59376114Y-38006626D01*
X59376114Y-38006626D02*
X59471352Y-38053293D01*
X59471352Y-38053293D02*
X59518971Y-38099959D01*
X59518971Y-38099959D02*
X59566590Y-38193293D01*
X59566590Y-38193293D02*
X59566590Y-38379959D01*
X59566590Y-38379959D02*
X59614209Y-38473293D01*
X59614209Y-38473293D02*
X59661828Y-38519959D01*
X59661828Y-38519959D02*
X59757066Y-38566626D01*
X59757066Y-38566626D02*
X59947542Y-38566626D01*
X59947542Y-38566626D02*
X60042780Y-38519959D01*
X60042780Y-38519959D02*
X60090400Y-38473293D01*
X60090400Y-38473293D02*
X60138019Y-38379959D01*
X60138019Y-38379959D02*
X60138019Y-38193293D01*
X60138019Y-38193293D02*
X60090400Y-38099959D01*
X60090400Y-38099959D02*
X60042780Y-38053293D01*
X60042780Y-38053293D02*
X59947542Y-38006626D01*
X59947542Y-38006626D02*
X59757066Y-38006626D01*
X59757066Y-38006626D02*
X59661828Y-38053293D01*
X59661828Y-38053293D02*
X59614209Y-38099959D01*
X59614209Y-38099959D02*
X59566590Y-38193293D01*
X59757066Y-37586626D02*
X59757066Y-36839960D01*
X59233257Y-36419960D02*
X59185638Y-36373293D01*
X59185638Y-36373293D02*
X59138019Y-36279960D01*
X59138019Y-36279960D02*
X59138019Y-36046627D01*
X59138019Y-36046627D02*
X59185638Y-35953293D01*
X59185638Y-35953293D02*
X59233257Y-35906627D01*
X59233257Y-35906627D02*
X59328495Y-35859960D01*
X59328495Y-35859960D02*
X59423733Y-35859960D01*
X59423733Y-35859960D02*
X59566590Y-35906627D01*
X59566590Y-35906627D02*
X60138019Y-36466627D01*
X60138019Y-36466627D02*
X60138019Y-35859960D01*
X59138019Y-35253294D02*
X59138019Y-35159960D01*
X59138019Y-35159960D02*
X59185638Y-35066627D01*
X59185638Y-35066627D02*
X59233257Y-35019960D01*
X59233257Y-35019960D02*
X59328495Y-34973294D01*
X59328495Y-34973294D02*
X59518971Y-34926627D01*
X59518971Y-34926627D02*
X59757066Y-34926627D01*
X59757066Y-34926627D02*
X59947542Y-34973294D01*
X59947542Y-34973294D02*
X60042780Y-35019960D01*
X60042780Y-35019960D02*
X60090400Y-35066627D01*
X60090400Y-35066627D02*
X60138019Y-35159960D01*
X60138019Y-35159960D02*
X60138019Y-35253294D01*
X60138019Y-35253294D02*
X60090400Y-35346627D01*
X60090400Y-35346627D02*
X60042780Y-35393294D01*
X60042780Y-35393294D02*
X59947542Y-35439960D01*
X59947542Y-35439960D02*
X59757066Y-35486627D01*
X59757066Y-35486627D02*
X59518971Y-35486627D01*
X59518971Y-35486627D02*
X59328495Y-35439960D01*
X59328495Y-35439960D02*
X59233257Y-35393294D01*
X59233257Y-35393294D02*
X59185638Y-35346627D01*
X59185638Y-35346627D02*
X59138019Y-35253294D01*
D11*
X19169833Y-40619893D02*
X19169833Y-40219893D01*
X19869833Y-40419893D02*
X19169833Y-40419893D01*
X19869833Y-40053227D02*
X19403166Y-39686560D01*
X19403166Y-40053227D02*
X19869833Y-39686560D01*
X19869833Y-39419893D02*
X19169833Y-39419893D01*
X19169833Y-39419893D02*
X19169833Y-39253226D01*
X19169833Y-39253226D02*
X19203166Y-39153226D01*
X19203166Y-39153226D02*
X19269833Y-39086560D01*
X19269833Y-39086560D02*
X19336500Y-39053226D01*
X19336500Y-39053226D02*
X19469833Y-39019893D01*
X19469833Y-39019893D02*
X19569833Y-39019893D01*
X19569833Y-39019893D02*
X19703166Y-39053226D01*
X19703166Y-39053226D02*
X19769833Y-39086560D01*
X19769833Y-39086560D02*
X19836500Y-39153226D01*
X19836500Y-39153226D02*
X19869833Y-39253226D01*
X19869833Y-39253226D02*
X19869833Y-39419893D01*
D10*
X56836019Y-41737893D02*
X56359828Y-42064560D01*
X56836019Y-42297893D02*
X55836019Y-42297893D01*
X55836019Y-42297893D02*
X55836019Y-41924560D01*
X55836019Y-41924560D02*
X55883638Y-41831227D01*
X55883638Y-41831227D02*
X55931257Y-41784560D01*
X55931257Y-41784560D02*
X56026495Y-41737893D01*
X56026495Y-41737893D02*
X56169352Y-41737893D01*
X56169352Y-41737893D02*
X56264590Y-41784560D01*
X56264590Y-41784560D02*
X56312209Y-41831227D01*
X56312209Y-41831227D02*
X56359828Y-41924560D01*
X56359828Y-41924560D02*
X56359828Y-42297893D01*
X55883638Y-40804560D02*
X55836019Y-40897893D01*
X55836019Y-40897893D02*
X55836019Y-41037893D01*
X55836019Y-41037893D02*
X55883638Y-41177893D01*
X55883638Y-41177893D02*
X55978876Y-41271227D01*
X55978876Y-41271227D02*
X56074114Y-41317893D01*
X56074114Y-41317893D02*
X56264590Y-41364560D01*
X56264590Y-41364560D02*
X56407447Y-41364560D01*
X56407447Y-41364560D02*
X56597923Y-41317893D01*
X56597923Y-41317893D02*
X56693161Y-41271227D01*
X56693161Y-41271227D02*
X56788400Y-41177893D01*
X56788400Y-41177893D02*
X56836019Y-41037893D01*
X56836019Y-41037893D02*
X56836019Y-40944560D01*
X56836019Y-40944560D02*
X56788400Y-40804560D01*
X56788400Y-40804560D02*
X56740780Y-40757893D01*
X56740780Y-40757893D02*
X56407447Y-40757893D01*
X56407447Y-40757893D02*
X56407447Y-40944560D01*
X56312209Y-40011227D02*
X56359828Y-39871227D01*
X56359828Y-39871227D02*
X56407447Y-39824560D01*
X56407447Y-39824560D02*
X56502685Y-39777893D01*
X56502685Y-39777893D02*
X56645542Y-39777893D01*
X56645542Y-39777893D02*
X56740780Y-39824560D01*
X56740780Y-39824560D02*
X56788400Y-39871227D01*
X56788400Y-39871227D02*
X56836019Y-39964560D01*
X56836019Y-39964560D02*
X56836019Y-40337893D01*
X56836019Y-40337893D02*
X55836019Y-40337893D01*
X55836019Y-40337893D02*
X55836019Y-40011227D01*
X55836019Y-40011227D02*
X55883638Y-39917893D01*
X55883638Y-39917893D02*
X55931257Y-39871227D01*
X55931257Y-39871227D02*
X56026495Y-39824560D01*
X56026495Y-39824560D02*
X56121733Y-39824560D01*
X56121733Y-39824560D02*
X56216971Y-39871227D01*
X56216971Y-39871227D02*
X56264590Y-39917893D01*
X56264590Y-39917893D02*
X56312209Y-40011227D01*
X56312209Y-40011227D02*
X56312209Y-40337893D01*
X56169352Y-39497893D02*
X56169352Y-39124560D01*
X55836019Y-39357893D02*
X56693161Y-39357893D01*
X56693161Y-39357893D02*
X56788400Y-39311227D01*
X56788400Y-39311227D02*
X56836019Y-39217893D01*
X56836019Y-39217893D02*
X56836019Y-39124560D01*
X56836019Y-38657893D02*
X56788400Y-38751227D01*
X56788400Y-38751227D02*
X56740780Y-38797893D01*
X56740780Y-38797893D02*
X56645542Y-38844560D01*
X56645542Y-38844560D02*
X56359828Y-38844560D01*
X56359828Y-38844560D02*
X56264590Y-38797893D01*
X56264590Y-38797893D02*
X56216971Y-38751227D01*
X56216971Y-38751227D02*
X56169352Y-38657893D01*
X56169352Y-38657893D02*
X56169352Y-38517893D01*
X56169352Y-38517893D02*
X56216971Y-38424560D01*
X56216971Y-38424560D02*
X56264590Y-38377893D01*
X56264590Y-38377893D02*
X56359828Y-38331227D01*
X56359828Y-38331227D02*
X56645542Y-38331227D01*
X56645542Y-38331227D02*
X56740780Y-38377893D01*
X56740780Y-38377893D02*
X56788400Y-38424560D01*
X56788400Y-38424560D02*
X56836019Y-38517893D01*
X56836019Y-38517893D02*
X56836019Y-38657893D01*
X56836019Y-37911226D02*
X55836019Y-37911226D01*
X56312209Y-37911226D02*
X56312209Y-37351226D01*
X56836019Y-37351226D02*
X55836019Y-37351226D01*
X56836019Y-36884559D02*
X55836019Y-36884559D01*
X55836019Y-36884559D02*
X55836019Y-36651226D01*
X55836019Y-36651226D02*
X55883638Y-36511226D01*
X55883638Y-36511226D02*
X55978876Y-36417893D01*
X55978876Y-36417893D02*
X56074114Y-36371226D01*
X56074114Y-36371226D02*
X56264590Y-36324559D01*
X56264590Y-36324559D02*
X56407447Y-36324559D01*
X56407447Y-36324559D02*
X56597923Y-36371226D01*
X56597923Y-36371226D02*
X56693161Y-36417893D01*
X56693161Y-36417893D02*
X56788400Y-36511226D01*
X56788400Y-36511226D02*
X56836019Y-36651226D01*
X56836019Y-36651226D02*
X56836019Y-36884559D01*
X58509879Y-43872538D02*
X58509879Y-44386824D01*
X58509879Y-44129681D02*
X57509879Y-44129681D01*
X57509879Y-44129681D02*
X57652736Y-44215395D01*
X57652736Y-44215395D02*
X57747974Y-44301110D01*
X57747974Y-44301110D02*
X57795593Y-44386824D01*
X57605117Y-43529681D02*
X57557498Y-43486824D01*
X57557498Y-43486824D02*
X57509879Y-43401110D01*
X57509879Y-43401110D02*
X57509879Y-43186824D01*
X57509879Y-43186824D02*
X57557498Y-43101110D01*
X57557498Y-43101110D02*
X57605117Y-43058252D01*
X57605117Y-43058252D02*
X57700355Y-43015395D01*
X57700355Y-43015395D02*
X57795593Y-43015395D01*
X57795593Y-43015395D02*
X57938450Y-43058252D01*
X57938450Y-43058252D02*
X58509879Y-43572538D01*
X58509879Y-43572538D02*
X58509879Y-43015395D01*
X57986069Y-41643967D02*
X58033688Y-41515395D01*
X58033688Y-41515395D02*
X58081307Y-41472538D01*
X58081307Y-41472538D02*
X58176545Y-41429681D01*
X58176545Y-41429681D02*
X58319402Y-41429681D01*
X58319402Y-41429681D02*
X58414640Y-41472538D01*
X58414640Y-41472538D02*
X58462260Y-41515395D01*
X58462260Y-41515395D02*
X58509879Y-41601110D01*
X58509879Y-41601110D02*
X58509879Y-41943967D01*
X58509879Y-41943967D02*
X57509879Y-41943967D01*
X57509879Y-41943967D02*
X57509879Y-41643967D01*
X57509879Y-41643967D02*
X57557498Y-41558253D01*
X57557498Y-41558253D02*
X57605117Y-41515395D01*
X57605117Y-41515395D02*
X57700355Y-41472538D01*
X57700355Y-41472538D02*
X57795593Y-41472538D01*
X57795593Y-41472538D02*
X57890831Y-41515395D01*
X57890831Y-41515395D02*
X57938450Y-41558253D01*
X57938450Y-41558253D02*
X57986069Y-41643967D01*
X57986069Y-41643967D02*
X57986069Y-41943967D01*
X58509879Y-41043967D02*
X57843212Y-41043967D01*
X57509879Y-41043967D02*
X57557498Y-41086824D01*
X57557498Y-41086824D02*
X57605117Y-41043967D01*
X57605117Y-41043967D02*
X57557498Y-41001110D01*
X57557498Y-41001110D02*
X57509879Y-41043967D01*
X57509879Y-41043967D02*
X57605117Y-41043967D01*
X57843212Y-40743967D02*
X57843212Y-40401110D01*
X57509879Y-40615396D02*
X58367021Y-40615396D01*
X58367021Y-40615396D02*
X58462260Y-40572539D01*
X58462260Y-40572539D02*
X58509879Y-40486824D01*
X58509879Y-40486824D02*
X58509879Y-40401110D01*
X58509879Y-39415396D02*
X57509879Y-39415396D01*
X58462260Y-39029682D02*
X58509879Y-38943968D01*
X58509879Y-38943968D02*
X58509879Y-38772539D01*
X58509879Y-38772539D02*
X58462260Y-38686825D01*
X58462260Y-38686825D02*
X58367021Y-38643968D01*
X58367021Y-38643968D02*
X58319402Y-38643968D01*
X58319402Y-38643968D02*
X58224164Y-38686825D01*
X58224164Y-38686825D02*
X58176545Y-38772539D01*
X58176545Y-38772539D02*
X58176545Y-38901111D01*
X58176545Y-38901111D02*
X58128926Y-38986825D01*
X58128926Y-38986825D02*
X58033688Y-39029682D01*
X58033688Y-39029682D02*
X57986069Y-39029682D01*
X57986069Y-39029682D02*
X57890831Y-38986825D01*
X57890831Y-38986825D02*
X57843212Y-38901111D01*
X57843212Y-38901111D02*
X57843212Y-38772539D01*
X57843212Y-38772539D02*
X57890831Y-38686825D01*
X58462260Y-38301111D02*
X58509879Y-38215397D01*
X58509879Y-38215397D02*
X58509879Y-38043968D01*
X58509879Y-38043968D02*
X58462260Y-37958254D01*
X58462260Y-37958254D02*
X58367021Y-37915397D01*
X58367021Y-37915397D02*
X58319402Y-37915397D01*
X58319402Y-37915397D02*
X58224164Y-37958254D01*
X58224164Y-37958254D02*
X58176545Y-38043968D01*
X58176545Y-38043968D02*
X58176545Y-38172540D01*
X58176545Y-38172540D02*
X58128926Y-38258254D01*
X58128926Y-38258254D02*
X58033688Y-38301111D01*
X58033688Y-38301111D02*
X57986069Y-38301111D01*
X57986069Y-38301111D02*
X57890831Y-38258254D01*
X57890831Y-38258254D02*
X57843212Y-38172540D01*
X57843212Y-38172540D02*
X57843212Y-38043968D01*
X57843212Y-38043968D02*
X57890831Y-37958254D01*
X57843212Y-37143969D02*
X58509879Y-37143969D01*
X57843212Y-37529683D02*
X58367021Y-37529683D01*
X58367021Y-37529683D02*
X58462260Y-37486826D01*
X58462260Y-37486826D02*
X58509879Y-37401111D01*
X58509879Y-37401111D02*
X58509879Y-37272540D01*
X58509879Y-37272540D02*
X58462260Y-37186826D01*
X58462260Y-37186826D02*
X58414640Y-37143969D01*
X58462260Y-36372540D02*
X58509879Y-36458254D01*
X58509879Y-36458254D02*
X58509879Y-36629683D01*
X58509879Y-36629683D02*
X58462260Y-36715397D01*
X58462260Y-36715397D02*
X58367021Y-36758254D01*
X58367021Y-36758254D02*
X57986069Y-36758254D01*
X57986069Y-36758254D02*
X57890831Y-36715397D01*
X57890831Y-36715397D02*
X57843212Y-36629683D01*
X57843212Y-36629683D02*
X57843212Y-36458254D01*
X57843212Y-36458254D02*
X57890831Y-36372540D01*
X57890831Y-36372540D02*
X57986069Y-36329683D01*
X57986069Y-36329683D02*
X58081307Y-36329683D01*
X58081307Y-36329683D02*
X58176545Y-36758254D01*
X57843212Y-34872540D02*
X58509879Y-34872540D01*
X57462260Y-35086825D02*
X58176545Y-35301111D01*
X58176545Y-35301111D02*
X58176545Y-34743968D01*
X58414640Y-34401111D02*
X58462260Y-34358254D01*
X58462260Y-34358254D02*
X58509879Y-34401111D01*
X58509879Y-34401111D02*
X58462260Y-34443968D01*
X58462260Y-34443968D02*
X58414640Y-34401111D01*
X58414640Y-34401111D02*
X58509879Y-34401111D01*
D11*
X66407171Y-43691702D02*
X66007171Y-43691702D01*
X66121457Y-43691702D02*
X66064314Y-43663131D01*
X66064314Y-43663131D02*
X66035742Y-43634560D01*
X66035742Y-43634560D02*
X66007171Y-43577417D01*
X66007171Y-43577417D02*
X66007171Y-43520274D01*
X66378600Y-43091702D02*
X66407171Y-43148845D01*
X66407171Y-43148845D02*
X66407171Y-43263131D01*
X66407171Y-43263131D02*
X66378600Y-43320273D01*
X66378600Y-43320273D02*
X66321457Y-43348845D01*
X66321457Y-43348845D02*
X66092885Y-43348845D01*
X66092885Y-43348845D02*
X66035742Y-43320273D01*
X66035742Y-43320273D02*
X66007171Y-43263131D01*
X66007171Y-43263131D02*
X66007171Y-43148845D01*
X66007171Y-43148845D02*
X66035742Y-43091702D01*
X66035742Y-43091702D02*
X66092885Y-43063131D01*
X66092885Y-43063131D02*
X66150028Y-43063131D01*
X66150028Y-43063131D02*
X66207171Y-43348845D01*
X66407171Y-42548845D02*
X65807171Y-42548845D01*
X66378600Y-42548845D02*
X66407171Y-42605987D01*
X66407171Y-42605987D02*
X66407171Y-42720273D01*
X66407171Y-42720273D02*
X66378600Y-42777416D01*
X66378600Y-42777416D02*
X66350028Y-42805987D01*
X66350028Y-42805987D02*
X66292885Y-42834559D01*
X66292885Y-42834559D02*
X66121457Y-42834559D01*
X66121457Y-42834559D02*
X66064314Y-42805987D01*
X66064314Y-42805987D02*
X66035742Y-42777416D01*
X66035742Y-42777416D02*
X66007171Y-42720273D01*
X66007171Y-42720273D02*
X66007171Y-42605987D01*
X66007171Y-42605987D02*
X66035742Y-42548845D01*
X65807171Y-42148845D02*
X65807171Y-42091702D01*
X65807171Y-42091702D02*
X65835742Y-42034559D01*
X65835742Y-42034559D02*
X65864314Y-42005988D01*
X65864314Y-42005988D02*
X65921457Y-41977416D01*
X65921457Y-41977416D02*
X66035742Y-41948845D01*
X66035742Y-41948845D02*
X66178600Y-41948845D01*
X66178600Y-41948845D02*
X66292885Y-41977416D01*
X66292885Y-41977416D02*
X66350028Y-42005988D01*
X66350028Y-42005988D02*
X66378600Y-42034559D01*
X66378600Y-42034559D02*
X66407171Y-42091702D01*
X66407171Y-42091702D02*
X66407171Y-42148845D01*
X66407171Y-42148845D02*
X66378600Y-42205988D01*
X66378600Y-42205988D02*
X66350028Y-42234559D01*
X66350028Y-42234559D02*
X66292885Y-42263130D01*
X66292885Y-42263130D02*
X66178600Y-42291702D01*
X66178600Y-42291702D02*
X66035742Y-42291702D01*
X66035742Y-42291702D02*
X65921457Y-42263130D01*
X65921457Y-42263130D02*
X65864314Y-42234559D01*
X65864314Y-42234559D02*
X65835742Y-42205988D01*
X65835742Y-42205988D02*
X65807171Y-42148845D01*
D13*
X71312697Y-38588315D02*
X71312697Y-37788315D01*
X71312697Y-37788315D02*
X71503173Y-37788315D01*
X71503173Y-37788315D02*
X71617459Y-37826410D01*
X71617459Y-37826410D02*
X71693649Y-37902600D01*
X71693649Y-37902600D02*
X71731744Y-37978791D01*
X71731744Y-37978791D02*
X71769840Y-38131172D01*
X71769840Y-38131172D02*
X71769840Y-38245458D01*
X71769840Y-38245458D02*
X71731744Y-38397839D01*
X71731744Y-38397839D02*
X71693649Y-38474029D01*
X71693649Y-38474029D02*
X71617459Y-38550220D01*
X71617459Y-38550220D02*
X71503173Y-38588315D01*
X71503173Y-38588315D02*
X71312697Y-38588315D01*
X72074601Y-38359743D02*
X72455554Y-38359743D01*
X71998411Y-38588315D02*
X72265078Y-37788315D01*
X72265078Y-37788315D02*
X72531744Y-38588315D01*
X72684125Y-37788315D02*
X73141268Y-37788315D01*
X72912696Y-38588315D02*
X72912696Y-37788315D01*
D12*
X28524666Y-41933473D02*
X28524666Y-41233473D01*
X28524666Y-41500140D02*
X28591333Y-41466806D01*
X28591333Y-41466806D02*
X28724666Y-41466806D01*
X28724666Y-41466806D02*
X28791333Y-41500140D01*
X28791333Y-41500140D02*
X28824666Y-41533473D01*
X28824666Y-41533473D02*
X28858000Y-41600140D01*
X28858000Y-41600140D02*
X28858000Y-41800140D01*
X28858000Y-41800140D02*
X28824666Y-41866806D01*
X28824666Y-41866806D02*
X28791333Y-41900140D01*
X28791333Y-41900140D02*
X28724666Y-41933473D01*
X28724666Y-41933473D02*
X28591333Y-41933473D01*
X28591333Y-41933473D02*
X28524666Y-41900140D01*
X29257999Y-41933473D02*
X29191333Y-41900140D01*
X29191333Y-41900140D02*
X29157999Y-41833473D01*
X29157999Y-41833473D02*
X29157999Y-41233473D01*
X29824666Y-41466806D02*
X29824666Y-41933473D01*
X29524666Y-41466806D02*
X29524666Y-41833473D01*
X29524666Y-41833473D02*
X29558000Y-41900140D01*
X29558000Y-41900140D02*
X29624666Y-41933473D01*
X29624666Y-41933473D02*
X29724666Y-41933473D01*
X29724666Y-41933473D02*
X29791333Y-41900140D01*
X29791333Y-41900140D02*
X29824666Y-41866806D01*
X30124666Y-41300140D02*
X30157999Y-41266806D01*
X30157999Y-41266806D02*
X30224666Y-41233473D01*
X30224666Y-41233473D02*
X30391333Y-41233473D01*
X30391333Y-41233473D02*
X30457999Y-41266806D01*
X30457999Y-41266806D02*
X30491333Y-41300140D01*
X30491333Y-41300140D02*
X30524666Y-41366806D01*
X30524666Y-41366806D02*
X30524666Y-41433473D01*
X30524666Y-41433473D02*
X30491333Y-41533473D01*
X30491333Y-41533473D02*
X30091333Y-41933473D01*
X30091333Y-41933473D02*
X30524666Y-41933473D01*
D11*
X66407171Y-38597416D02*
X65807171Y-38597416D01*
X66035742Y-38597416D02*
X66007171Y-38540274D01*
X66007171Y-38540274D02*
X66007171Y-38425988D01*
X66007171Y-38425988D02*
X66035742Y-38368845D01*
X66035742Y-38368845D02*
X66064314Y-38340274D01*
X66064314Y-38340274D02*
X66121457Y-38311702D01*
X66121457Y-38311702D02*
X66292885Y-38311702D01*
X66292885Y-38311702D02*
X66350028Y-38340274D01*
X66350028Y-38340274D02*
X66378600Y-38368845D01*
X66378600Y-38368845D02*
X66407171Y-38425988D01*
X66407171Y-38425988D02*
X66407171Y-38540274D01*
X66407171Y-38540274D02*
X66378600Y-38597416D01*
X66407171Y-37968845D02*
X66378600Y-38025988D01*
X66378600Y-38025988D02*
X66321457Y-38054559D01*
X66321457Y-38054559D02*
X65807171Y-38054559D01*
X66007171Y-37483131D02*
X66407171Y-37483131D01*
X66007171Y-37740273D02*
X66321457Y-37740273D01*
X66321457Y-37740273D02*
X66378600Y-37711702D01*
X66378600Y-37711702D02*
X66407171Y-37654559D01*
X66407171Y-37654559D02*
X66407171Y-37568845D01*
X66407171Y-37568845D02*
X66378600Y-37511702D01*
X66378600Y-37511702D02*
X66350028Y-37483131D01*
X65807171Y-37083131D02*
X65807171Y-37025988D01*
X65807171Y-37025988D02*
X65835742Y-36968845D01*
X65835742Y-36968845D02*
X65864314Y-36940274D01*
X65864314Y-36940274D02*
X65921457Y-36911702D01*
X65921457Y-36911702D02*
X66035742Y-36883131D01*
X66035742Y-36883131D02*
X66178600Y-36883131D01*
X66178600Y-36883131D02*
X66292885Y-36911702D01*
X66292885Y-36911702D02*
X66350028Y-36940274D01*
X66350028Y-36940274D02*
X66378600Y-36968845D01*
X66378600Y-36968845D02*
X66407171Y-37025988D01*
X66407171Y-37025988D02*
X66407171Y-37083131D01*
X66407171Y-37083131D02*
X66378600Y-37140274D01*
X66378600Y-37140274D02*
X66350028Y-37168845D01*
X66350028Y-37168845D02*
X66292885Y-37197416D01*
X66292885Y-37197416D02*
X66178600Y-37225988D01*
X66178600Y-37225988D02*
X66035742Y-37225988D01*
X66035742Y-37225988D02*
X65921457Y-37197416D01*
X65921457Y-37197416D02*
X65864314Y-37168845D01*
X65864314Y-37168845D02*
X65835742Y-37140274D01*
X65835742Y-37140274D02*
X65807171Y-37083131D01*
D12*
X30924933Y-37656806D02*
X30924933Y-38223473D01*
X30924933Y-38223473D02*
X30891600Y-38290140D01*
X30891600Y-38290140D02*
X30858267Y-38323473D01*
X30858267Y-38323473D02*
X30791600Y-38356806D01*
X30791600Y-38356806D02*
X30691600Y-38356806D01*
X30691600Y-38356806D02*
X30624933Y-38323473D01*
X30924933Y-38090140D02*
X30858267Y-38123473D01*
X30858267Y-38123473D02*
X30724933Y-38123473D01*
X30724933Y-38123473D02*
X30658267Y-38090140D01*
X30658267Y-38090140D02*
X30624933Y-38056806D01*
X30624933Y-38056806D02*
X30591600Y-37990140D01*
X30591600Y-37990140D02*
X30591600Y-37790140D01*
X30591600Y-37790140D02*
X30624933Y-37723473D01*
X30624933Y-37723473D02*
X30658267Y-37690140D01*
X30658267Y-37690140D02*
X30724933Y-37656806D01*
X30724933Y-37656806D02*
X30858267Y-37656806D01*
X30858267Y-37656806D02*
X30924933Y-37690140D01*
X31258266Y-38123473D02*
X31258266Y-37656806D01*
X31258266Y-37790140D02*
X31291600Y-37723473D01*
X31291600Y-37723473D02*
X31324933Y-37690140D01*
X31324933Y-37690140D02*
X31391600Y-37656806D01*
X31391600Y-37656806D02*
X31458266Y-37656806D01*
X31691599Y-37656806D02*
X31691599Y-38123473D01*
X31691599Y-37723473D02*
X31724933Y-37690140D01*
X31724933Y-37690140D02*
X31791599Y-37656806D01*
X31791599Y-37656806D02*
X31891599Y-37656806D01*
X31891599Y-37656806D02*
X31958266Y-37690140D01*
X31958266Y-37690140D02*
X31991599Y-37756806D01*
X31991599Y-37756806D02*
X31991599Y-38123473D01*
X32258266Y-37423473D02*
X32691599Y-37423473D01*
X32691599Y-37423473D02*
X32458266Y-37690140D01*
X32458266Y-37690140D02*
X32558266Y-37690140D01*
X32558266Y-37690140D02*
X32624932Y-37723473D01*
X32624932Y-37723473D02*
X32658266Y-37756806D01*
X32658266Y-37756806D02*
X32691599Y-37823473D01*
X32691599Y-37823473D02*
X32691599Y-37990140D01*
X32691599Y-37990140D02*
X32658266Y-38056806D01*
X32658266Y-38056806D02*
X32624932Y-38090140D01*
X32624932Y-38090140D02*
X32558266Y-38123473D01*
X32558266Y-38123473D02*
X32358266Y-38123473D01*
X32358266Y-38123473D02*
X32291599Y-38090140D01*
X32291599Y-38090140D02*
X32258266Y-38056806D01*
X30851067Y-45068873D02*
X30917733Y-45068873D01*
X30917733Y-45068873D02*
X30984400Y-45102206D01*
X30984400Y-45102206D02*
X31017733Y-45135540D01*
X31017733Y-45135540D02*
X31051067Y-45202206D01*
X31051067Y-45202206D02*
X31084400Y-45335540D01*
X31084400Y-45335540D02*
X31084400Y-45502206D01*
X31084400Y-45502206D02*
X31051067Y-45635540D01*
X31051067Y-45635540D02*
X31017733Y-45702206D01*
X31017733Y-45702206D02*
X30984400Y-45735540D01*
X30984400Y-45735540D02*
X30917733Y-45768873D01*
X30917733Y-45768873D02*
X30851067Y-45768873D01*
X30851067Y-45768873D02*
X30784400Y-45735540D01*
X30784400Y-45735540D02*
X30751067Y-45702206D01*
X30751067Y-45702206D02*
X30717733Y-45635540D01*
X30717733Y-45635540D02*
X30684400Y-45502206D01*
X30684400Y-45502206D02*
X30684400Y-45335540D01*
X30684400Y-45335540D02*
X30717733Y-45202206D01*
X30717733Y-45202206D02*
X30751067Y-45135540D01*
X30751067Y-45135540D02*
X30784400Y-45102206D01*
X30784400Y-45102206D02*
X30851067Y-45068873D01*
X31284400Y-45068873D02*
X31517734Y-45768873D01*
X31517734Y-45768873D02*
X31751067Y-45068873D01*
D11*
X52940667Y-44291664D02*
X52902571Y-44329760D01*
X52902571Y-44329760D02*
X52788286Y-44367855D01*
X52788286Y-44367855D02*
X52712095Y-44367855D01*
X52712095Y-44367855D02*
X52597809Y-44329760D01*
X52597809Y-44329760D02*
X52521619Y-44253569D01*
X52521619Y-44253569D02*
X52483524Y-44177379D01*
X52483524Y-44177379D02*
X52445428Y-44024998D01*
X52445428Y-44024998D02*
X52445428Y-43910712D01*
X52445428Y-43910712D02*
X52483524Y-43758331D01*
X52483524Y-43758331D02*
X52521619Y-43682140D01*
X52521619Y-43682140D02*
X52597809Y-43605950D01*
X52597809Y-43605950D02*
X52712095Y-43567855D01*
X52712095Y-43567855D02*
X52788286Y-43567855D01*
X52788286Y-43567855D02*
X52902571Y-43605950D01*
X52902571Y-43605950D02*
X52940667Y-43644045D01*
X53702571Y-44367855D02*
X53245428Y-44367855D01*
X53474000Y-44367855D02*
X53474000Y-43567855D01*
X53474000Y-43567855D02*
X53397809Y-43682140D01*
X53397809Y-43682140D02*
X53321619Y-43758331D01*
X53321619Y-43758331D02*
X53245428Y-43796426D01*
X37700667Y-34766664D02*
X37662571Y-34804760D01*
X37662571Y-34804760D02*
X37548286Y-34842855D01*
X37548286Y-34842855D02*
X37472095Y-34842855D01*
X37472095Y-34842855D02*
X37357809Y-34804760D01*
X37357809Y-34804760D02*
X37281619Y-34728569D01*
X37281619Y-34728569D02*
X37243524Y-34652379D01*
X37243524Y-34652379D02*
X37205428Y-34499998D01*
X37205428Y-34499998D02*
X37205428Y-34385712D01*
X37205428Y-34385712D02*
X37243524Y-34233331D01*
X37243524Y-34233331D02*
X37281619Y-34157140D01*
X37281619Y-34157140D02*
X37357809Y-34080950D01*
X37357809Y-34080950D02*
X37472095Y-34042855D01*
X37472095Y-34042855D02*
X37548286Y-34042855D01*
X37548286Y-34042855D02*
X37662571Y-34080950D01*
X37662571Y-34080950D02*
X37700667Y-34119045D01*
X38005428Y-34119045D02*
X38043524Y-34080950D01*
X38043524Y-34080950D02*
X38119714Y-34042855D01*
X38119714Y-34042855D02*
X38310190Y-34042855D01*
X38310190Y-34042855D02*
X38386381Y-34080950D01*
X38386381Y-34080950D02*
X38424476Y-34119045D01*
X38424476Y-34119045D02*
X38462571Y-34195236D01*
X38462571Y-34195236D02*
X38462571Y-34271426D01*
X38462571Y-34271426D02*
X38424476Y-34385712D01*
X38424476Y-34385712D02*
X37967333Y-34842855D01*
X37967333Y-34842855D02*
X38462571Y-34842855D01*
X52940667Y-31943664D02*
X52902571Y-31981760D01*
X52902571Y-31981760D02*
X52788286Y-32019855D01*
X52788286Y-32019855D02*
X52712095Y-32019855D01*
X52712095Y-32019855D02*
X52597809Y-31981760D01*
X52597809Y-31981760D02*
X52521619Y-31905569D01*
X52521619Y-31905569D02*
X52483524Y-31829379D01*
X52483524Y-31829379D02*
X52445428Y-31676998D01*
X52445428Y-31676998D02*
X52445428Y-31562712D01*
X52445428Y-31562712D02*
X52483524Y-31410331D01*
X52483524Y-31410331D02*
X52521619Y-31334140D01*
X52521619Y-31334140D02*
X52597809Y-31257950D01*
X52597809Y-31257950D02*
X52712095Y-31219855D01*
X52712095Y-31219855D02*
X52788286Y-31219855D01*
X52788286Y-31219855D02*
X52902571Y-31257950D01*
X52902571Y-31257950D02*
X52940667Y-31296045D01*
X53207333Y-31219855D02*
X53702571Y-31219855D01*
X53702571Y-31219855D02*
X53435905Y-31524617D01*
X53435905Y-31524617D02*
X53550190Y-31524617D01*
X53550190Y-31524617D02*
X53626381Y-31562712D01*
X53626381Y-31562712D02*
X53664476Y-31600807D01*
X53664476Y-31600807D02*
X53702571Y-31676998D01*
X53702571Y-31676998D02*
X53702571Y-31867474D01*
X53702571Y-31867474D02*
X53664476Y-31943664D01*
X53664476Y-31943664D02*
X53626381Y-31981760D01*
X53626381Y-31981760D02*
X53550190Y-32019855D01*
X53550190Y-32019855D02*
X53321619Y-32019855D01*
X53321619Y-32019855D02*
X53245428Y-31981760D01*
X53245428Y-31981760D02*
X53207333Y-31943664D01*
X38686267Y-44418664D02*
X38648171Y-44456760D01*
X38648171Y-44456760D02*
X38533886Y-44494855D01*
X38533886Y-44494855D02*
X38457695Y-44494855D01*
X38457695Y-44494855D02*
X38343409Y-44456760D01*
X38343409Y-44456760D02*
X38267219Y-44380569D01*
X38267219Y-44380569D02*
X38229124Y-44304379D01*
X38229124Y-44304379D02*
X38191028Y-44151998D01*
X38191028Y-44151998D02*
X38191028Y-44037712D01*
X38191028Y-44037712D02*
X38229124Y-43885331D01*
X38229124Y-43885331D02*
X38267219Y-43809140D01*
X38267219Y-43809140D02*
X38343409Y-43732950D01*
X38343409Y-43732950D02*
X38457695Y-43694855D01*
X38457695Y-43694855D02*
X38533886Y-43694855D01*
X38533886Y-43694855D02*
X38648171Y-43732950D01*
X38648171Y-43732950D02*
X38686267Y-43771045D01*
X39371981Y-43961521D02*
X39371981Y-44494855D01*
X39181505Y-43656760D02*
X38991028Y-44228188D01*
X38991028Y-44228188D02*
X39486267Y-44228188D01*
X39636267Y-53424855D02*
X39369600Y-53043902D01*
X39179124Y-53424855D02*
X39179124Y-52624855D01*
X39179124Y-52624855D02*
X39483886Y-52624855D01*
X39483886Y-52624855D02*
X39560076Y-52662950D01*
X39560076Y-52662950D02*
X39598171Y-52701045D01*
X39598171Y-52701045D02*
X39636267Y-52777236D01*
X39636267Y-52777236D02*
X39636267Y-52891521D01*
X39636267Y-52891521D02*
X39598171Y-52967712D01*
X39598171Y-52967712D02*
X39560076Y-53005807D01*
X39560076Y-53005807D02*
X39483886Y-53043902D01*
X39483886Y-53043902D02*
X39179124Y-53043902D01*
X40398171Y-53424855D02*
X39941028Y-53424855D01*
X40169600Y-53424855D02*
X40169600Y-52624855D01*
X40169600Y-52624855D02*
X40093409Y-52739140D01*
X40093409Y-52739140D02*
X40017219Y-52815331D01*
X40017219Y-52815331D02*
X39941028Y-52853426D01*
X54770667Y-53424855D02*
X54504000Y-53043902D01*
X54313524Y-53424855D02*
X54313524Y-52624855D01*
X54313524Y-52624855D02*
X54618286Y-52624855D01*
X54618286Y-52624855D02*
X54694476Y-52662950D01*
X54694476Y-52662950D02*
X54732571Y-52701045D01*
X54732571Y-52701045D02*
X54770667Y-52777236D01*
X54770667Y-52777236D02*
X54770667Y-52891521D01*
X54770667Y-52891521D02*
X54732571Y-52967712D01*
X54732571Y-52967712D02*
X54694476Y-53005807D01*
X54694476Y-53005807D02*
X54618286Y-53043902D01*
X54618286Y-53043902D02*
X54313524Y-53043902D01*
X55075428Y-52701045D02*
X55113524Y-52662950D01*
X55113524Y-52662950D02*
X55189714Y-52624855D01*
X55189714Y-52624855D02*
X55380190Y-52624855D01*
X55380190Y-52624855D02*
X55456381Y-52662950D01*
X55456381Y-52662950D02*
X55494476Y-52701045D01*
X55494476Y-52701045D02*
X55532571Y-52777236D01*
X55532571Y-52777236D02*
X55532571Y-52853426D01*
X55532571Y-52853426D02*
X55494476Y-52967712D01*
X55494476Y-52967712D02*
X55037333Y-53424855D01*
X55037333Y-53424855D02*
X55532571Y-53424855D01*
X57818667Y-53424855D02*
X57552000Y-53043902D01*
X57361524Y-53424855D02*
X57361524Y-52624855D01*
X57361524Y-52624855D02*
X57666286Y-52624855D01*
X57666286Y-52624855D02*
X57742476Y-52662950D01*
X57742476Y-52662950D02*
X57780571Y-52701045D01*
X57780571Y-52701045D02*
X57818667Y-52777236D01*
X57818667Y-52777236D02*
X57818667Y-52891521D01*
X57818667Y-52891521D02*
X57780571Y-52967712D01*
X57780571Y-52967712D02*
X57742476Y-53005807D01*
X57742476Y-53005807D02*
X57666286Y-53043902D01*
X57666286Y-53043902D02*
X57361524Y-53043902D01*
X58085333Y-52624855D02*
X58580571Y-52624855D01*
X58580571Y-52624855D02*
X58313905Y-52929617D01*
X58313905Y-52929617D02*
X58428190Y-52929617D01*
X58428190Y-52929617D02*
X58504381Y-52967712D01*
X58504381Y-52967712D02*
X58542476Y-53005807D01*
X58542476Y-53005807D02*
X58580571Y-53081998D01*
X58580571Y-53081998D02*
X58580571Y-53272474D01*
X58580571Y-53272474D02*
X58542476Y-53348664D01*
X58542476Y-53348664D02*
X58504381Y-53386760D01*
X58504381Y-53386760D02*
X58428190Y-53424855D01*
X58428190Y-53424855D02*
X58199619Y-53424855D01*
X58199619Y-53424855D02*
X58123428Y-53386760D01*
X58123428Y-53386760D02*
X58085333Y-53348664D01*
X26501667Y-53424855D02*
X26235000Y-53043902D01*
X26044524Y-53424855D02*
X26044524Y-52624855D01*
X26044524Y-52624855D02*
X26349286Y-52624855D01*
X26349286Y-52624855D02*
X26425476Y-52662950D01*
X26425476Y-52662950D02*
X26463571Y-52701045D01*
X26463571Y-52701045D02*
X26501667Y-52777236D01*
X26501667Y-52777236D02*
X26501667Y-52891521D01*
X26501667Y-52891521D02*
X26463571Y-52967712D01*
X26463571Y-52967712D02*
X26425476Y-53005807D01*
X26425476Y-53005807D02*
X26349286Y-53043902D01*
X26349286Y-53043902D02*
X26044524Y-53043902D01*
X27187381Y-52891521D02*
X27187381Y-53424855D01*
X26996905Y-52586760D02*
X26806428Y-53158188D01*
X26806428Y-53158188D02*
X27301667Y-53158188D01*
X70339667Y-53424855D02*
X70073000Y-53043902D01*
X69882524Y-53424855D02*
X69882524Y-52624855D01*
X69882524Y-52624855D02*
X70187286Y-52624855D01*
X70187286Y-52624855D02*
X70263476Y-52662950D01*
X70263476Y-52662950D02*
X70301571Y-52701045D01*
X70301571Y-52701045D02*
X70339667Y-52777236D01*
X70339667Y-52777236D02*
X70339667Y-52891521D01*
X70339667Y-52891521D02*
X70301571Y-52967712D01*
X70301571Y-52967712D02*
X70263476Y-53005807D01*
X70263476Y-53005807D02*
X70187286Y-53043902D01*
X70187286Y-53043902D02*
X69882524Y-53043902D01*
X71063476Y-52624855D02*
X70682524Y-52624855D01*
X70682524Y-52624855D02*
X70644428Y-53005807D01*
X70644428Y-53005807D02*
X70682524Y-52967712D01*
X70682524Y-52967712D02*
X70758714Y-52929617D01*
X70758714Y-52929617D02*
X70949190Y-52929617D01*
X70949190Y-52929617D02*
X71025381Y-52967712D01*
X71025381Y-52967712D02*
X71063476Y-53005807D01*
X71063476Y-53005807D02*
X71101571Y-53081998D01*
X71101571Y-53081998D02*
X71101571Y-53272474D01*
X71101571Y-53272474D02*
X71063476Y-53348664D01*
X71063476Y-53348664D02*
X71025381Y-53386760D01*
X71025381Y-53386760D02*
X70949190Y-53424855D01*
X70949190Y-53424855D02*
X70758714Y-53424855D01*
X70758714Y-53424855D02*
X70682524Y-53386760D01*
X70682524Y-53386760D02*
X70644428Y-53348664D01*
X31735332Y-47423760D02*
X31849618Y-47461855D01*
X31849618Y-47461855D02*
X32040094Y-47461855D01*
X32040094Y-47461855D02*
X32116285Y-47423760D01*
X32116285Y-47423760D02*
X32154380Y-47385664D01*
X32154380Y-47385664D02*
X32192475Y-47309474D01*
X32192475Y-47309474D02*
X32192475Y-47233283D01*
X32192475Y-47233283D02*
X32154380Y-47157093D01*
X32154380Y-47157093D02*
X32116285Y-47118998D01*
X32116285Y-47118998D02*
X32040094Y-47080902D01*
X32040094Y-47080902D02*
X31887713Y-47042807D01*
X31887713Y-47042807D02*
X31811523Y-47004712D01*
X31811523Y-47004712D02*
X31773428Y-46966617D01*
X31773428Y-46966617D02*
X31735332Y-46890426D01*
X31735332Y-46890426D02*
X31735332Y-46814236D01*
X31735332Y-46814236D02*
X31773428Y-46738045D01*
X31773428Y-46738045D02*
X31811523Y-46699950D01*
X31811523Y-46699950D02*
X31887713Y-46661855D01*
X31887713Y-46661855D02*
X32078190Y-46661855D01*
X32078190Y-46661855D02*
X32192475Y-46699950D01*
X32459142Y-46661855D02*
X32649618Y-47461855D01*
X32649618Y-47461855D02*
X32801999Y-46890426D01*
X32801999Y-46890426D02*
X32954380Y-47461855D01*
X32954380Y-47461855D02*
X33144857Y-46661855D01*
X33868666Y-47461855D02*
X33411523Y-47461855D01*
X33640095Y-47461855D02*
X33640095Y-46661855D01*
X33640095Y-46661855D02*
X33563904Y-46776140D01*
X33563904Y-46776140D02*
X33487714Y-46852331D01*
X33487714Y-46852331D02*
X33411523Y-46890426D01*
X47487332Y-47423760D02*
X47601618Y-47461855D01*
X47601618Y-47461855D02*
X47792094Y-47461855D01*
X47792094Y-47461855D02*
X47868285Y-47423760D01*
X47868285Y-47423760D02*
X47906380Y-47385664D01*
X47906380Y-47385664D02*
X47944475Y-47309474D01*
X47944475Y-47309474D02*
X47944475Y-47233283D01*
X47944475Y-47233283D02*
X47906380Y-47157093D01*
X47906380Y-47157093D02*
X47868285Y-47118998D01*
X47868285Y-47118998D02*
X47792094Y-47080902D01*
X47792094Y-47080902D02*
X47639713Y-47042807D01*
X47639713Y-47042807D02*
X47563523Y-47004712D01*
X47563523Y-47004712D02*
X47525428Y-46966617D01*
X47525428Y-46966617D02*
X47487332Y-46890426D01*
X47487332Y-46890426D02*
X47487332Y-46814236D01*
X47487332Y-46814236D02*
X47525428Y-46738045D01*
X47525428Y-46738045D02*
X47563523Y-46699950D01*
X47563523Y-46699950D02*
X47639713Y-46661855D01*
X47639713Y-46661855D02*
X47830190Y-46661855D01*
X47830190Y-46661855D02*
X47944475Y-46699950D01*
X48211142Y-46661855D02*
X48401618Y-47461855D01*
X48401618Y-47461855D02*
X48553999Y-46890426D01*
X48553999Y-46890426D02*
X48706380Y-47461855D01*
X48706380Y-47461855D02*
X48896857Y-46661855D01*
X49163523Y-46738045D02*
X49201619Y-46699950D01*
X49201619Y-46699950D02*
X49277809Y-46661855D01*
X49277809Y-46661855D02*
X49468285Y-46661855D01*
X49468285Y-46661855D02*
X49544476Y-46699950D01*
X49544476Y-46699950D02*
X49582571Y-46738045D01*
X49582571Y-46738045D02*
X49620666Y-46814236D01*
X49620666Y-46814236D02*
X49620666Y-46890426D01*
X49620666Y-46890426D02*
X49582571Y-47004712D01*
X49582571Y-47004712D02*
X49125428Y-47461855D01*
X49125428Y-47461855D02*
X49620666Y-47461855D01*
X63235332Y-47423760D02*
X63349618Y-47461855D01*
X63349618Y-47461855D02*
X63540094Y-47461855D01*
X63540094Y-47461855D02*
X63616285Y-47423760D01*
X63616285Y-47423760D02*
X63654380Y-47385664D01*
X63654380Y-47385664D02*
X63692475Y-47309474D01*
X63692475Y-47309474D02*
X63692475Y-47233283D01*
X63692475Y-47233283D02*
X63654380Y-47157093D01*
X63654380Y-47157093D02*
X63616285Y-47118998D01*
X63616285Y-47118998D02*
X63540094Y-47080902D01*
X63540094Y-47080902D02*
X63387713Y-47042807D01*
X63387713Y-47042807D02*
X63311523Y-47004712D01*
X63311523Y-47004712D02*
X63273428Y-46966617D01*
X63273428Y-46966617D02*
X63235332Y-46890426D01*
X63235332Y-46890426D02*
X63235332Y-46814236D01*
X63235332Y-46814236D02*
X63273428Y-46738045D01*
X63273428Y-46738045D02*
X63311523Y-46699950D01*
X63311523Y-46699950D02*
X63387713Y-46661855D01*
X63387713Y-46661855D02*
X63578190Y-46661855D01*
X63578190Y-46661855D02*
X63692475Y-46699950D01*
X63959142Y-46661855D02*
X64149618Y-47461855D01*
X64149618Y-47461855D02*
X64301999Y-46890426D01*
X64301999Y-46890426D02*
X64454380Y-47461855D01*
X64454380Y-47461855D02*
X64644857Y-46661855D01*
X64873428Y-46661855D02*
X65368666Y-46661855D01*
X65368666Y-46661855D02*
X65102000Y-46966617D01*
X65102000Y-46966617D02*
X65216285Y-46966617D01*
X65216285Y-46966617D02*
X65292476Y-47004712D01*
X65292476Y-47004712D02*
X65330571Y-47042807D01*
X65330571Y-47042807D02*
X65368666Y-47118998D01*
X65368666Y-47118998D02*
X65368666Y-47309474D01*
X65368666Y-47309474D02*
X65330571Y-47385664D01*
X65330571Y-47385664D02*
X65292476Y-47423760D01*
X65292476Y-47423760D02*
X65216285Y-47461855D01*
X65216285Y-47461855D02*
X64987714Y-47461855D01*
X64987714Y-47461855D02*
X64911523Y-47423760D01*
X64911523Y-47423760D02*
X64873428Y-47385664D01*
X76300332Y-36022760D02*
X76414618Y-36060855D01*
X76414618Y-36060855D02*
X76605094Y-36060855D01*
X76605094Y-36060855D02*
X76681285Y-36022760D01*
X76681285Y-36022760D02*
X76719380Y-35984664D01*
X76719380Y-35984664D02*
X76757475Y-35908474D01*
X76757475Y-35908474D02*
X76757475Y-35832283D01*
X76757475Y-35832283D02*
X76719380Y-35756093D01*
X76719380Y-35756093D02*
X76681285Y-35717998D01*
X76681285Y-35717998D02*
X76605094Y-35679902D01*
X76605094Y-35679902D02*
X76452713Y-35641807D01*
X76452713Y-35641807D02*
X76376523Y-35603712D01*
X76376523Y-35603712D02*
X76338428Y-35565617D01*
X76338428Y-35565617D02*
X76300332Y-35489426D01*
X76300332Y-35489426D02*
X76300332Y-35413236D01*
X76300332Y-35413236D02*
X76338428Y-35337045D01*
X76338428Y-35337045D02*
X76376523Y-35298950D01*
X76376523Y-35298950D02*
X76452713Y-35260855D01*
X76452713Y-35260855D02*
X76643190Y-35260855D01*
X76643190Y-35260855D02*
X76757475Y-35298950D01*
X77024142Y-35260855D02*
X77214618Y-36060855D01*
X77214618Y-36060855D02*
X77366999Y-35489426D01*
X77366999Y-35489426D02*
X77519380Y-36060855D01*
X77519380Y-36060855D02*
X77709857Y-35260855D01*
X78357476Y-35527521D02*
X78357476Y-36060855D01*
X78167000Y-35222760D02*
X77976523Y-35794188D01*
X77976523Y-35794188D02*
X78471762Y-35794188D01*
X39160076Y-33255455D02*
X39160076Y-33903074D01*
X39160076Y-33903074D02*
X39198171Y-33979264D01*
X39198171Y-33979264D02*
X39236266Y-34017360D01*
X39236266Y-34017360D02*
X39312457Y-34055455D01*
X39312457Y-34055455D02*
X39464838Y-34055455D01*
X39464838Y-34055455D02*
X39541028Y-34017360D01*
X39541028Y-34017360D02*
X39579123Y-33979264D01*
X39579123Y-33979264D02*
X39617219Y-33903074D01*
X39617219Y-33903074D02*
X39617219Y-33255455D01*
X40417218Y-34055455D02*
X39960075Y-34055455D01*
X40188647Y-34055455D02*
X40188647Y-33255455D01*
X40188647Y-33255455D02*
X40112456Y-33369740D01*
X40112456Y-33369740D02*
X40036266Y-33445931D01*
X40036266Y-33445931D02*
X39960075Y-33484026D01*
X72374327Y-34169755D02*
X72107660Y-33788802D01*
X71917184Y-34169755D02*
X71917184Y-33369755D01*
X71917184Y-33369755D02*
X72221946Y-33369755D01*
X72221946Y-33369755D02*
X72298136Y-33407850D01*
X72298136Y-33407850D02*
X72336231Y-33445945D01*
X72336231Y-33445945D02*
X72374327Y-33522136D01*
X72374327Y-33522136D02*
X72374327Y-33636421D01*
X72374327Y-33636421D02*
X72336231Y-33712612D01*
X72336231Y-33712612D02*
X72298136Y-33750707D01*
X72298136Y-33750707D02*
X72221946Y-33788802D01*
X72221946Y-33788802D02*
X71917184Y-33788802D01*
X72640993Y-33369755D02*
X73174327Y-33369755D01*
X73174327Y-33369755D02*
X72831469Y-34169755D01*
X23758524Y-53424855D02*
X23758524Y-52624855D01*
X23758524Y-52624855D02*
X23949000Y-52624855D01*
X23949000Y-52624855D02*
X24063286Y-52662950D01*
X24063286Y-52662950D02*
X24139476Y-52739140D01*
X24139476Y-52739140D02*
X24177571Y-52815331D01*
X24177571Y-52815331D02*
X24215667Y-52967712D01*
X24215667Y-52967712D02*
X24215667Y-53081998D01*
X24215667Y-53081998D02*
X24177571Y-53234379D01*
X24177571Y-53234379D02*
X24139476Y-53310569D01*
X24139476Y-53310569D02*
X24063286Y-53386760D01*
X24063286Y-53386760D02*
X23949000Y-53424855D01*
X23949000Y-53424855D02*
X23758524Y-53424855D01*
X24977571Y-53424855D02*
X24520428Y-53424855D01*
X24749000Y-53424855D02*
X24749000Y-52624855D01*
X24749000Y-52624855D02*
X24672809Y-52739140D01*
X24672809Y-52739140D02*
X24596619Y-52815331D01*
X24596619Y-52815331D02*
X24520428Y-52853426D01*
X72168524Y-53424855D02*
X72168524Y-52624855D01*
X72168524Y-52624855D02*
X72359000Y-52624855D01*
X72359000Y-52624855D02*
X72473286Y-52662950D01*
X72473286Y-52662950D02*
X72549476Y-52739140D01*
X72549476Y-52739140D02*
X72587571Y-52815331D01*
X72587571Y-52815331D02*
X72625667Y-52967712D01*
X72625667Y-52967712D02*
X72625667Y-53081998D01*
X72625667Y-53081998D02*
X72587571Y-53234379D01*
X72587571Y-53234379D02*
X72549476Y-53310569D01*
X72549476Y-53310569D02*
X72473286Y-53386760D01*
X72473286Y-53386760D02*
X72359000Y-53424855D01*
X72359000Y-53424855D02*
X72168524Y-53424855D01*
X72930428Y-52701045D02*
X72968524Y-52662950D01*
X72968524Y-52662950D02*
X73044714Y-52624855D01*
X73044714Y-52624855D02*
X73235190Y-52624855D01*
X73235190Y-52624855D02*
X73311381Y-52662950D01*
X73311381Y-52662950D02*
X73349476Y-52701045D01*
X73349476Y-52701045D02*
X73387571Y-52777236D01*
X73387571Y-52777236D02*
X73387571Y-52853426D01*
X73387571Y-52853426D02*
X73349476Y-52967712D01*
X73349476Y-52967712D02*
X72892333Y-53424855D01*
X72892333Y-53424855D02*
X73387571Y-53424855D01*
X21030819Y-37551455D02*
X20764152Y-37170502D01*
X20573676Y-37551455D02*
X20573676Y-36751455D01*
X20573676Y-36751455D02*
X20878438Y-36751455D01*
X20878438Y-36751455D02*
X20954628Y-36789550D01*
X20954628Y-36789550D02*
X20992723Y-36827645D01*
X20992723Y-36827645D02*
X21030819Y-36903836D01*
X21030819Y-36903836D02*
X21030819Y-37018121D01*
X21030819Y-37018121D02*
X20992723Y-37094312D01*
X20992723Y-37094312D02*
X20954628Y-37132407D01*
X20954628Y-37132407D02*
X20878438Y-37170502D01*
X20878438Y-37170502D02*
X20573676Y-37170502D01*
X21373676Y-37551455D02*
X21373676Y-36751455D01*
X21373676Y-36751455D02*
X21830819Y-37551455D01*
X21830819Y-37551455D02*
X21830819Y-36751455D01*
X22173675Y-36827645D02*
X22211771Y-36789550D01*
X22211771Y-36789550D02*
X22287961Y-36751455D01*
X22287961Y-36751455D02*
X22478437Y-36751455D01*
X22478437Y-36751455D02*
X22554628Y-36789550D01*
X22554628Y-36789550D02*
X22592723Y-36827645D01*
X22592723Y-36827645D02*
X22630818Y-36903836D01*
X22630818Y-36903836D02*
X22630818Y-36980026D01*
X22630818Y-36980026D02*
X22592723Y-37094312D01*
X22592723Y-37094312D02*
X22135580Y-37551455D01*
X22135580Y-37551455D02*
X22630818Y-37551455D01*
X63575819Y-39516455D02*
X63309152Y-39135502D01*
X63118676Y-39516455D02*
X63118676Y-38716455D01*
X63118676Y-38716455D02*
X63423438Y-38716455D01*
X63423438Y-38716455D02*
X63499628Y-38754550D01*
X63499628Y-38754550D02*
X63537723Y-38792645D01*
X63537723Y-38792645D02*
X63575819Y-38868836D01*
X63575819Y-38868836D02*
X63575819Y-38983121D01*
X63575819Y-38983121D02*
X63537723Y-39059312D01*
X63537723Y-39059312D02*
X63499628Y-39097407D01*
X63499628Y-39097407D02*
X63423438Y-39135502D01*
X63423438Y-39135502D02*
X63118676Y-39135502D01*
X63918676Y-39516455D02*
X63918676Y-38716455D01*
X63918676Y-38716455D02*
X64375819Y-39516455D01*
X64375819Y-39516455D02*
X64375819Y-38716455D01*
X65099628Y-38983121D02*
X65099628Y-39516455D01*
X64909152Y-38678360D02*
X64718675Y-39249788D01*
X64718675Y-39249788D02*
X65213914Y-39249788D01*
X17379533Y-44221455D02*
X17379533Y-44792883D01*
X17379533Y-44792883D02*
X17341438Y-44907169D01*
X17341438Y-44907169D02*
X17265247Y-44983360D01*
X17265247Y-44983360D02*
X17150962Y-45021455D01*
X17150962Y-45021455D02*
X17074771Y-45021455D01*
X18179533Y-45021455D02*
X17722390Y-45021455D01*
X17950962Y-45021455D02*
X17950962Y-44221455D01*
X17950962Y-44221455D02*
X17874771Y-44335740D01*
X17874771Y-44335740D02*
X17798581Y-44411931D01*
X17798581Y-44411931D02*
X17722390Y-44450026D01*
X21030819Y-43139455D02*
X20764152Y-42758502D01*
X20573676Y-43139455D02*
X20573676Y-42339455D01*
X20573676Y-42339455D02*
X20878438Y-42339455D01*
X20878438Y-42339455D02*
X20954628Y-42377550D01*
X20954628Y-42377550D02*
X20992723Y-42415645D01*
X20992723Y-42415645D02*
X21030819Y-42491836D01*
X21030819Y-42491836D02*
X21030819Y-42606121D01*
X21030819Y-42606121D02*
X20992723Y-42682312D01*
X20992723Y-42682312D02*
X20954628Y-42720407D01*
X20954628Y-42720407D02*
X20878438Y-42758502D01*
X20878438Y-42758502D02*
X20573676Y-42758502D01*
X21373676Y-43139455D02*
X21373676Y-42339455D01*
X21373676Y-42339455D02*
X21830819Y-43139455D01*
X21830819Y-43139455D02*
X21830819Y-42339455D01*
X22135580Y-42339455D02*
X22630818Y-42339455D01*
X22630818Y-42339455D02*
X22364152Y-42644217D01*
X22364152Y-42644217D02*
X22478437Y-42644217D01*
X22478437Y-42644217D02*
X22554628Y-42682312D01*
X22554628Y-42682312D02*
X22592723Y-42720407D01*
X22592723Y-42720407D02*
X22630818Y-42796598D01*
X22630818Y-42796598D02*
X22630818Y-42987074D01*
X22630818Y-42987074D02*
X22592723Y-43063264D01*
X22592723Y-43063264D02*
X22554628Y-43101360D01*
X22554628Y-43101360D02*
X22478437Y-43139455D01*
X22478437Y-43139455D02*
X22249866Y-43139455D01*
X22249866Y-43139455D02*
X22173675Y-43101360D01*
X22173675Y-43101360D02*
X22135580Y-43063264D01*
X21030819Y-31906455D02*
X20764152Y-31525502D01*
X20573676Y-31906455D02*
X20573676Y-31106455D01*
X20573676Y-31106455D02*
X20878438Y-31106455D01*
X20878438Y-31106455D02*
X20954628Y-31144550D01*
X20954628Y-31144550D02*
X20992723Y-31182645D01*
X20992723Y-31182645D02*
X21030819Y-31258836D01*
X21030819Y-31258836D02*
X21030819Y-31373121D01*
X21030819Y-31373121D02*
X20992723Y-31449312D01*
X20992723Y-31449312D02*
X20954628Y-31487407D01*
X20954628Y-31487407D02*
X20878438Y-31525502D01*
X20878438Y-31525502D02*
X20573676Y-31525502D01*
X21373676Y-31906455D02*
X21373676Y-31106455D01*
X21373676Y-31106455D02*
X21830819Y-31906455D01*
X21830819Y-31906455D02*
X21830819Y-31106455D01*
X22630818Y-31906455D02*
X22173675Y-31906455D01*
X22402247Y-31906455D02*
X22402247Y-31106455D01*
X22402247Y-31106455D02*
X22326056Y-31220740D01*
X22326056Y-31220740D02*
X22249866Y-31296931D01*
X22249866Y-31296931D02*
X22173675Y-31335026D01*
D13*
X53335252Y-44664960D02*
X52812748Y-44664960D01*
X53335252Y-46134960D02*
X52812748Y-46134960D01*
X37099000Y-36898212D02*
X37099000Y-36375708D01*
X38569000Y-36898212D02*
X38569000Y-36375708D01*
X52812748Y-32599960D02*
X53335252Y-32599960D01*
X52812748Y-34069960D02*
X53335252Y-34069960D01*
X39080852Y-44791960D02*
X38558348Y-44791960D01*
X39080852Y-46261960D02*
X38558348Y-46261960D01*
X39247100Y-50663702D02*
X39247100Y-51138218D01*
X40292100Y-50663702D02*
X40292100Y-51138218D01*
X54381500Y-51138218D02*
X54381500Y-50663702D01*
X55426500Y-51138218D02*
X55426500Y-50663702D01*
X57429500Y-51138218D02*
X57429500Y-50663702D01*
X58474500Y-51138218D02*
X58474500Y-50663702D01*
X26112500Y-50663702D02*
X26112500Y-51138218D01*
X27157500Y-50663702D02*
X27157500Y-51138218D01*
X69950500Y-50663702D02*
X69950500Y-51138218D01*
X70995500Y-50663702D02*
X70995500Y-51138218D01*
X29576000Y-47666960D02*
X29576000Y-47696960D01*
X29576000Y-52196960D02*
X29576000Y-49596960D01*
X29576000Y-54126960D02*
X29576000Y-54096960D01*
X36036000Y-47666960D02*
X29576000Y-47666960D01*
X36036000Y-47666960D02*
X36036000Y-47696960D01*
X36036000Y-52196960D02*
X36036000Y-49596960D01*
X36036000Y-54096960D02*
X36036000Y-54126960D01*
X36036000Y-54126960D02*
X29576000Y-54126960D01*
X45324000Y-47666960D02*
X45324000Y-47696960D01*
X45324000Y-52196960D02*
X45324000Y-49596960D01*
X45324000Y-54126960D02*
X45324000Y-54096960D01*
X51784000Y-47666960D02*
X45324000Y-47666960D01*
X51784000Y-47666960D02*
X51784000Y-47696960D01*
X51784000Y-52196960D02*
X51784000Y-49596960D01*
X51784000Y-54096960D02*
X51784000Y-54126960D01*
X51784000Y-54126960D02*
X45324000Y-54126960D01*
X61072000Y-47666960D02*
X61072000Y-47696960D01*
X61072000Y-52196960D02*
X61072000Y-49596960D01*
X61072000Y-54126960D02*
X61072000Y-54096960D01*
X67532000Y-47666960D02*
X61072000Y-47666960D01*
X67532000Y-47666960D02*
X67532000Y-47696960D01*
X67532000Y-52196960D02*
X67532000Y-49596960D01*
X67532000Y-54096960D02*
X67532000Y-54126960D01*
X67532000Y-54126960D02*
X61072000Y-54126960D01*
X74137000Y-36910960D02*
X74137000Y-43370960D01*
X74137000Y-36910960D02*
X74167000Y-36910960D01*
X74137000Y-43370960D02*
X74167000Y-43370960D01*
X78667000Y-36910960D02*
X76067000Y-36910960D01*
X78667000Y-43370960D02*
X76067000Y-43370960D01*
X80567000Y-36910960D02*
X80597000Y-36910960D01*
X80597000Y-36910960D02*
X80597000Y-43370960D01*
X80597000Y-43370960D02*
X80567000Y-43370960D01*
X40852000Y-34320960D02*
X40852000Y-34895960D01*
X40852000Y-44540960D02*
X40852000Y-43965960D01*
X41427000Y-34320960D02*
X40852000Y-34320960D01*
X41427000Y-44540960D02*
X40852000Y-44540960D01*
X50497000Y-34320960D02*
X51072000Y-34320960D01*
X50497000Y-44540960D02*
X51072000Y-44540960D01*
X51072000Y-34320960D02*
X51072000Y-34895960D01*
X51072000Y-44540960D02*
X51072000Y-43965960D01*
X52002000Y-44435960D02*
X51322000Y-44435960D01*
X51662000Y-43965960D01*
X52002000Y-44435960D01*
G36*
X52002000Y-44435960D02*
G01*
X51322000Y-44435960D01*
X51662000Y-43965960D01*
X52002000Y-44435960D01*
G37*
X71985160Y-36074118D02*
X71985160Y-35599602D01*
X73030160Y-36074118D02*
X73030160Y-35599602D01*
X23614000Y-50100960D02*
X23614000Y-52385960D01*
X23614000Y-52385960D02*
X25084000Y-52385960D01*
X25084000Y-52385960D02*
X25084000Y-50100960D01*
X72024000Y-50100960D02*
X72024000Y-52385960D01*
X72024000Y-52385960D02*
X73494000Y-52385960D01*
X73494000Y-52385960D02*
X73494000Y-50100960D01*
X21983200Y-38066560D02*
X21183200Y-38066560D01*
X21983200Y-41506560D02*
X21183200Y-41506560D01*
X63728200Y-39844560D02*
X64528200Y-39844560D01*
X63728200Y-43284560D02*
X64528200Y-43284560D01*
X16316200Y-41056560D02*
X16316200Y-35916560D01*
X18976200Y-35916560D02*
X16316200Y-35916560D01*
X18976200Y-41056560D02*
X16316200Y-41056560D01*
X18976200Y-41056560D02*
X18976200Y-35916560D01*
X18976200Y-42326560D02*
X18976200Y-43656560D01*
X18976200Y-43656560D02*
X17646200Y-43656560D01*
X21983200Y-43654560D02*
X21183200Y-43654560D01*
X21983200Y-47094560D02*
X21183200Y-47094560D01*
X21983200Y-32421560D02*
X21183200Y-32421560D01*
X21983200Y-35861560D02*
X21183200Y-35861560D01*
M02*
