G04 #@! TF.GenerationSoftware,KiCad,Pcbnew,8.0.6*
G04 #@! TF.CreationDate,2024-11-23T12:10:56+00:00*
G04 #@! TF.ProjectId,rgb-to-hdmi,7267622d-746f-42d6-9864-6d692e6b6963,4 / 01*
G04 #@! TF.SameCoordinates,Original*
G04 #@! TF.FileFunction,Legend,Bot*
G04 #@! TF.FilePolarity,Positive*
%FSLAX46Y46*%
G04 Gerber Fmt 4.6, Leading zero omitted, Abs format (unit mm)*
G04 Created by KiCad (PCBNEW 8.0.6) date 2024-11-23 12:10:56*
%MOMM*%
%LPD*%
G01*
G04 APERTURE LIST*
%ADD10C,0.150000*%
%ADD11C,0.100000*%
%ADD12C,0.120000*%
G04 APERTURE END LIST*
D10*
X39739000Y-50162460D02*
X23991000Y-50162460D01*
X23991000Y-53337460D01*
X39739000Y-53337460D01*
X39739000Y-50162460D01*
D11*
X39103096Y-51115330D02*
X39369762Y-51115330D01*
X39369762Y-51534378D02*
X39369762Y-50734378D01*
X39369762Y-50734378D02*
X38988810Y-50734378D01*
X38341191Y-51001044D02*
X38341191Y-51534378D01*
X38684048Y-51001044D02*
X38684048Y-51420092D01*
X38684048Y-51420092D02*
X38645953Y-51496283D01*
X38645953Y-51496283D02*
X38569763Y-51534378D01*
X38569763Y-51534378D02*
X38455477Y-51534378D01*
X38455477Y-51534378D02*
X38379286Y-51496283D01*
X38379286Y-51496283D02*
X38341191Y-51458187D01*
X37845953Y-51534378D02*
X37922143Y-51496283D01*
X37922143Y-51496283D02*
X37960238Y-51420092D01*
X37960238Y-51420092D02*
X37960238Y-50734378D01*
X37426905Y-51534378D02*
X37503095Y-51496283D01*
X37503095Y-51496283D02*
X37541190Y-51420092D01*
X37541190Y-51420092D02*
X37541190Y-50734378D01*
X36550714Y-51496283D02*
X36436428Y-51534378D01*
X36436428Y-51534378D02*
X36245952Y-51534378D01*
X36245952Y-51534378D02*
X36169761Y-51496283D01*
X36169761Y-51496283D02*
X36131666Y-51458187D01*
X36131666Y-51458187D02*
X36093571Y-51381997D01*
X36093571Y-51381997D02*
X36093571Y-51305806D01*
X36093571Y-51305806D02*
X36131666Y-51229616D01*
X36131666Y-51229616D02*
X36169761Y-51191521D01*
X36169761Y-51191521D02*
X36245952Y-51153425D01*
X36245952Y-51153425D02*
X36398333Y-51115330D01*
X36398333Y-51115330D02*
X36474523Y-51077235D01*
X36474523Y-51077235D02*
X36512618Y-51039140D01*
X36512618Y-51039140D02*
X36550714Y-50962949D01*
X36550714Y-50962949D02*
X36550714Y-50886759D01*
X36550714Y-50886759D02*
X36512618Y-50810568D01*
X36512618Y-50810568D02*
X36474523Y-50772473D01*
X36474523Y-50772473D02*
X36398333Y-50734378D01*
X36398333Y-50734378D02*
X36207856Y-50734378D01*
X36207856Y-50734378D02*
X36093571Y-50772473D01*
X35750713Y-51534378D02*
X35750713Y-50734378D01*
X35750713Y-50734378D02*
X35484047Y-51305806D01*
X35484047Y-51305806D02*
X35217380Y-50734378D01*
X35217380Y-50734378D02*
X35217380Y-51534378D01*
X34836427Y-51534378D02*
X34836427Y-50734378D01*
X34836427Y-50734378D02*
X34645951Y-50734378D01*
X34645951Y-50734378D02*
X34531665Y-50772473D01*
X34531665Y-50772473D02*
X34455475Y-50848663D01*
X34455475Y-50848663D02*
X34417380Y-50924854D01*
X34417380Y-50924854D02*
X34379284Y-51077235D01*
X34379284Y-51077235D02*
X34379284Y-51191521D01*
X34379284Y-51191521D02*
X34417380Y-51343902D01*
X34417380Y-51343902D02*
X34455475Y-51420092D01*
X34455475Y-51420092D02*
X34531665Y-51496283D01*
X34531665Y-51496283D02*
X34645951Y-51534378D01*
X34645951Y-51534378D02*
X34836427Y-51534378D01*
X33426903Y-50734378D02*
X33426903Y-51381997D01*
X33426903Y-51381997D02*
X33388808Y-51458187D01*
X33388808Y-51458187D02*
X33350713Y-51496283D01*
X33350713Y-51496283D02*
X33274522Y-51534378D01*
X33274522Y-51534378D02*
X33122141Y-51534378D01*
X33122141Y-51534378D02*
X33045951Y-51496283D01*
X33045951Y-51496283D02*
X33007856Y-51458187D01*
X33007856Y-51458187D02*
X32969760Y-51381997D01*
X32969760Y-51381997D02*
X32969760Y-50734378D01*
X32588808Y-51001044D02*
X32588808Y-51801044D01*
X32588808Y-51039140D02*
X32512618Y-51001044D01*
X32512618Y-51001044D02*
X32360237Y-51001044D01*
X32360237Y-51001044D02*
X32284046Y-51039140D01*
X32284046Y-51039140D02*
X32245951Y-51077235D01*
X32245951Y-51077235D02*
X32207856Y-51153425D01*
X32207856Y-51153425D02*
X32207856Y-51381997D01*
X32207856Y-51381997D02*
X32245951Y-51458187D01*
X32245951Y-51458187D02*
X32284046Y-51496283D01*
X32284046Y-51496283D02*
X32360237Y-51534378D01*
X32360237Y-51534378D02*
X32512618Y-51534378D01*
X32512618Y-51534378D02*
X32588808Y-51496283D01*
X31522141Y-51534378D02*
X31522141Y-50734378D01*
X31522141Y-51496283D02*
X31598332Y-51534378D01*
X31598332Y-51534378D02*
X31750713Y-51534378D01*
X31750713Y-51534378D02*
X31826903Y-51496283D01*
X31826903Y-51496283D02*
X31864998Y-51458187D01*
X31864998Y-51458187D02*
X31903094Y-51381997D01*
X31903094Y-51381997D02*
X31903094Y-51153425D01*
X31903094Y-51153425D02*
X31864998Y-51077235D01*
X31864998Y-51077235D02*
X31826903Y-51039140D01*
X31826903Y-51039140D02*
X31750713Y-51001044D01*
X31750713Y-51001044D02*
X31598332Y-51001044D01*
X31598332Y-51001044D02*
X31522141Y-51039140D01*
X30798331Y-51534378D02*
X30798331Y-51115330D01*
X30798331Y-51115330D02*
X30836426Y-51039140D01*
X30836426Y-51039140D02*
X30912617Y-51001044D01*
X30912617Y-51001044D02*
X31064998Y-51001044D01*
X31064998Y-51001044D02*
X31141188Y-51039140D01*
X30798331Y-51496283D02*
X30874522Y-51534378D01*
X30874522Y-51534378D02*
X31064998Y-51534378D01*
X31064998Y-51534378D02*
X31141188Y-51496283D01*
X31141188Y-51496283D02*
X31179284Y-51420092D01*
X31179284Y-51420092D02*
X31179284Y-51343902D01*
X31179284Y-51343902D02*
X31141188Y-51267711D01*
X31141188Y-51267711D02*
X31064998Y-51229616D01*
X31064998Y-51229616D02*
X30874522Y-51229616D01*
X30874522Y-51229616D02*
X30798331Y-51191521D01*
X30531664Y-51001044D02*
X30226902Y-51001044D01*
X30417378Y-50734378D02*
X30417378Y-51420092D01*
X30417378Y-51420092D02*
X30379283Y-51496283D01*
X30379283Y-51496283D02*
X30303093Y-51534378D01*
X30303093Y-51534378D02*
X30226902Y-51534378D01*
X29655473Y-51496283D02*
X29731664Y-51534378D01*
X29731664Y-51534378D02*
X29884045Y-51534378D01*
X29884045Y-51534378D02*
X29960235Y-51496283D01*
X29960235Y-51496283D02*
X29998331Y-51420092D01*
X29998331Y-51420092D02*
X29998331Y-51115330D01*
X29998331Y-51115330D02*
X29960235Y-51039140D01*
X29960235Y-51039140D02*
X29884045Y-51001044D01*
X29884045Y-51001044D02*
X29731664Y-51001044D01*
X29731664Y-51001044D02*
X29655473Y-51039140D01*
X29655473Y-51039140D02*
X29617378Y-51115330D01*
X29617378Y-51115330D02*
X29617378Y-51191521D01*
X29617378Y-51191521D02*
X29998331Y-51267711D01*
X29045950Y-51839140D02*
X29084045Y-51801044D01*
X29084045Y-51801044D02*
X29160236Y-51686759D01*
X29160236Y-51686759D02*
X29198331Y-51610568D01*
X29198331Y-51610568D02*
X29236426Y-51496283D01*
X29236426Y-51496283D02*
X29274521Y-51305806D01*
X29274521Y-51305806D02*
X29274521Y-51153425D01*
X29274521Y-51153425D02*
X29236426Y-50962949D01*
X29236426Y-50962949D02*
X29198331Y-50848663D01*
X29198331Y-50848663D02*
X29160236Y-50772473D01*
X29160236Y-50772473D02*
X29084045Y-50658187D01*
X29084045Y-50658187D02*
X29045950Y-50620092D01*
X28284045Y-51534378D02*
X28550712Y-51153425D01*
X28741188Y-51534378D02*
X28741188Y-50734378D01*
X28741188Y-50734378D02*
X28436426Y-50734378D01*
X28436426Y-50734378D02*
X28360236Y-50772473D01*
X28360236Y-50772473D02*
X28322141Y-50810568D01*
X28322141Y-50810568D02*
X28284045Y-50886759D01*
X28284045Y-50886759D02*
X28284045Y-51001044D01*
X28284045Y-51001044D02*
X28322141Y-51077235D01*
X28322141Y-51077235D02*
X28360236Y-51115330D01*
X28360236Y-51115330D02*
X28436426Y-51153425D01*
X28436426Y-51153425D02*
X28741188Y-51153425D01*
X27636426Y-51496283D02*
X27712617Y-51534378D01*
X27712617Y-51534378D02*
X27864998Y-51534378D01*
X27864998Y-51534378D02*
X27941188Y-51496283D01*
X27941188Y-51496283D02*
X27979284Y-51420092D01*
X27979284Y-51420092D02*
X27979284Y-51115330D01*
X27979284Y-51115330D02*
X27941188Y-51039140D01*
X27941188Y-51039140D02*
X27864998Y-51001044D01*
X27864998Y-51001044D02*
X27712617Y-51001044D01*
X27712617Y-51001044D02*
X27636426Y-51039140D01*
X27636426Y-51039140D02*
X27598331Y-51115330D01*
X27598331Y-51115330D02*
X27598331Y-51191521D01*
X27598331Y-51191521D02*
X27979284Y-51267711D01*
X27331665Y-51001044D02*
X27141189Y-51534378D01*
X27141189Y-51534378D02*
X26950712Y-51001044D01*
X25884045Y-50734378D02*
X25807855Y-50734378D01*
X25807855Y-50734378D02*
X25731664Y-50772473D01*
X25731664Y-50772473D02*
X25693569Y-50810568D01*
X25693569Y-50810568D02*
X25655474Y-50886759D01*
X25655474Y-50886759D02*
X25617379Y-51039140D01*
X25617379Y-51039140D02*
X25617379Y-51229616D01*
X25617379Y-51229616D02*
X25655474Y-51381997D01*
X25655474Y-51381997D02*
X25693569Y-51458187D01*
X25693569Y-51458187D02*
X25731664Y-51496283D01*
X25731664Y-51496283D02*
X25807855Y-51534378D01*
X25807855Y-51534378D02*
X25884045Y-51534378D01*
X25884045Y-51534378D02*
X25960236Y-51496283D01*
X25960236Y-51496283D02*
X25998331Y-51458187D01*
X25998331Y-51458187D02*
X26036426Y-51381997D01*
X26036426Y-51381997D02*
X26074522Y-51229616D01*
X26074522Y-51229616D02*
X26074522Y-51039140D01*
X26074522Y-51039140D02*
X26036426Y-50886759D01*
X26036426Y-50886759D02*
X25998331Y-50810568D01*
X25998331Y-50810568D02*
X25960236Y-50772473D01*
X25960236Y-50772473D02*
X25884045Y-50734378D01*
X24855474Y-51534378D02*
X25312617Y-51534378D01*
X25084045Y-51534378D02*
X25084045Y-50734378D01*
X25084045Y-50734378D02*
X25160236Y-50848663D01*
X25160236Y-50848663D02*
X25236426Y-50924854D01*
X25236426Y-50924854D02*
X25312617Y-50962949D01*
X24588807Y-51839140D02*
X24550712Y-51801044D01*
X24550712Y-51801044D02*
X24474521Y-51686759D01*
X24474521Y-51686759D02*
X24436426Y-51610568D01*
X24436426Y-51610568D02*
X24398331Y-51496283D01*
X24398331Y-51496283D02*
X24360235Y-51305806D01*
X24360235Y-51305806D02*
X24360235Y-51153425D01*
X24360235Y-51153425D02*
X24398331Y-50962949D01*
X24398331Y-50962949D02*
X24436426Y-50848663D01*
X24436426Y-50848663D02*
X24474521Y-50772473D01*
X24474521Y-50772473D02*
X24550712Y-50658187D01*
X24550712Y-50658187D02*
X24588807Y-50620092D01*
X38493572Y-52212809D02*
X38569763Y-52174714D01*
X38569763Y-52174714D02*
X38722144Y-52174714D01*
X38722144Y-52174714D02*
X38798334Y-52212809D01*
X38798334Y-52212809D02*
X38874525Y-52288999D01*
X38874525Y-52288999D02*
X38912620Y-52365190D01*
X38912620Y-52365190D02*
X38912620Y-52517571D01*
X38912620Y-52517571D02*
X38874525Y-52593761D01*
X38874525Y-52593761D02*
X38798334Y-52669952D01*
X38798334Y-52669952D02*
X38722144Y-52708047D01*
X38722144Y-52708047D02*
X38569763Y-52708047D01*
X38569763Y-52708047D02*
X38493572Y-52669952D01*
X38645953Y-51908047D02*
X38836429Y-51946142D01*
X38836429Y-51946142D02*
X39026906Y-52060428D01*
X39026906Y-52060428D02*
X39141191Y-52250904D01*
X39141191Y-52250904D02*
X39179287Y-52441380D01*
X39179287Y-52441380D02*
X39141191Y-52631857D01*
X39141191Y-52631857D02*
X39026906Y-52822333D01*
X39026906Y-52822333D02*
X38836429Y-52936618D01*
X38836429Y-52936618D02*
X38645953Y-52974714D01*
X38645953Y-52974714D02*
X38455477Y-52936618D01*
X38455477Y-52936618D02*
X38265001Y-52822333D01*
X38265001Y-52822333D02*
X38150715Y-52631857D01*
X38150715Y-52631857D02*
X38112620Y-52441380D01*
X38112620Y-52441380D02*
X38150715Y-52250904D01*
X38150715Y-52250904D02*
X38265001Y-52060428D01*
X38265001Y-52060428D02*
X38455477Y-51946142D01*
X38455477Y-51946142D02*
X38645953Y-51908047D01*
X37160238Y-52822333D02*
X37160238Y-52022333D01*
X36703095Y-52822333D02*
X37045953Y-52365190D01*
X36703095Y-52022333D02*
X37160238Y-52479476D01*
X35369762Y-52822333D02*
X35750714Y-52822333D01*
X35750714Y-52822333D02*
X35750714Y-52022333D01*
X34988810Y-52822333D02*
X35065000Y-52784238D01*
X35065000Y-52784238D02*
X35103095Y-52746142D01*
X35103095Y-52746142D02*
X35141191Y-52669952D01*
X35141191Y-52669952D02*
X35141191Y-52441380D01*
X35141191Y-52441380D02*
X35103095Y-52365190D01*
X35103095Y-52365190D02*
X35065000Y-52327095D01*
X35065000Y-52327095D02*
X34988810Y-52288999D01*
X34988810Y-52288999D02*
X34874524Y-52288999D01*
X34874524Y-52288999D02*
X34798333Y-52327095D01*
X34798333Y-52327095D02*
X34760238Y-52365190D01*
X34760238Y-52365190D02*
X34722143Y-52441380D01*
X34722143Y-52441380D02*
X34722143Y-52669952D01*
X34722143Y-52669952D02*
X34760238Y-52746142D01*
X34760238Y-52746142D02*
X34798333Y-52784238D01*
X34798333Y-52784238D02*
X34874524Y-52822333D01*
X34874524Y-52822333D02*
X34988810Y-52822333D01*
X34455476Y-52288999D02*
X34303095Y-52822333D01*
X34303095Y-52822333D02*
X34150714Y-52441380D01*
X34150714Y-52441380D02*
X33998333Y-52822333D01*
X33998333Y-52822333D02*
X33845952Y-52288999D01*
X33236428Y-52784238D02*
X33312619Y-52822333D01*
X33312619Y-52822333D02*
X33465000Y-52822333D01*
X33465000Y-52822333D02*
X33541190Y-52784238D01*
X33541190Y-52784238D02*
X33579286Y-52708047D01*
X33579286Y-52708047D02*
X33579286Y-52403285D01*
X33579286Y-52403285D02*
X33541190Y-52327095D01*
X33541190Y-52327095D02*
X33465000Y-52288999D01*
X33465000Y-52288999D02*
X33312619Y-52288999D01*
X33312619Y-52288999D02*
X33236428Y-52327095D01*
X33236428Y-52327095D02*
X33198333Y-52403285D01*
X33198333Y-52403285D02*
X33198333Y-52479476D01*
X33198333Y-52479476D02*
X33579286Y-52555666D01*
X32245952Y-52517571D02*
X31636429Y-52517571D01*
X30645952Y-52822333D02*
X30645952Y-52022333D01*
X30645952Y-52022333D02*
X30188809Y-52822333D01*
X30188809Y-52822333D02*
X30188809Y-52022333D01*
X29693572Y-52822333D02*
X29769762Y-52784238D01*
X29769762Y-52784238D02*
X29807857Y-52746142D01*
X29807857Y-52746142D02*
X29845953Y-52669952D01*
X29845953Y-52669952D02*
X29845953Y-52441380D01*
X29845953Y-52441380D02*
X29807857Y-52365190D01*
X29807857Y-52365190D02*
X29769762Y-52327095D01*
X29769762Y-52327095D02*
X29693572Y-52288999D01*
X29693572Y-52288999D02*
X29579286Y-52288999D01*
X29579286Y-52288999D02*
X29503095Y-52327095D01*
X29503095Y-52327095D02*
X29465000Y-52365190D01*
X29465000Y-52365190D02*
X29426905Y-52441380D01*
X29426905Y-52441380D02*
X29426905Y-52669952D01*
X29426905Y-52669952D02*
X29465000Y-52746142D01*
X29465000Y-52746142D02*
X29503095Y-52784238D01*
X29503095Y-52784238D02*
X29579286Y-52822333D01*
X29579286Y-52822333D02*
X29693572Y-52822333D01*
X29160238Y-52288999D02*
X28969762Y-52822333D01*
X28969762Y-52822333D02*
X28779285Y-52288999D01*
X27903095Y-52098523D02*
X27864999Y-52060428D01*
X27864999Y-52060428D02*
X27788809Y-52022333D01*
X27788809Y-52022333D02*
X27598333Y-52022333D01*
X27598333Y-52022333D02*
X27522142Y-52060428D01*
X27522142Y-52060428D02*
X27484047Y-52098523D01*
X27484047Y-52098523D02*
X27445952Y-52174714D01*
X27445952Y-52174714D02*
X27445952Y-52250904D01*
X27445952Y-52250904D02*
X27484047Y-52365190D01*
X27484047Y-52365190D02*
X27941190Y-52822333D01*
X27941190Y-52822333D02*
X27445952Y-52822333D01*
X26950713Y-52022333D02*
X26874523Y-52022333D01*
X26874523Y-52022333D02*
X26798332Y-52060428D01*
X26798332Y-52060428D02*
X26760237Y-52098523D01*
X26760237Y-52098523D02*
X26722142Y-52174714D01*
X26722142Y-52174714D02*
X26684047Y-52327095D01*
X26684047Y-52327095D02*
X26684047Y-52517571D01*
X26684047Y-52517571D02*
X26722142Y-52669952D01*
X26722142Y-52669952D02*
X26760237Y-52746142D01*
X26760237Y-52746142D02*
X26798332Y-52784238D01*
X26798332Y-52784238D02*
X26874523Y-52822333D01*
X26874523Y-52822333D02*
X26950713Y-52822333D01*
X26950713Y-52822333D02*
X27026904Y-52784238D01*
X27026904Y-52784238D02*
X27064999Y-52746142D01*
X27064999Y-52746142D02*
X27103094Y-52669952D01*
X27103094Y-52669952D02*
X27141190Y-52517571D01*
X27141190Y-52517571D02*
X27141190Y-52327095D01*
X27141190Y-52327095D02*
X27103094Y-52174714D01*
X27103094Y-52174714D02*
X27064999Y-52098523D01*
X27064999Y-52098523D02*
X27026904Y-52060428D01*
X27026904Y-52060428D02*
X26950713Y-52022333D01*
X26379285Y-52098523D02*
X26341189Y-52060428D01*
X26341189Y-52060428D02*
X26264999Y-52022333D01*
X26264999Y-52022333D02*
X26074523Y-52022333D01*
X26074523Y-52022333D02*
X25998332Y-52060428D01*
X25998332Y-52060428D02*
X25960237Y-52098523D01*
X25960237Y-52098523D02*
X25922142Y-52174714D01*
X25922142Y-52174714D02*
X25922142Y-52250904D01*
X25922142Y-52250904D02*
X25960237Y-52365190D01*
X25960237Y-52365190D02*
X26417380Y-52822333D01*
X26417380Y-52822333D02*
X25922142Y-52822333D01*
X25236427Y-52288999D02*
X25236427Y-52822333D01*
X25426903Y-51984238D02*
X25617380Y-52555666D01*
X25617380Y-52555666D02*
X25122141Y-52555666D01*
D10*
X57646000Y-45082960D02*
X65646000Y-45082960D01*
X65646000Y-53082960D01*
X57646000Y-53082960D01*
X57646000Y-45082960D01*
G36*
X57646000Y-45082960D02*
G01*
X65646000Y-45082960D01*
X65646000Y-53082960D01*
X57646000Y-53082960D01*
X57646000Y-45082960D01*
G37*
D11*
X19932566Y-40619893D02*
X19932566Y-40219893D01*
X19232566Y-40419893D02*
X19932566Y-40419893D01*
X19232566Y-40053227D02*
X19699233Y-39686560D01*
X19699233Y-40053227D02*
X19232566Y-39686560D01*
X19232566Y-39419893D02*
X19932566Y-39419893D01*
X19932566Y-39419893D02*
X19932566Y-39253226D01*
X19932566Y-39253226D02*
X19899233Y-39153226D01*
X19899233Y-39153226D02*
X19832566Y-39086560D01*
X19832566Y-39086560D02*
X19765900Y-39053226D01*
X19765900Y-39053226D02*
X19632566Y-39019893D01*
X19632566Y-39019893D02*
X19532566Y-39019893D01*
X19532566Y-39019893D02*
X19399233Y-39053226D01*
X19399233Y-39053226D02*
X19332566Y-39086560D01*
X19332566Y-39086560D02*
X19265900Y-39153226D01*
X19265900Y-39153226D02*
X19232566Y-39253226D01*
X19232566Y-39253226D02*
X19232566Y-39419893D01*
X19899233Y-42776559D02*
X19932566Y-42843226D01*
X19932566Y-42843226D02*
X19932566Y-42943226D01*
X19932566Y-42943226D02*
X19899233Y-43043226D01*
X19899233Y-43043226D02*
X19832566Y-43109893D01*
X19832566Y-43109893D02*
X19765900Y-43143226D01*
X19765900Y-43143226D02*
X19632566Y-43176559D01*
X19632566Y-43176559D02*
X19532566Y-43176559D01*
X19532566Y-43176559D02*
X19399233Y-43143226D01*
X19399233Y-43143226D02*
X19332566Y-43109893D01*
X19332566Y-43109893D02*
X19265900Y-43043226D01*
X19265900Y-43043226D02*
X19232566Y-42943226D01*
X19232566Y-42943226D02*
X19232566Y-42876559D01*
X19232566Y-42876559D02*
X19265900Y-42776559D01*
X19265900Y-42776559D02*
X19299233Y-42743226D01*
X19299233Y-42743226D02*
X19532566Y-42743226D01*
X19532566Y-42743226D02*
X19532566Y-42876559D01*
X19699233Y-42443226D02*
X19232566Y-42443226D01*
X19632566Y-42443226D02*
X19665900Y-42409893D01*
X19665900Y-42409893D02*
X19699233Y-42343226D01*
X19699233Y-42343226D02*
X19699233Y-42243226D01*
X19699233Y-42243226D02*
X19665900Y-42176559D01*
X19665900Y-42176559D02*
X19599233Y-42143226D01*
X19599233Y-42143226D02*
X19232566Y-42143226D01*
X19232566Y-41509893D02*
X19932566Y-41509893D01*
X19265900Y-41509893D02*
X19232566Y-41576560D01*
X19232566Y-41576560D02*
X19232566Y-41709893D01*
X19232566Y-41709893D02*
X19265900Y-41776560D01*
X19265900Y-41776560D02*
X19299233Y-41809893D01*
X19299233Y-41809893D02*
X19365900Y-41843226D01*
X19365900Y-41843226D02*
X19565900Y-41843226D01*
X19565900Y-41843226D02*
X19632566Y-41809893D01*
X19632566Y-41809893D02*
X19665900Y-41776560D01*
X19665900Y-41776560D02*
X19699233Y-41709893D01*
X19699233Y-41709893D02*
X19699233Y-41576560D01*
X19699233Y-41576560D02*
X19665900Y-41509893D01*
X20662900Y-43036558D02*
X20629566Y-42936558D01*
X20629566Y-42936558D02*
X20629566Y-42769892D01*
X20629566Y-42769892D02*
X20662900Y-42703225D01*
X20662900Y-42703225D02*
X20696233Y-42669892D01*
X20696233Y-42669892D02*
X20762900Y-42636558D01*
X20762900Y-42636558D02*
X20829566Y-42636558D01*
X20829566Y-42636558D02*
X20896233Y-42669892D01*
X20896233Y-42669892D02*
X20929566Y-42703225D01*
X20929566Y-42703225D02*
X20962900Y-42769892D01*
X20962900Y-42769892D02*
X20996233Y-42903225D01*
X20996233Y-42903225D02*
X21029566Y-42969892D01*
X21029566Y-42969892D02*
X21062900Y-43003225D01*
X21062900Y-43003225D02*
X21129566Y-43036558D01*
X21129566Y-43036558D02*
X21196233Y-43036558D01*
X21196233Y-43036558D02*
X21262900Y-43003225D01*
X21262900Y-43003225D02*
X21296233Y-42969892D01*
X21296233Y-42969892D02*
X21329566Y-42903225D01*
X21329566Y-42903225D02*
X21329566Y-42736558D01*
X21329566Y-42736558D02*
X21296233Y-42636558D01*
X20662900Y-42069891D02*
X20629566Y-42136558D01*
X20629566Y-42136558D02*
X20629566Y-42269891D01*
X20629566Y-42269891D02*
X20662900Y-42336558D01*
X20662900Y-42336558D02*
X20729566Y-42369891D01*
X20729566Y-42369891D02*
X20996233Y-42369891D01*
X20996233Y-42369891D02*
X21062900Y-42336558D01*
X21062900Y-42336558D02*
X21096233Y-42269891D01*
X21096233Y-42269891D02*
X21096233Y-42136558D01*
X21096233Y-42136558D02*
X21062900Y-42069891D01*
X21062900Y-42069891D02*
X20996233Y-42036558D01*
X20996233Y-42036558D02*
X20929566Y-42036558D01*
X20929566Y-42036558D02*
X20862900Y-42369891D01*
X20629566Y-41736558D02*
X21096233Y-41736558D01*
X20962900Y-41736558D02*
X21029566Y-41703225D01*
X21029566Y-41703225D02*
X21062900Y-41669891D01*
X21062900Y-41669891D02*
X21096233Y-41603225D01*
X21096233Y-41603225D02*
X21096233Y-41536558D01*
X20629566Y-41303225D02*
X21096233Y-41303225D01*
X21329566Y-41303225D02*
X21296233Y-41336558D01*
X21296233Y-41336558D02*
X21262900Y-41303225D01*
X21262900Y-41303225D02*
X21296233Y-41269892D01*
X21296233Y-41269892D02*
X21329566Y-41303225D01*
X21329566Y-41303225D02*
X21262900Y-41303225D01*
X20629566Y-40669892D02*
X20996233Y-40669892D01*
X20996233Y-40669892D02*
X21062900Y-40703225D01*
X21062900Y-40703225D02*
X21096233Y-40769892D01*
X21096233Y-40769892D02*
X21096233Y-40903225D01*
X21096233Y-40903225D02*
X21062900Y-40969892D01*
X20662900Y-40669892D02*
X20629566Y-40736559D01*
X20629566Y-40736559D02*
X20629566Y-40903225D01*
X20629566Y-40903225D02*
X20662900Y-40969892D01*
X20662900Y-40969892D02*
X20729566Y-41003225D01*
X20729566Y-41003225D02*
X20796233Y-41003225D01*
X20796233Y-41003225D02*
X20862900Y-40969892D01*
X20862900Y-40969892D02*
X20896233Y-40903225D01*
X20896233Y-40903225D02*
X20896233Y-40736559D01*
X20896233Y-40736559D02*
X20929566Y-40669892D01*
X20629566Y-40236559D02*
X20662900Y-40303226D01*
X20662900Y-40303226D02*
X20729566Y-40336559D01*
X20729566Y-40336559D02*
X21329566Y-40336559D01*
X20629566Y-39436559D02*
X21329566Y-39436559D01*
X21329566Y-39436559D02*
X21329566Y-39269892D01*
X21329566Y-39269892D02*
X21296233Y-39169892D01*
X21296233Y-39169892D02*
X21229566Y-39103226D01*
X21229566Y-39103226D02*
X21162900Y-39069892D01*
X21162900Y-39069892D02*
X21029566Y-39036559D01*
X21029566Y-39036559D02*
X20929566Y-39036559D01*
X20929566Y-39036559D02*
X20796233Y-39069892D01*
X20796233Y-39069892D02*
X20729566Y-39103226D01*
X20729566Y-39103226D02*
X20662900Y-39169892D01*
X20662900Y-39169892D02*
X20629566Y-39269892D01*
X20629566Y-39269892D02*
X20629566Y-39436559D01*
X20662900Y-38469892D02*
X20629566Y-38536559D01*
X20629566Y-38536559D02*
X20629566Y-38669892D01*
X20629566Y-38669892D02*
X20662900Y-38736559D01*
X20662900Y-38736559D02*
X20729566Y-38769892D01*
X20729566Y-38769892D02*
X20996233Y-38769892D01*
X20996233Y-38769892D02*
X21062900Y-38736559D01*
X21062900Y-38736559D02*
X21096233Y-38669892D01*
X21096233Y-38669892D02*
X21096233Y-38536559D01*
X21096233Y-38536559D02*
X21062900Y-38469892D01*
X21062900Y-38469892D02*
X20996233Y-38436559D01*
X20996233Y-38436559D02*
X20929566Y-38436559D01*
X20929566Y-38436559D02*
X20862900Y-38769892D01*
X20629566Y-38136559D02*
X21329566Y-38136559D01*
X21062900Y-38136559D02*
X21096233Y-38069892D01*
X21096233Y-38069892D02*
X21096233Y-37936559D01*
X21096233Y-37936559D02*
X21062900Y-37869892D01*
X21062900Y-37869892D02*
X21029566Y-37836559D01*
X21029566Y-37836559D02*
X20962900Y-37803226D01*
X20962900Y-37803226D02*
X20762900Y-37803226D01*
X20762900Y-37803226D02*
X20696233Y-37836559D01*
X20696233Y-37836559D02*
X20662900Y-37869892D01*
X20662900Y-37869892D02*
X20629566Y-37936559D01*
X20629566Y-37936559D02*
X20629566Y-38069892D01*
X20629566Y-38069892D02*
X20662900Y-38136559D01*
X21096233Y-37203226D02*
X20629566Y-37203226D01*
X21096233Y-37503226D02*
X20729566Y-37503226D01*
X20729566Y-37503226D02*
X20662900Y-37469893D01*
X20662900Y-37469893D02*
X20629566Y-37403226D01*
X20629566Y-37403226D02*
X20629566Y-37303226D01*
X20629566Y-37303226D02*
X20662900Y-37236559D01*
X20662900Y-37236559D02*
X20696233Y-37203226D01*
X21096233Y-36569893D02*
X20529566Y-36569893D01*
X20529566Y-36569893D02*
X20462900Y-36603226D01*
X20462900Y-36603226D02*
X20429566Y-36636560D01*
X20429566Y-36636560D02*
X20396233Y-36703226D01*
X20396233Y-36703226D02*
X20396233Y-36803226D01*
X20396233Y-36803226D02*
X20429566Y-36869893D01*
X20662900Y-36569893D02*
X20629566Y-36636560D01*
X20629566Y-36636560D02*
X20629566Y-36769893D01*
X20629566Y-36769893D02*
X20662900Y-36836560D01*
X20662900Y-36836560D02*
X20696233Y-36869893D01*
X20696233Y-36869893D02*
X20762900Y-36903226D01*
X20762900Y-36903226D02*
X20962900Y-36903226D01*
X20962900Y-36903226D02*
X21029566Y-36869893D01*
X21029566Y-36869893D02*
X21062900Y-36836560D01*
X21062900Y-36836560D02*
X21096233Y-36769893D01*
X21096233Y-36769893D02*
X21096233Y-36636560D01*
X21096233Y-36636560D02*
X21062900Y-36569893D01*
X19232566Y-37663226D02*
X19565900Y-37896559D01*
X19232566Y-38063226D02*
X19932566Y-38063226D01*
X19932566Y-38063226D02*
X19932566Y-37796559D01*
X19932566Y-37796559D02*
X19899233Y-37729893D01*
X19899233Y-37729893D02*
X19865900Y-37696559D01*
X19865900Y-37696559D02*
X19799233Y-37663226D01*
X19799233Y-37663226D02*
X19699233Y-37663226D01*
X19699233Y-37663226D02*
X19632566Y-37696559D01*
X19632566Y-37696559D02*
X19599233Y-37729893D01*
X19599233Y-37729893D02*
X19565900Y-37796559D01*
X19565900Y-37796559D02*
X19565900Y-38063226D01*
X19232566Y-37429893D02*
X19699233Y-37063226D01*
X19699233Y-37429893D02*
X19232566Y-37063226D01*
X19232566Y-36796559D02*
X19932566Y-36796559D01*
X19932566Y-36796559D02*
X19932566Y-36629892D01*
X19932566Y-36629892D02*
X19899233Y-36529892D01*
X19899233Y-36529892D02*
X19832566Y-36463226D01*
X19832566Y-36463226D02*
X19765900Y-36429892D01*
X19765900Y-36429892D02*
X19632566Y-36396559D01*
X19632566Y-36396559D02*
X19532566Y-36396559D01*
X19532566Y-36396559D02*
X19399233Y-36429892D01*
X19399233Y-36429892D02*
X19332566Y-36463226D01*
X19332566Y-36463226D02*
X19265900Y-36529892D01*
X19265900Y-36529892D02*
X19232566Y-36629892D01*
X19232566Y-36629892D02*
X19232566Y-36796559D01*
X57124066Y-38183055D02*
X57124066Y-38754483D01*
X57124066Y-38754483D02*
X57162161Y-38868769D01*
X57162161Y-38868769D02*
X57238352Y-38944960D01*
X57238352Y-38944960D02*
X57352637Y-38983055D01*
X57352637Y-38983055D02*
X57428828Y-38983055D01*
X56743113Y-38983055D02*
X56743113Y-38183055D01*
X56743113Y-38183055D02*
X56438351Y-38183055D01*
X56438351Y-38183055D02*
X56362161Y-38221150D01*
X56362161Y-38221150D02*
X56324066Y-38259245D01*
X56324066Y-38259245D02*
X56285970Y-38335436D01*
X56285970Y-38335436D02*
X56285970Y-38449721D01*
X56285970Y-38449721D02*
X56324066Y-38525912D01*
X56324066Y-38525912D02*
X56362161Y-38564007D01*
X56362161Y-38564007D02*
X56438351Y-38602102D01*
X56438351Y-38602102D02*
X56743113Y-38602102D01*
X55981209Y-38259245D02*
X55943113Y-38221150D01*
X55943113Y-38221150D02*
X55866923Y-38183055D01*
X55866923Y-38183055D02*
X55676447Y-38183055D01*
X55676447Y-38183055D02*
X55600256Y-38221150D01*
X55600256Y-38221150D02*
X55562161Y-38259245D01*
X55562161Y-38259245D02*
X55524066Y-38335436D01*
X55524066Y-38335436D02*
X55524066Y-38411626D01*
X55524066Y-38411626D02*
X55562161Y-38525912D01*
X55562161Y-38525912D02*
X56019304Y-38983055D01*
X56019304Y-38983055D02*
X55524066Y-38983055D01*
X57139066Y-32976055D02*
X57139066Y-33547483D01*
X57139066Y-33547483D02*
X57177161Y-33661769D01*
X57177161Y-33661769D02*
X57253352Y-33737960D01*
X57253352Y-33737960D02*
X57367637Y-33776055D01*
X57367637Y-33776055D02*
X57443828Y-33776055D01*
X56758113Y-33776055D02*
X56758113Y-32976055D01*
X56758113Y-32976055D02*
X56453351Y-32976055D01*
X56453351Y-32976055D02*
X56377161Y-33014150D01*
X56377161Y-33014150D02*
X56339066Y-33052245D01*
X56339066Y-33052245D02*
X56300970Y-33128436D01*
X56300970Y-33128436D02*
X56300970Y-33242721D01*
X56300970Y-33242721D02*
X56339066Y-33318912D01*
X56339066Y-33318912D02*
X56377161Y-33357007D01*
X56377161Y-33357007D02*
X56453351Y-33395102D01*
X56453351Y-33395102D02*
X56758113Y-33395102D01*
X55539066Y-33776055D02*
X55996209Y-33776055D01*
X55767637Y-33776055D02*
X55767637Y-32976055D01*
X55767637Y-32976055D02*
X55843828Y-33090340D01*
X55843828Y-33090340D02*
X55920018Y-33166531D01*
X55920018Y-33166531D02*
X55996209Y-33204626D01*
X57154066Y-35617655D02*
X57154066Y-36189083D01*
X57154066Y-36189083D02*
X57192161Y-36303369D01*
X57192161Y-36303369D02*
X57268352Y-36379560D01*
X57268352Y-36379560D02*
X57382637Y-36417655D01*
X57382637Y-36417655D02*
X57458828Y-36417655D01*
X56773113Y-36417655D02*
X56773113Y-35617655D01*
X56773113Y-35617655D02*
X56468351Y-35617655D01*
X56468351Y-35617655D02*
X56392161Y-35655750D01*
X56392161Y-35655750D02*
X56354066Y-35693845D01*
X56354066Y-35693845D02*
X56315970Y-35770036D01*
X56315970Y-35770036D02*
X56315970Y-35884321D01*
X56315970Y-35884321D02*
X56354066Y-35960512D01*
X56354066Y-35960512D02*
X56392161Y-35998607D01*
X56392161Y-35998607D02*
X56468351Y-36036702D01*
X56468351Y-36036702D02*
X56773113Y-36036702D01*
X55630256Y-35884321D02*
X55630256Y-36417655D01*
X55820732Y-35579560D02*
X56011209Y-36150988D01*
X56011209Y-36150988D02*
X55515970Y-36150988D01*
X24902475Y-31835855D02*
X24902475Y-31035855D01*
X24902475Y-31035855D02*
X24597713Y-31035855D01*
X24597713Y-31035855D02*
X24521523Y-31073950D01*
X24521523Y-31073950D02*
X24483428Y-31112045D01*
X24483428Y-31112045D02*
X24445332Y-31188236D01*
X24445332Y-31188236D02*
X24445332Y-31302521D01*
X24445332Y-31302521D02*
X24483428Y-31378712D01*
X24483428Y-31378712D02*
X24521523Y-31416807D01*
X24521523Y-31416807D02*
X24597713Y-31454902D01*
X24597713Y-31454902D02*
X24902475Y-31454902D01*
X23683428Y-31835855D02*
X24140571Y-31835855D01*
X23911999Y-31835855D02*
X23911999Y-31035855D01*
X23911999Y-31035855D02*
X23988190Y-31150140D01*
X23988190Y-31150140D02*
X24064380Y-31226331D01*
X24064380Y-31226331D02*
X24140571Y-31264426D01*
X75582475Y-32175855D02*
X75582475Y-31375855D01*
X75582475Y-31375855D02*
X75277713Y-31375855D01*
X75277713Y-31375855D02*
X75201523Y-31413950D01*
X75201523Y-31413950D02*
X75163428Y-31452045D01*
X75163428Y-31452045D02*
X75125332Y-31528236D01*
X75125332Y-31528236D02*
X75125332Y-31642521D01*
X75125332Y-31642521D02*
X75163428Y-31718712D01*
X75163428Y-31718712D02*
X75201523Y-31756807D01*
X75201523Y-31756807D02*
X75277713Y-31794902D01*
X75277713Y-31794902D02*
X75582475Y-31794902D01*
X74439618Y-31642521D02*
X74439618Y-32175855D01*
X74630094Y-31337760D02*
X74820571Y-31909188D01*
X74820571Y-31909188D02*
X74325332Y-31909188D01*
X27482275Y-48889055D02*
X27482275Y-48089055D01*
X27482275Y-48089055D02*
X27177513Y-48089055D01*
X27177513Y-48089055D02*
X27101323Y-48127150D01*
X27101323Y-48127150D02*
X27063228Y-48165245D01*
X27063228Y-48165245D02*
X27025132Y-48241436D01*
X27025132Y-48241436D02*
X27025132Y-48355721D01*
X27025132Y-48355721D02*
X27063228Y-48431912D01*
X27063228Y-48431912D02*
X27101323Y-48470007D01*
X27101323Y-48470007D02*
X27177513Y-48508102D01*
X27177513Y-48508102D02*
X27482275Y-48508102D01*
X26720371Y-48165245D02*
X26682275Y-48127150D01*
X26682275Y-48127150D02*
X26606085Y-48089055D01*
X26606085Y-48089055D02*
X26415609Y-48089055D01*
X26415609Y-48089055D02*
X26339418Y-48127150D01*
X26339418Y-48127150D02*
X26301323Y-48165245D01*
X26301323Y-48165245D02*
X26263228Y-48241436D01*
X26263228Y-48241436D02*
X26263228Y-48317626D01*
X26263228Y-48317626D02*
X26301323Y-48431912D01*
X26301323Y-48431912D02*
X26758466Y-48889055D01*
X26758466Y-48889055D02*
X26263228Y-48889055D01*
X70662275Y-47974655D02*
X70662275Y-47174655D01*
X70662275Y-47174655D02*
X70357513Y-47174655D01*
X70357513Y-47174655D02*
X70281323Y-47212750D01*
X70281323Y-47212750D02*
X70243228Y-47250845D01*
X70243228Y-47250845D02*
X70205132Y-47327036D01*
X70205132Y-47327036D02*
X70205132Y-47441321D01*
X70205132Y-47441321D02*
X70243228Y-47517512D01*
X70243228Y-47517512D02*
X70281323Y-47555607D01*
X70281323Y-47555607D02*
X70357513Y-47593702D01*
X70357513Y-47593702D02*
X70662275Y-47593702D01*
X69481323Y-47174655D02*
X69862275Y-47174655D01*
X69862275Y-47174655D02*
X69900371Y-47555607D01*
X69900371Y-47555607D02*
X69862275Y-47517512D01*
X69862275Y-47517512D02*
X69786085Y-47479417D01*
X69786085Y-47479417D02*
X69595609Y-47479417D01*
X69595609Y-47479417D02*
X69519418Y-47517512D01*
X69519418Y-47517512D02*
X69481323Y-47555607D01*
X69481323Y-47555607D02*
X69443228Y-47631798D01*
X69443228Y-47631798D02*
X69443228Y-47822274D01*
X69443228Y-47822274D02*
X69481323Y-47898464D01*
X69481323Y-47898464D02*
X69519418Y-47936560D01*
X69519418Y-47936560D02*
X69595609Y-47974655D01*
X69595609Y-47974655D02*
X69786085Y-47974655D01*
X69786085Y-47974655D02*
X69862275Y-47936560D01*
X69862275Y-47936560D02*
X69900371Y-47898464D01*
D12*
X58120400Y-38918160D02*
X58120400Y-38318160D01*
X58820400Y-37618160D02*
X60220400Y-37618160D01*
X60220400Y-39618160D02*
X58820400Y-39618160D01*
X60920400Y-38318160D02*
X60920400Y-38918160D01*
X58120400Y-38318160D02*
G75*
G02*
X58820400Y-37618160I699999J1D01*
G01*
X58820400Y-39618160D02*
G75*
G02*
X58120400Y-38918160I-1J699999D01*
G01*
X60220400Y-37618160D02*
G75*
G02*
X60920400Y-38318160I0J-700000D01*
G01*
X60920400Y-38918160D02*
G75*
G02*
X60220400Y-39618160I-700000J0D01*
G01*
X58120400Y-33711160D02*
X58120400Y-33111160D01*
X58820400Y-32411160D02*
X60220400Y-32411160D01*
X60220400Y-34411160D02*
X58820400Y-34411160D01*
X60920400Y-33111160D02*
X60920400Y-33711160D01*
X58120400Y-33111160D02*
G75*
G02*
X58820400Y-32411160I699999J1D01*
G01*
X58820400Y-34411160D02*
G75*
G02*
X58120400Y-33711160I-1J699999D01*
G01*
X60220400Y-32411160D02*
G75*
G02*
X60920400Y-33111160I0J-700000D01*
G01*
X60920400Y-33711160D02*
G75*
G02*
X60220400Y-34411160I-700000J0D01*
G01*
X58120400Y-36352760D02*
X58120400Y-35752760D01*
X58820400Y-35052760D02*
X60220400Y-35052760D01*
X60220400Y-37052760D02*
X58820400Y-37052760D01*
X60920400Y-35752760D02*
X60920400Y-36352760D01*
X58120400Y-35752760D02*
G75*
G02*
X58820400Y-35052760I699999J1D01*
G01*
X58820400Y-37052760D02*
G75*
G02*
X58120400Y-36352760I-1J699999D01*
G01*
X60220400Y-35052760D02*
G75*
G02*
X60920400Y-35752760I0J-700000D01*
G01*
X60920400Y-36352760D02*
G75*
G02*
X60220400Y-37052760I-700000J0D01*
G01*
X23042000Y-28000960D02*
X23042000Y-25400960D01*
X23042000Y-30600960D02*
X23042000Y-29270960D01*
X24372000Y-30600960D02*
X23042000Y-30600960D01*
X25642000Y-28000960D02*
X23042000Y-28000960D01*
X25642000Y-30600960D02*
X25642000Y-28000960D01*
X73962000Y-25400960D02*
X23042000Y-25400960D01*
X73962000Y-30600960D02*
X25642000Y-30600960D01*
X73962000Y-30600960D02*
X73962000Y-25400960D01*
X68762000Y-33140960D02*
X68762000Y-31810960D01*
X70092000Y-33140960D02*
X68762000Y-33140960D01*
X71362000Y-33140960D02*
X71362000Y-30480960D01*
X73962000Y-30480960D02*
X71362000Y-30480960D01*
X73962000Y-33140960D02*
X71362000Y-33140960D01*
X73962000Y-33140960D02*
X73962000Y-30480960D01*
X23102000Y-46669960D02*
X23102000Y-47939960D01*
X23102000Y-47939960D02*
X24372000Y-47939960D01*
X25414929Y-33589960D02*
X25869071Y-33589960D01*
X25414929Y-34349960D02*
X25869071Y-34349960D01*
X25414929Y-36129960D02*
X25869071Y-36129960D01*
X25414929Y-36889960D02*
X25869071Y-36889960D01*
X25414929Y-38669960D02*
X25869071Y-38669960D01*
X25414929Y-39429960D02*
X25869071Y-39429960D01*
X25414929Y-41209960D02*
X25869071Y-41209960D01*
X25414929Y-41969960D02*
X25869071Y-41969960D01*
X25414929Y-43749960D02*
X25869071Y-43749960D01*
X25414929Y-44509960D02*
X25869071Y-44509960D01*
X25482000Y-46289960D02*
X25869071Y-46289960D01*
X25482000Y-47049960D02*
X25869071Y-47049960D01*
X27954929Y-33589960D02*
X28352000Y-33589960D01*
X27954929Y-34349960D02*
X28352000Y-34349960D01*
X27954929Y-36129960D02*
X28352000Y-36129960D01*
X27954929Y-36889960D02*
X28352000Y-36889960D01*
X27954929Y-38669960D02*
X28352000Y-38669960D01*
X27954929Y-39429960D02*
X28352000Y-39429960D01*
X27954929Y-41209960D02*
X28352000Y-41209960D01*
X27954929Y-41969960D02*
X28352000Y-41969960D01*
X27954929Y-43749960D02*
X28352000Y-43749960D01*
X27954929Y-44509960D02*
X28352000Y-44509960D01*
X27954929Y-46289960D02*
X28352000Y-46289960D01*
X27954929Y-47049960D02*
X28352000Y-47049960D01*
X28352000Y-32639960D02*
X31012000Y-32639960D01*
X28352000Y-35239960D02*
X31012000Y-35239960D01*
X28352000Y-37779960D02*
X31012000Y-37779960D01*
X28352000Y-40319960D02*
X31012000Y-40319960D01*
X28352000Y-42859960D02*
X31012000Y-42859960D01*
X28352000Y-45399960D02*
X31012000Y-45399960D01*
X28352000Y-47999960D02*
X28352000Y-32639960D01*
X31012000Y-32639960D02*
X31012000Y-47999960D01*
X31012000Y-34349960D02*
X37012000Y-34349960D01*
X31012000Y-36889960D02*
X37012000Y-36889960D01*
X31012000Y-39429960D02*
X37012000Y-39429960D01*
X31012000Y-41969960D02*
X37012000Y-41969960D01*
X31012000Y-44509960D02*
X37012000Y-44509960D01*
X31012000Y-46389960D02*
X37012000Y-46389960D01*
X31012000Y-46509960D02*
X37012000Y-46509960D01*
X31012000Y-46629960D02*
X37012000Y-46629960D01*
X31012000Y-46749960D02*
X37012000Y-46749960D01*
X31012000Y-46869960D02*
X37012000Y-46869960D01*
X31012000Y-46989960D02*
X37012000Y-46989960D01*
X31012000Y-47049960D02*
X37012000Y-47049960D01*
X31012000Y-47999960D02*
X28352000Y-47999960D01*
X37012000Y-33589960D02*
X31012000Y-33589960D01*
X37012000Y-34349960D02*
X37012000Y-33589960D01*
X37012000Y-36129960D02*
X31012000Y-36129960D01*
X37012000Y-36889960D02*
X37012000Y-36129960D01*
X37012000Y-38669960D02*
X31012000Y-38669960D01*
X37012000Y-39429960D02*
X37012000Y-38669960D01*
X37012000Y-41209960D02*
X31012000Y-41209960D01*
X37012000Y-41969960D02*
X37012000Y-41209960D01*
X37012000Y-43749960D02*
X31012000Y-43749960D01*
X37012000Y-44509960D02*
X37012000Y-43749960D01*
X37012000Y-46289960D02*
X31012000Y-46289960D01*
X37012000Y-47049960D02*
X37012000Y-46289960D01*
X66227200Y-33884560D02*
X71427200Y-33884560D01*
X66227200Y-46704560D02*
X66227200Y-33884560D01*
X66227200Y-46704560D02*
X68827200Y-46704560D01*
X68827200Y-44104560D02*
X71427200Y-44104560D01*
X68827200Y-46704560D02*
X68827200Y-44104560D01*
X70097200Y-46704560D02*
X71427200Y-46704560D01*
X71427200Y-44104560D02*
X71427200Y-33884560D01*
X71427200Y-46704560D02*
X71427200Y-45374560D01*
M02*
