M48
; DRILL file {KiCad 8.0.6} date 2024-11-23T12:10:53+0000
; FORMAT={-:-/ absolute / metric / decimal}
; #@! TF.CreationDate,2024-11-23T12:10:53+00:00
; #@! TF.GenerationSoftware,Kicad,Pcbnew,8.0.6
; #@! TF.FileFunction,MixedPlating,1,2
FMAT,2
METRIC
; #@! TA.AperFunction,Plated,PTH,ViaDrill
T1C0.300
; #@! TA.AperFunction,Plated,PTH,ViaDrill
T2C0.381
; #@! TA.AperFunction,Plated,PTH,ViaDrill
T3C0.400
; #@! TA.AperFunction,Plated,PTH,ComponentDrill
T4C1.000
; #@! TA.AperFunction,NonPlated,NPTH,ComponentDrill
T5C2.700
%
G90
G05
T1
X23.102Y-30.414
X24.349Y-48.931
X24.378Y-32.587
X26.965Y-32.118
X28.263Y-34.63
X29.559Y-44.028
X30.245Y-32.141
X30.306Y-48.647
X30.524Y-36.51
X30.524Y-38.237
X30.575Y-40.726
X31.516Y-47.798
X31.576Y-49.591
X31.591Y-42.022
X31.616Y-34.783
X35.306Y-48.647
X35.502Y-32.141
X41.924Y-31.735
X42.152Y-46.959
X43.043Y-32.413
X43.097Y-48.524
X43.3Y-49.743
X43.422Y-25.41
X43.6Y-46.828
X44.113Y-30.947
X44.334Y-32.36
X45.173Y-31.361
X45.884Y-48.636
X48.38Y-46.391
X48.441Y-48.067
X51.056Y-48.647
X53.446Y-38.57
X53.567Y-35.352
X54.09Y-37.381
X54.603Y-36.231
X54.852Y-34.224
X56.815Y-43.495
X57.397Y-33.437
X57.742Y-38.618
X58.667Y-31.887
X61.393Y-33.505
X61.537Y-38.694
X64.631Y-39.715
X72.51Y-46.67
X72.7Y-39.025
X72.759Y-48.361
X74.256Y-33.962
X78.728Y-34.736
T2
X28.284Y-45.4
X29.231Y-45.4
X42.752Y-43.601
X42.762Y-37.856
X47.552Y-35.201
X47.74Y-31.557
X51.829Y-31.557
X56.428Y-45.436
T3
X17.768Y-32.827
X23.61Y-31.684
X34.98Y-35.612
X35.002Y-45.527
X53.595Y-50.647
X54.852Y-41.717
X54.898Y-44.27
X56.428Y-51.726
X59.805Y-30.922
X62.472Y-34.859
X63.239Y-44.27
T4
X17.646Y-37.247
X17.646Y-39.787
X17.646Y-42.327
X24.372Y-26.731
X24.372Y-29.271
X24.372Y-33.97
X24.372Y-36.51
X24.372Y-39.05
X24.372Y-41.59
X24.372Y-44.13
X24.372Y-46.67
X26.912Y-26.731
X26.912Y-29.271
X26.912Y-33.97
X26.912Y-36.51
X26.912Y-39.05
X26.912Y-41.59
X26.912Y-44.13
X26.912Y-46.67
X29.452Y-26.731
X29.452Y-29.271
X31.992Y-26.731
X31.992Y-29.271
X34.532Y-26.731
X34.532Y-29.271
X37.072Y-26.731
X37.072Y-29.271
X39.612Y-26.731
X39.612Y-29.271
X42.152Y-26.731
X42.152Y-29.271
X44.692Y-26.731
X44.692Y-29.271
X47.232Y-26.731
X47.232Y-29.271
X49.772Y-26.731
X49.772Y-29.271
X52.312Y-26.731
X52.312Y-29.271
X54.852Y-26.731
X54.852Y-29.271
X57.392Y-26.731
X57.392Y-29.271
X59.932Y-26.731
X59.932Y-29.271
X62.472Y-26.731
X62.472Y-29.271
X65.012Y-26.731
X65.012Y-29.271
X67.552Y-26.731
X67.552Y-29.271
X67.557Y-35.215
X67.557Y-37.755
X67.557Y-40.295
X67.557Y-42.835
X67.557Y-45.375
X70.092Y-26.731
X70.092Y-29.271
X70.092Y-31.811
X70.097Y-35.215
X70.097Y-37.755
X70.097Y-40.295
X70.097Y-42.835
X70.097Y-45.375
X72.632Y-26.731
X72.632Y-29.271
X72.632Y-31.811
T5
X19.5Y-28.0
X19.5Y-51.0
X77.5Y-28.0
X77.5Y-51.0
M30
