G04 #@! TF.GenerationSoftware,KiCad,Pcbnew,8.0.6*
G04 #@! TF.CreationDate,2024-11-23T12:10:56+00:00*
G04 #@! TF.ProjectId,rgb-to-hdmi,7267622d-746f-42d6-9864-6d692e6b6963,4 / 01*
G04 #@! TF.SameCoordinates,Original*
G04 #@! TF.FileFunction,Copper,L2,Bot*
G04 #@! TF.FilePolarity,Positive*
%FSLAX46Y46*%
G04 Gerber Fmt 4.6, Leading zero omitted, Abs format (unit mm)*
G04 Created by KiCad (PCBNEW 8.0.6) date 2024-11-23 12:10:56*
%MOMM*%
%LPD*%
G01*
G04 APERTURE LIST*
G04 Aperture macros list*
%AMFreePoly0*
4,1,19,0.500000,-0.750000,0.000000,-0.750000,0.000000,-0.744911,-0.071157,-0.744911,-0.207708,-0.704816,-0.327430,-0.627875,-0.420627,-0.520320,-0.479746,-0.390866,-0.500000,-0.250000,-0.500000,0.250000,-0.479746,0.390866,-0.420627,0.520320,-0.327430,0.627875,-0.207708,0.704816,-0.071157,0.744911,0.000000,0.744911,0.000000,0.750000,0.500000,0.750000,0.500000,-0.750000,0.500000,-0.750000,
$1*%
%AMFreePoly1*
4,1,19,0.000000,0.744911,0.071157,0.744911,0.207708,0.704816,0.327430,0.627875,0.420627,0.520320,0.479746,0.390866,0.500000,0.250000,0.500000,-0.250000,0.479746,-0.390866,0.420627,-0.520320,0.327430,-0.627875,0.207708,-0.704816,0.071157,-0.744911,0.000000,-0.744911,0.000000,-0.750000,-0.500000,-0.750000,-0.500000,0.750000,0.000000,0.750000,0.000000,0.744911,0.000000,0.744911,
$1*%
G04 Aperture macros list end*
G04 #@! TA.AperFunction,EtchedComponent*
%ADD10C,0.000000*%
G04 #@! TD*
G04 #@! TA.AperFunction,ComponentPad*
%ADD11R,1.700000X1.700000*%
G04 #@! TD*
G04 #@! TA.AperFunction,ComponentPad*
%ADD12O,1.700000X1.700000*%
G04 #@! TD*
G04 #@! TA.AperFunction,SMDPad,CuDef*
%ADD13FreePoly0,0.000000*%
G04 #@! TD*
G04 #@! TA.AperFunction,SMDPad,CuDef*
%ADD14FreePoly1,0.000000*%
G04 #@! TD*
G04 #@! TA.AperFunction,ViaPad*
%ADD15C,0.800000*%
G04 #@! TD*
G04 #@! TA.AperFunction,ViaPad*
%ADD16C,0.600000*%
G04 #@! TD*
G04 #@! TA.AperFunction,ViaPad*
%ADD17C,0.762000*%
G04 #@! TD*
G04 #@! TA.AperFunction,Conductor*
%ADD18C,0.250000*%
G04 #@! TD*
G04 #@! TA.AperFunction,Conductor*
%ADD19C,0.500000*%
G04 #@! TD*
G04 #@! TA.AperFunction,Conductor*
%ADD20C,0.750000*%
G04 #@! TD*
G04 APERTURE END LIST*
D10*
G04 #@! TA.AperFunction,EtchedComponent*
G36*
X59770400Y-38918160D02*
G01*
X59270400Y-38918160D01*
X59270400Y-38318160D01*
X59770400Y-38318160D01*
X59770400Y-38918160D01*
G37*
G04 #@! TD.AperFunction*
G04 #@! TA.AperFunction,EtchedComponent*
G36*
X59770400Y-33711160D02*
G01*
X59270400Y-33711160D01*
X59270400Y-33111160D01*
X59770400Y-33111160D01*
X59770400Y-33711160D01*
G37*
G04 #@! TD.AperFunction*
G04 #@! TA.AperFunction,EtchedComponent*
G36*
X59770400Y-36352760D02*
G01*
X59270400Y-36352760D01*
X59270400Y-35752760D01*
X59770400Y-35752760D01*
X59770400Y-36352760D01*
G37*
G04 #@! TD.AperFunction*
D11*
X17646200Y-42326560D03*
D12*
X17646200Y-39786560D03*
X17646200Y-37246560D03*
D13*
X58870400Y-38618160D03*
D14*
X60170400Y-38618160D03*
D13*
X58870400Y-33411160D03*
D14*
X60170400Y-33411160D03*
D13*
X58870400Y-36052760D03*
D14*
X60170400Y-36052760D03*
D11*
X24372000Y-29270960D03*
D12*
X24372000Y-26730960D03*
X26912000Y-29270960D03*
X26912000Y-26730960D03*
X29452000Y-29270960D03*
X29452000Y-26730960D03*
X31992000Y-29270960D03*
X31992000Y-26730960D03*
X34532000Y-29270960D03*
X34532000Y-26730960D03*
X37072000Y-29270960D03*
X37072000Y-26730960D03*
X39612000Y-29270960D03*
X39612000Y-26730960D03*
X42152000Y-29270960D03*
X42152000Y-26730960D03*
X44692000Y-29270960D03*
X44692000Y-26730960D03*
X47232000Y-29270960D03*
X47232000Y-26730960D03*
X49772000Y-29270960D03*
X49772000Y-26730960D03*
X52312000Y-29270960D03*
X52312000Y-26730960D03*
X54852000Y-29270960D03*
X54852000Y-26730960D03*
X57392000Y-29270960D03*
X57392000Y-26730960D03*
X59932000Y-29270960D03*
X59932000Y-26730960D03*
X62472000Y-29270960D03*
X62472000Y-26730960D03*
X65012000Y-29270960D03*
X65012000Y-26730960D03*
X67552000Y-29270960D03*
X67552000Y-26730960D03*
X70092000Y-29270960D03*
X70092000Y-26730960D03*
X72632000Y-29270960D03*
X72632000Y-26730960D03*
D11*
X70092000Y-31810960D03*
D12*
X72632000Y-31810960D03*
D11*
X24372000Y-46669960D03*
D12*
X26912000Y-46669960D03*
X24372000Y-44129960D03*
X26912000Y-44129960D03*
X24372000Y-41589960D03*
X26912000Y-41589960D03*
X24372000Y-39049960D03*
X26912000Y-39049960D03*
X24372000Y-36509960D03*
X26912000Y-36509960D03*
X24372000Y-33969960D03*
X26912000Y-33969960D03*
D11*
X70097200Y-45374560D03*
D12*
X67557200Y-45374560D03*
X70097200Y-42834560D03*
X67557200Y-42834560D03*
X70097200Y-40294560D03*
X67557200Y-40294560D03*
X70097200Y-37754560D03*
X67557200Y-37754560D03*
X70097200Y-35214560D03*
X67557200Y-35214560D03*
D15*
X23610000Y-31683960D03*
D16*
X23102000Y-30413960D03*
X54852000Y-34223960D03*
D15*
X62472000Y-34858960D03*
D16*
X64631000Y-39714558D03*
D17*
X42761600Y-37856160D03*
X47740000Y-31556960D03*
X47552000Y-35200960D03*
X42752000Y-43600960D03*
D15*
X54852000Y-41716960D03*
D17*
X56428000Y-45435960D03*
X51829400Y-31556960D03*
D15*
X56428000Y-51725960D03*
D16*
X72510200Y-46669960D03*
X43300200Y-49743360D03*
X30306000Y-48646960D03*
X35306000Y-48646960D03*
X56815200Y-43494960D03*
X72699800Y-39024560D03*
X45884500Y-48635960D03*
X51056000Y-48646960D03*
X78728000Y-34735960D03*
D15*
X35002000Y-45526960D03*
X54898202Y-44269959D03*
X63239200Y-44269662D03*
X59805000Y-30921960D03*
D17*
X29231020Y-45399960D03*
D15*
X34980200Y-35611960D03*
X53594700Y-50646960D03*
X17768000Y-32826960D03*
D17*
X28283600Y-45399960D03*
D16*
X35502400Y-32141160D03*
X28263398Y-34630360D03*
X48440600Y-48066960D03*
X44334131Y-32359659D03*
X24378229Y-32586571D03*
X61393187Y-33504573D03*
X61537400Y-38694360D03*
X53445684Y-38569873D03*
X43599799Y-46828135D03*
X31576000Y-49590960D03*
X42152000Y-46958827D03*
X31516183Y-47797906D03*
X43096996Y-48524160D03*
X29558802Y-44028360D03*
X30574800Y-40726360D03*
X30524002Y-38237160D03*
X30524000Y-36509962D03*
X45172946Y-31360614D03*
X48380200Y-46390560D03*
X43043230Y-32412940D03*
X24349000Y-48930560D03*
X72759000Y-48360960D03*
X57397200Y-33436560D03*
X57742400Y-38618160D03*
X53567387Y-35352347D03*
X54602800Y-36230960D03*
X58667200Y-31887160D03*
X31590800Y-42021760D03*
X31616200Y-34782760D03*
X74255907Y-33961640D03*
X43422000Y-25410160D03*
X44113000Y-30947360D03*
X41923709Y-31734759D03*
X30244590Y-32141160D03*
X26965400Y-32118360D03*
X54090000Y-37380960D03*
D18*
X63714172Y-39714558D02*
X62125170Y-41303560D01*
D19*
X42981800Y-30981160D02*
X44692000Y-29270960D01*
X26082200Y-30981160D02*
X42981800Y-30981160D01*
X24372000Y-29270960D02*
X26082200Y-30981160D01*
D18*
X22810800Y-48092760D02*
X22810800Y-30705160D01*
X24349000Y-48930560D02*
X23648600Y-48930560D01*
X23648600Y-48930560D02*
X22810800Y-48092760D01*
X22810800Y-30705160D02*
X23102000Y-30413960D01*
X30837200Y-25576160D02*
X31992000Y-26730960D01*
X23217200Y-26252626D02*
X23893666Y-25576160D01*
X23217200Y-29397960D02*
X23217200Y-26252626D01*
X21751536Y-37652960D02*
X22404400Y-37000096D01*
X22404400Y-30210760D02*
X23217200Y-29397960D01*
X22404400Y-37000096D02*
X22404400Y-30210760D01*
X23893666Y-25576160D02*
X30837200Y-25576160D01*
X19779800Y-37652960D02*
X21751536Y-37652960D01*
X17646200Y-39786560D02*
X19779800Y-37652960D01*
X32970800Y-25169760D02*
X34532000Y-26730960D01*
X21998000Y-36831760D02*
X21998000Y-29956760D01*
X22810800Y-29143960D02*
X22810800Y-26084290D01*
X21583200Y-37246560D02*
X21998000Y-36831760D01*
X22810800Y-26084290D02*
X23725330Y-25169760D01*
X17646200Y-37246560D02*
X21583200Y-37246560D01*
X21998000Y-29956760D02*
X22810800Y-29143960D01*
X23725330Y-25169760D02*
X32970800Y-25169760D01*
D19*
X47740000Y-31556960D02*
X51829400Y-31556960D01*
X47009780Y-31556960D02*
X47740000Y-31556960D01*
X44723780Y-29270960D02*
X47009780Y-31556960D01*
D18*
X54142387Y-34933573D02*
X54852000Y-34223960D01*
X54142387Y-35675373D02*
X54142387Y-34933573D01*
X54027800Y-35789960D02*
X54142387Y-35675373D01*
X44443200Y-30617160D02*
X44113000Y-30947360D01*
X45327518Y-30617160D02*
X44443200Y-30617160D01*
X46953128Y-32242770D02*
X45327518Y-30617160D01*
X53917410Y-32242770D02*
X46953128Y-32242770D01*
X56381200Y-34706560D02*
X53917410Y-32242770D01*
X61964000Y-33944560D02*
X61202000Y-34706560D01*
X61202000Y-34706560D02*
X56381200Y-34706560D01*
X67920334Y-33944560D02*
X61964000Y-33944560D01*
X69190334Y-35214560D02*
X67920334Y-33944560D01*
X70097200Y-35214560D02*
X69190334Y-35214560D01*
X63714172Y-39714558D02*
X64631000Y-39714558D01*
D19*
X47359000Y-43596560D02*
X42756400Y-43596560D01*
X42756400Y-43596560D02*
X42752000Y-43600960D01*
X49238600Y-41716960D02*
X47359000Y-43596560D01*
X54979000Y-41716960D02*
X49238600Y-41716960D01*
X47552000Y-35200960D02*
X43802000Y-38950960D01*
X43802000Y-38950960D02*
X42752000Y-38950960D01*
X42752000Y-38950960D02*
X42752000Y-43600960D01*
X56428000Y-51725960D02*
X56428000Y-45435960D01*
X42752000Y-37865760D02*
X42761600Y-37856160D01*
X42752000Y-38950960D02*
X42752000Y-37865760D01*
D18*
X72064800Y-34399554D02*
X72064800Y-46224560D01*
X67552000Y-29270960D02*
X67552000Y-31852018D01*
X72064800Y-46224560D02*
X72510200Y-46669960D01*
X70869439Y-33204193D02*
X72064800Y-34399554D01*
X67552000Y-31852018D02*
X68904175Y-33204193D01*
X68904175Y-33204193D02*
X70869439Y-33204193D01*
X46991928Y-48000960D02*
X47967328Y-47025560D01*
X30306000Y-48646960D02*
X35306000Y-48646960D01*
X47967328Y-47025560D02*
X52591400Y-47025560D01*
X54344000Y-43494960D02*
X56815200Y-43494960D01*
X43300200Y-49743360D02*
X43707864Y-49743360D01*
X45450264Y-48000960D02*
X46991928Y-48000960D01*
X52591400Y-47025560D02*
X53069700Y-46547260D01*
X43707864Y-49743360D02*
X45450264Y-48000960D01*
X53069700Y-44769260D02*
X54344000Y-43494960D01*
X53069700Y-46547260D02*
X53069700Y-44769260D01*
X48135664Y-47431960D02*
X49841000Y-47431960D01*
X70092000Y-29270960D02*
X71341799Y-30520759D01*
X46931664Y-48635960D02*
X48135664Y-47431960D01*
X45884500Y-48635960D02*
X46931664Y-48635960D01*
X72471200Y-38795960D02*
X72699800Y-39024560D01*
X71341799Y-30520759D02*
X71341799Y-33101817D01*
X49841000Y-47431960D02*
X51056000Y-48646960D01*
X71341799Y-33101817D02*
X72471200Y-34231218D01*
X72471200Y-34231218D02*
X72471200Y-38795960D01*
X72632000Y-33812360D02*
X72632000Y-31810960D01*
X78728000Y-34735960D02*
X73555600Y-34735960D01*
X73555600Y-34735960D02*
X72632000Y-33812360D01*
D19*
X40882000Y-28000960D02*
X45962000Y-28000960D01*
X45962000Y-28000960D02*
X47232000Y-26730960D01*
X38342000Y-28000960D02*
X35802000Y-28000960D01*
X35802000Y-28000960D02*
X34532000Y-29270960D01*
X33262000Y-28000960D02*
X30722000Y-28000960D01*
X30722000Y-28000960D02*
X29452000Y-26730960D01*
X53582000Y-28000960D02*
X48502000Y-28000960D01*
X48502000Y-28000960D02*
X47232000Y-26730960D01*
X61202000Y-28000960D02*
X63742000Y-28000960D01*
X63742000Y-28000960D02*
X65012000Y-26730960D01*
X66282000Y-28000960D02*
X71362000Y-28000960D01*
X71362000Y-28000960D02*
X72632000Y-29270960D01*
X58629400Y-28020960D02*
X58635700Y-28027260D01*
X65012000Y-26730960D02*
X66282000Y-28000960D01*
X34532000Y-29270960D02*
X33262000Y-28000960D01*
X58635700Y-28027260D02*
X59932000Y-26730960D01*
X59932000Y-26730960D02*
X61202000Y-28000960D01*
X54898202Y-44269959D02*
X54311463Y-44269959D01*
X53594700Y-44986722D02*
X53594700Y-50646960D01*
X29231020Y-45399960D02*
X25939180Y-45399960D01*
X54852000Y-29270960D02*
X53582000Y-28000960D01*
X54311463Y-44269959D02*
X53594700Y-44986722D01*
D20*
X34980200Y-35611960D02*
X34980200Y-45505160D01*
D19*
X39612000Y-26730960D02*
X40882000Y-28000960D01*
X54852000Y-29270960D02*
X56102000Y-28020960D01*
D20*
X34980200Y-45505160D02*
X35002000Y-45526960D01*
D19*
X24372000Y-44510960D02*
X25050180Y-44510960D01*
X56102000Y-28020960D02*
X58629400Y-28020960D01*
X39612000Y-26730960D02*
X38342000Y-28000960D01*
X25939180Y-45399960D02*
X25050180Y-44510960D01*
X54898202Y-44269959D02*
X63239200Y-44269662D01*
D18*
X28263398Y-34630360D02*
X28263398Y-34249362D01*
X30942200Y-33221560D02*
X32022600Y-32141160D01*
X32022600Y-32141160D02*
X35502400Y-32141160D01*
X29291200Y-33221560D02*
X30942200Y-33221560D01*
X28263398Y-34249362D02*
X29291200Y-33221560D01*
X46871400Y-49270960D02*
X44755000Y-49270960D01*
X25041864Y-35214560D02*
X25549864Y-35722560D01*
X23742200Y-48295560D02*
X23217200Y-47770560D01*
X23615200Y-35214560D02*
X25041864Y-35214560D01*
X23217200Y-47770560D02*
X23217200Y-35612560D01*
X44755000Y-49270960D02*
X42453767Y-51572193D01*
X48380200Y-48066960D02*
X48075400Y-48066960D01*
X42453767Y-51572193D02*
X28544543Y-51572193D01*
X28544543Y-51572193D02*
X25267910Y-48295560D01*
X25549864Y-35722560D02*
X26124600Y-35722560D01*
X25267910Y-48295560D02*
X23742200Y-48295560D01*
X48075400Y-48066960D02*
X46871400Y-49270960D01*
X26124600Y-35722560D02*
X26912000Y-36509960D01*
X23217200Y-35612560D02*
X23615200Y-35214560D01*
X52014532Y-39462510D02*
X52014532Y-33902364D01*
X40839227Y-31506160D02*
X42351207Y-33018140D01*
X43675650Y-33018140D02*
X44334131Y-32359659D01*
X24606818Y-32815160D02*
X30727200Y-32815160D01*
X46448120Y-33461970D02*
X45388164Y-32402014D01*
X45388164Y-32402014D02*
X44376486Y-32402014D01*
X51574138Y-33461970D02*
X46448120Y-33461970D01*
X61956834Y-40897160D02*
X57349592Y-40897160D01*
X64286634Y-38567360D02*
X61956834Y-40897160D01*
X70097200Y-45374560D02*
X68827200Y-44104560D01*
X30727200Y-32815160D02*
X32036200Y-31506160D01*
X68827200Y-44104560D02*
X66795200Y-44104560D01*
X65509264Y-38567360D02*
X64286634Y-38567360D01*
X65996000Y-39054096D02*
X65509264Y-38567360D01*
X52687982Y-40135960D02*
X52014532Y-39462510D01*
X57349592Y-40897160D02*
X56588392Y-40135960D01*
X42351207Y-33018140D02*
X43675650Y-33018140D01*
X32036200Y-31506160D02*
X40839227Y-31506160D01*
X56588392Y-40135960D02*
X52687982Y-40135960D01*
X24378229Y-32586571D02*
X24606818Y-32815160D01*
X44376486Y-32402014D02*
X44334131Y-32359659D01*
X52014532Y-33902364D02*
X51574138Y-33461970D01*
X66795200Y-44104560D02*
X65996000Y-43305360D01*
X65996000Y-43305360D02*
X65996000Y-39054096D01*
X61393187Y-33504573D02*
X60263813Y-33504573D01*
X61461200Y-38618160D02*
X61537400Y-38694360D01*
X60170400Y-38618160D02*
X61461200Y-38618160D01*
X61308800Y-36052760D02*
X60170400Y-36052760D01*
X62172401Y-38957385D02*
X62172401Y-36916361D01*
X57112600Y-38935960D02*
X57854600Y-39677960D01*
X57854600Y-39677960D02*
X61451826Y-39677960D01*
X62172401Y-36916361D02*
X61308800Y-36052760D01*
X53445684Y-38569873D02*
X53811771Y-38935960D01*
X61451826Y-39677960D02*
X62172401Y-38957385D01*
X53811771Y-38935960D02*
X57112600Y-38935960D01*
X42253611Y-48174323D02*
X42253611Y-49924400D01*
X29750205Y-43279961D02*
X29113399Y-43279961D01*
X29671000Y-48946382D02*
X29671000Y-47635311D01*
X29113399Y-43279961D02*
X28263400Y-44129960D01*
X43599799Y-46828135D02*
X42253611Y-48174323D01*
X31484000Y-50759382D02*
X29671000Y-48946382D01*
X29671000Y-47635311D02*
X30490871Y-46815440D01*
X41418640Y-50759371D02*
X31484011Y-50759371D01*
X30490871Y-44020627D02*
X29750205Y-43279961D01*
X31484011Y-50759371D02*
X31484000Y-50759382D01*
X42253611Y-49924400D02*
X41418640Y-50759371D01*
X28263400Y-44129960D02*
X26912000Y-44129960D01*
X32338044Y-50352960D02*
X32338022Y-50352982D01*
X24372000Y-41589960D02*
X25655591Y-42873551D01*
X32338022Y-50352982D02*
X31576000Y-49590960D01*
X30897271Y-43852277D02*
X30897271Y-47178994D01*
X41250300Y-50352960D02*
X32338044Y-50352960D01*
X42152000Y-46958827D02*
X41847211Y-47263616D01*
X30897271Y-47178994D02*
X31516183Y-47797906D01*
X41847211Y-49756049D02*
X41250300Y-50352960D01*
X41847211Y-47263616D02*
X41847211Y-49756049D01*
X29918545Y-42873551D02*
X30897271Y-43852277D01*
X25655591Y-42873551D02*
X29918545Y-42873551D01*
X41586980Y-51165782D02*
X42660022Y-50092740D01*
X29264600Y-47411080D02*
X29264600Y-49200382D01*
X30084460Y-46591220D02*
X29264600Y-47411080D01*
X42660022Y-50092740D02*
X42660022Y-48961134D01*
X30084460Y-44554018D02*
X30084460Y-46591220D01*
X31230000Y-51165782D02*
X41586980Y-51165782D01*
X29264600Y-49200382D02*
X31230000Y-51165782D01*
X42660022Y-48961134D02*
X43096996Y-48524160D01*
X29558802Y-44028360D02*
X30084460Y-44554018D01*
X25642000Y-40319960D02*
X29701427Y-40319960D01*
X29701427Y-40319960D02*
X30107827Y-40726360D01*
X24372000Y-39049960D02*
X25642000Y-40319960D01*
X30107827Y-40726360D02*
X30574800Y-40726360D01*
X30057029Y-38237160D02*
X30524002Y-38237160D01*
X25667400Y-37805360D02*
X29625229Y-37805360D01*
X24372000Y-36509960D02*
X25667400Y-37805360D01*
X29625229Y-37805360D02*
X30057029Y-38237160D01*
X24372000Y-33969960D02*
X25667400Y-35265360D01*
X29279398Y-35265360D02*
X30524000Y-36509962D01*
X25667400Y-35265360D02*
X29279398Y-35265360D01*
X61620162Y-40084360D02*
X57686264Y-40084360D01*
X52832839Y-33571199D02*
X51910810Y-32649170D01*
X67557200Y-37754560D02*
X63949962Y-37754560D01*
X56937864Y-39335960D02*
X53372839Y-39335960D01*
X57686264Y-40084360D02*
X56937864Y-39335960D01*
X45438582Y-31302960D02*
X45230600Y-31302960D01*
X45230600Y-31302960D02*
X45172946Y-31360614D01*
X53372839Y-39335960D02*
X52832839Y-38795960D01*
X51910810Y-32649170D02*
X46784792Y-32649170D01*
X46784792Y-32649170D02*
X45438582Y-31302960D01*
X63949962Y-37754560D02*
X61620162Y-40084360D01*
X52832839Y-38795960D02*
X52832839Y-33571199D01*
X48380200Y-46421160D02*
X48578200Y-46619160D01*
X48380200Y-46390560D02*
X48380200Y-46421160D01*
X48578200Y-46619160D02*
X52235800Y-46619160D01*
X52669700Y-46185260D02*
X52669700Y-44603574D01*
X57792702Y-41303560D02*
X62125170Y-41303560D01*
X54178314Y-43094960D02*
X52669700Y-44603574D01*
X52235800Y-46619160D02*
X52669700Y-46185260D01*
X56001302Y-43094960D02*
X54178314Y-43094960D01*
X56001302Y-43094960D02*
X57792702Y-41303560D01*
X51742474Y-33055570D02*
X46616456Y-33055570D01*
X45539923Y-31979037D02*
X45523346Y-31995614D01*
X44505672Y-31633159D02*
X44001937Y-31633159D01*
X52420932Y-33734028D02*
X51742474Y-33055570D01*
X44001937Y-31633159D02*
X43222156Y-32412940D01*
X52420932Y-39303224D02*
X52420932Y-33734028D01*
X67557200Y-42834560D02*
X66402400Y-41679760D01*
X44868126Y-31995614D02*
X44505672Y-31633159D01*
X45523346Y-31995614D02*
X44868126Y-31995614D01*
X52853668Y-39735960D02*
X52420932Y-39303224D01*
X43222156Y-32412940D02*
X43043230Y-32412940D01*
X65677600Y-38160960D02*
X64118298Y-38160960D01*
X46616456Y-33055570D02*
X45539923Y-31979037D01*
X66402400Y-38885760D02*
X65677600Y-38160960D01*
X64118298Y-38160960D02*
X61788498Y-40490760D01*
X57517928Y-40490760D02*
X56763128Y-39735960D01*
X66402400Y-41679760D02*
X66402400Y-38885760D01*
X56763128Y-39735960D02*
X52853668Y-39735960D01*
X61788498Y-40490760D02*
X57517928Y-40490760D01*
X69734066Y-44104560D02*
X71136800Y-44104560D01*
X67557200Y-35214560D02*
X68827200Y-36484560D01*
X71136800Y-44104560D02*
X71570400Y-44538160D01*
X71570400Y-47254160D02*
X72759000Y-48442760D01*
X68827200Y-43197694D02*
X69734066Y-44104560D01*
X71570400Y-44538160D02*
X71570400Y-47254160D01*
X68827200Y-36484560D02*
X68827200Y-43197694D01*
X68567503Y-34016993D02*
X70532767Y-34016993D01*
X57422600Y-33411160D02*
X57397200Y-33436560D01*
X57392000Y-33431360D02*
X57397200Y-33436560D01*
X68088670Y-33538160D02*
X68567503Y-34016993D01*
X57392000Y-29270960D02*
X57392000Y-33431360D01*
X71252000Y-36599760D02*
X70097200Y-37754560D01*
X61080200Y-32293560D02*
X62324800Y-33538160D01*
X59599875Y-32293560D02*
X61080200Y-32293560D01*
X62324800Y-33538160D02*
X68088670Y-33538160D01*
X71252000Y-34736226D02*
X71252000Y-36599760D01*
X58870400Y-33023035D02*
X59599875Y-32293560D01*
X70532767Y-34016993D02*
X71252000Y-34736226D01*
X58870400Y-33411160D02*
X57422600Y-33411160D01*
X54376239Y-38535960D02*
X53239239Y-37398960D01*
X57742400Y-38618160D02*
X57660200Y-38535960D01*
X53239239Y-37398960D02*
X53239239Y-35680495D01*
X57742400Y-38618160D02*
X57956000Y-38618160D01*
X57660200Y-38535960D02*
X54376239Y-38535960D01*
X53239239Y-35680495D02*
X53567387Y-35352347D01*
X57956000Y-38618160D02*
X58921200Y-38618160D01*
X70097200Y-40294560D02*
X71658400Y-38733360D01*
X70701103Y-33610593D02*
X68735839Y-33610593D01*
X62493136Y-33131760D02*
X61248536Y-31887160D01*
X58870400Y-36052760D02*
X54781000Y-36052760D01*
X54781000Y-36052760D02*
X54602800Y-36230960D01*
X68257006Y-33131760D02*
X62493136Y-33131760D01*
X68735839Y-33610593D02*
X68257006Y-33131760D01*
X58667200Y-31887160D02*
X61248536Y-31887160D01*
X71658400Y-38733360D02*
X71658400Y-34567890D01*
X71658400Y-34567890D02*
X70701103Y-33610593D01*
X31687200Y-42021760D02*
X32754000Y-40954960D01*
X32754000Y-35920560D02*
X31616200Y-34782760D01*
X32754000Y-40954960D02*
X32754000Y-35920560D01*
X31590800Y-42021760D02*
X31687200Y-42021760D01*
X73975781Y-33681514D02*
X74255907Y-33961640D01*
X73317800Y-25410160D02*
X73975781Y-26068141D01*
X43422000Y-25410160D02*
X73317800Y-25410160D01*
X73975781Y-26068141D02*
X73975781Y-33681514D01*
X42152308Y-31506160D02*
X43554200Y-31506160D01*
X43554200Y-31506160D02*
X44113000Y-30947360D01*
X41923709Y-31734759D02*
X42152308Y-31506160D01*
X30221790Y-32118360D02*
X30244590Y-32141160D01*
X54027800Y-37318760D02*
X54090000Y-37380960D01*
X54027800Y-35789960D02*
X54027800Y-37318760D01*
X30490871Y-46815440D02*
X30490871Y-44020627D01*
X26965400Y-32118360D02*
X30221790Y-32118360D01*
G04 #@! TA.AperFunction,Conductor*
G36*
X78003472Y-24700695D02*
G01*
X78306503Y-24717713D01*
X78320301Y-24719267D01*
X78616080Y-24769522D01*
X78629634Y-24772615D01*
X78761674Y-24810656D01*
X78917927Y-24855672D01*
X78931051Y-24860265D01*
X79208222Y-24975072D01*
X79220744Y-24981101D01*
X79347317Y-25051056D01*
X79483328Y-25126227D01*
X79495102Y-25133625D01*
X79739789Y-25307239D01*
X79750657Y-25315907D01*
X79974352Y-25515815D01*
X79984184Y-25525647D01*
X80114367Y-25671320D01*
X80173968Y-25738014D01*
X80184092Y-25749342D01*
X80192762Y-25760213D01*
X80213656Y-25789660D01*
X80366374Y-26004897D01*
X80373772Y-26016671D01*
X80518894Y-26279248D01*
X80524927Y-26291777D01*
X80639734Y-26568948D01*
X80644327Y-26582072D01*
X80727383Y-26870363D01*
X80730477Y-26883920D01*
X80780730Y-27179688D01*
X80782287Y-27193506D01*
X80799305Y-27496527D01*
X80799500Y-27503480D01*
X80799500Y-51496519D01*
X80799305Y-51503472D01*
X80782287Y-51806493D01*
X80780730Y-51820311D01*
X80730477Y-52116079D01*
X80727383Y-52129636D01*
X80644327Y-52417927D01*
X80639734Y-52431051D01*
X80524927Y-52708222D01*
X80518894Y-52720751D01*
X80373772Y-52983328D01*
X80366374Y-52995102D01*
X80192763Y-53239785D01*
X80184092Y-53250657D01*
X79984184Y-53474352D01*
X79974352Y-53484184D01*
X79750657Y-53684092D01*
X79739785Y-53692763D01*
X79495102Y-53866374D01*
X79483328Y-53873772D01*
X79220751Y-54018894D01*
X79208222Y-54024927D01*
X78931051Y-54139734D01*
X78917927Y-54144327D01*
X78629636Y-54227383D01*
X78616079Y-54230477D01*
X78320311Y-54280730D01*
X78306493Y-54282287D01*
X78003472Y-54299305D01*
X77996519Y-54299500D01*
X19003481Y-54299500D01*
X18996528Y-54299305D01*
X18693506Y-54282287D01*
X18679688Y-54280730D01*
X18383920Y-54230477D01*
X18370363Y-54227383D01*
X18082072Y-54144327D01*
X18068948Y-54139734D01*
X17791777Y-54024927D01*
X17779248Y-54018894D01*
X17516671Y-53873772D01*
X17504897Y-53866374D01*
X17260214Y-53692763D01*
X17249342Y-53684092D01*
X17025647Y-53484184D01*
X17015815Y-53474352D01*
X16815907Y-53250657D01*
X16807236Y-53239785D01*
X16633625Y-52995102D01*
X16626227Y-52983328D01*
X16592986Y-52923184D01*
X16481101Y-52720744D01*
X16475072Y-52708222D01*
X16360265Y-52431051D01*
X16355672Y-52417927D01*
X16282276Y-52163165D01*
X16272615Y-52129634D01*
X16269522Y-52116079D01*
X16241592Y-51951693D01*
X16219267Y-51820301D01*
X16217713Y-51806503D01*
X16200695Y-51503472D01*
X16200500Y-51496519D01*
X16200500Y-50853952D01*
X16899500Y-50853952D01*
X16899500Y-51146047D01*
X16932199Y-51436271D01*
X16932202Y-51436285D01*
X16997196Y-51721044D01*
X16997197Y-51721046D01*
X17093665Y-51996738D01*
X17220393Y-52259890D01*
X17225840Y-52268559D01*
X17375792Y-52507206D01*
X17557902Y-52735565D01*
X17764435Y-52942098D01*
X17992794Y-53124208D01*
X18240107Y-53279605D01*
X18503263Y-53406335D01*
X18778955Y-53502803D01*
X19063714Y-53567798D01*
X19063723Y-53567799D01*
X19063728Y-53567800D01*
X19257210Y-53589599D01*
X19353953Y-53600499D01*
X19353956Y-53600500D01*
X19353959Y-53600500D01*
X19646044Y-53600500D01*
X19646045Y-53600499D01*
X19794371Y-53583787D01*
X19936271Y-53567800D01*
X19936274Y-53567799D01*
X19936286Y-53567798D01*
X20221045Y-53502803D01*
X20496737Y-53406335D01*
X20759893Y-53279605D01*
X21007206Y-53124208D01*
X21235565Y-52942098D01*
X21442098Y-52735565D01*
X21624208Y-52507206D01*
X21779605Y-52259893D01*
X21906335Y-51996737D01*
X22002803Y-51721045D01*
X22067798Y-51436286D01*
X22069683Y-51419562D01*
X22086978Y-51266058D01*
X22100500Y-51146041D01*
X22100500Y-50853959D01*
X22067798Y-50563714D01*
X22002803Y-50278955D01*
X21906335Y-50003263D01*
X21779605Y-49740107D01*
X21624208Y-49492794D01*
X21442098Y-49264435D01*
X21235565Y-49057902D01*
X21228269Y-49052084D01*
X21173636Y-49008515D01*
X21007206Y-48875792D01*
X20759893Y-48720395D01*
X20759890Y-48720393D01*
X20496738Y-48593665D01*
X20221046Y-48497197D01*
X20221044Y-48497196D01*
X20001280Y-48447036D01*
X19936286Y-48432202D01*
X19936283Y-48432201D01*
X19936271Y-48432199D01*
X19646047Y-48399500D01*
X19646041Y-48399500D01*
X19353959Y-48399500D01*
X19353952Y-48399500D01*
X19063728Y-48432199D01*
X19063714Y-48432202D01*
X18778955Y-48497196D01*
X18778953Y-48497197D01*
X18503261Y-48593665D01*
X18240109Y-48720393D01*
X17992795Y-48875791D01*
X17764435Y-49057901D01*
X17557901Y-49264435D01*
X17375791Y-49492795D01*
X17220393Y-49740109D01*
X17093665Y-50003261D01*
X16997197Y-50278953D01*
X16997196Y-50278955D01*
X16932202Y-50563714D01*
X16932199Y-50563728D01*
X16899500Y-50853952D01*
X16200500Y-50853952D01*
X16200500Y-43587695D01*
X16220185Y-43520656D01*
X16272989Y-43474901D01*
X16342147Y-43464957D01*
X16405703Y-43493982D01*
X16423768Y-43513385D01*
X16439014Y-43533751D01*
X16554106Y-43619910D01*
X16554113Y-43619914D01*
X16688820Y-43670156D01*
X16688827Y-43670158D01*
X16748355Y-43676559D01*
X16748372Y-43676560D01*
X17396200Y-43676560D01*
X17396200Y-42759572D01*
X17453207Y-42792485D01*
X17580374Y-42826560D01*
X17712026Y-42826560D01*
X17839193Y-42792485D01*
X17896200Y-42759572D01*
X17896200Y-43676560D01*
X18544028Y-43676560D01*
X18544044Y-43676559D01*
X18603572Y-43670158D01*
X18603579Y-43670156D01*
X18738286Y-43619914D01*
X18738293Y-43619910D01*
X18853387Y-43533750D01*
X18853390Y-43533747D01*
X18939550Y-43418653D01*
X18939554Y-43418646D01*
X18989796Y-43283939D01*
X18989798Y-43283932D01*
X18996199Y-43224404D01*
X18996200Y-43224387D01*
X18996200Y-42576560D01*
X18079212Y-42576560D01*
X18112125Y-42519553D01*
X18146200Y-42392386D01*
X18146200Y-42260734D01*
X18112125Y-42133567D01*
X18079212Y-42076560D01*
X18996200Y-42076560D01*
X18996200Y-41428732D01*
X18996199Y-41428715D01*
X18989798Y-41369187D01*
X18989796Y-41369180D01*
X18939554Y-41234473D01*
X18939550Y-41234466D01*
X18853390Y-41119372D01*
X18853387Y-41119369D01*
X18738293Y-41033209D01*
X18738286Y-41033205D01*
X18603579Y-40982963D01*
X18603572Y-40982961D01*
X18544044Y-40976560D01*
X18258185Y-40976560D01*
X18191146Y-40956875D01*
X18145391Y-40904071D01*
X18135447Y-40834913D01*
X18164472Y-40771357D01*
X18192908Y-40747133D01*
X18314660Y-40671747D01*
X18314659Y-40671747D01*
X18314662Y-40671746D01*
X18449706Y-40548637D01*
X18465930Y-40533847D01*
X18465932Y-40533845D01*
X18589288Y-40370495D01*
X18680528Y-40187261D01*
X18736545Y-39990381D01*
X18755432Y-39786560D01*
X18736545Y-39582739D01*
X18680528Y-39385859D01*
X18680525Y-39385854D01*
X18678998Y-39380485D01*
X18679584Y-39310617D01*
X18710581Y-39258871D01*
X19900675Y-38068779D01*
X19961998Y-38035294D01*
X19988356Y-38032460D01*
X21693962Y-38032460D01*
X21693978Y-38032461D01*
X21701574Y-38032461D01*
X21801496Y-38032461D01*
X21801498Y-38032461D01*
X21887702Y-38009362D01*
X21887702Y-38009363D01*
X21887707Y-38009360D01*
X21898018Y-38006598D01*
X21984555Y-37956636D01*
X22055212Y-37885979D01*
X22055212Y-37885977D01*
X22065413Y-37875777D01*
X22065416Y-37875772D01*
X22219622Y-37721567D01*
X22280942Y-37688085D01*
X22350634Y-37693069D01*
X22406567Y-37734941D01*
X22430984Y-37800405D01*
X22431300Y-37809251D01*
X22431300Y-48035185D01*
X22431299Y-48035203D01*
X22431299Y-48142724D01*
X22448642Y-48207445D01*
X22448642Y-48207447D01*
X22448643Y-48207447D01*
X22448643Y-48207448D01*
X22450990Y-48216206D01*
X22457162Y-48239243D01*
X22457163Y-48239244D01*
X22507121Y-48325775D01*
X22507125Y-48325780D01*
X22584846Y-48403501D01*
X22584852Y-48403506D01*
X23340583Y-49159237D01*
X23340593Y-49159248D01*
X23344923Y-49163578D01*
X23344924Y-49163579D01*
X23415581Y-49234236D01*
X23502118Y-49284198D01*
X23513636Y-49287284D01*
X23513638Y-49287285D01*
X23513639Y-49287285D01*
X23598638Y-49310061D01*
X23598640Y-49310061D01*
X23706158Y-49310061D01*
X23706174Y-49310060D01*
X23890615Y-49310060D01*
X23957654Y-49329745D01*
X23966101Y-49335684D01*
X24045678Y-49396745D01*
X24069357Y-49414915D01*
X24069359Y-49414915D01*
X24069361Y-49414917D01*
X24113976Y-49433397D01*
X24204246Y-49470788D01*
X24276623Y-49480316D01*
X24348999Y-49489845D01*
X24349000Y-49489845D01*
X24349001Y-49489845D01*
X24397251Y-49483492D01*
X24493754Y-49470788D01*
X24628643Y-49414915D01*
X24744474Y-49326034D01*
X24833355Y-49210203D01*
X24889228Y-49075314D01*
X24908285Y-48930560D01*
X24907764Y-48926603D01*
X24893104Y-48815245D01*
X24903870Y-48746210D01*
X24950250Y-48693954D01*
X25016043Y-48675060D01*
X25059354Y-48675060D01*
X25126393Y-48694745D01*
X25147035Y-48711379D01*
X28236526Y-51800870D01*
X28236536Y-51800881D01*
X28240866Y-51805211D01*
X28240867Y-51805212D01*
X28311524Y-51875869D01*
X28398061Y-51925831D01*
X28398060Y-51925831D01*
X28407340Y-51928317D01*
X28418458Y-51931296D01*
X28494581Y-51951694D01*
X28494582Y-51951694D01*
X28602101Y-51951694D01*
X28602117Y-51951693D01*
X42396193Y-51951693D01*
X42396209Y-51951694D01*
X42403805Y-51951694D01*
X42503728Y-51951694D01*
X42503729Y-51951694D01*
X42579847Y-51931297D01*
X42579849Y-51931297D01*
X42592782Y-51927831D01*
X42600249Y-51925831D01*
X42686786Y-51875869D01*
X42757443Y-51805212D01*
X42757443Y-51805210D01*
X42767647Y-51795007D01*
X42767650Y-51795002D01*
X42836693Y-51725959D01*
X55768693Y-51725959D01*
X55768693Y-51725960D01*
X55787850Y-51883741D01*
X55813622Y-51951694D01*
X55844213Y-52032355D01*
X55934502Y-52163161D01*
X55934504Y-52163163D01*
X55934506Y-52163165D01*
X56053469Y-52268558D01*
X56053471Y-52268559D01*
X56194207Y-52342423D01*
X56271368Y-52361441D01*
X56348528Y-52380460D01*
X56348529Y-52380460D01*
X56507472Y-52380460D01*
X56558911Y-52367781D01*
X56661793Y-52342423D01*
X56802529Y-52268559D01*
X56921498Y-52163161D01*
X57011787Y-52032355D01*
X57068149Y-51883742D01*
X57087307Y-51725960D01*
X57068149Y-51568178D01*
X57011787Y-51419565D01*
X56954450Y-51336498D01*
X56932567Y-51270144D01*
X56932500Y-51266058D01*
X56932500Y-50853952D01*
X74899500Y-50853952D01*
X74899500Y-51146047D01*
X74932199Y-51436271D01*
X74932202Y-51436285D01*
X74997196Y-51721044D01*
X74997197Y-51721046D01*
X75093665Y-51996738D01*
X75220393Y-52259890D01*
X75225840Y-52268559D01*
X75375792Y-52507206D01*
X75557902Y-52735565D01*
X75764435Y-52942098D01*
X75992794Y-53124208D01*
X76240107Y-53279605D01*
X76503263Y-53406335D01*
X76778955Y-53502803D01*
X77063714Y-53567798D01*
X77063723Y-53567799D01*
X77063728Y-53567800D01*
X77257210Y-53589599D01*
X77353953Y-53600499D01*
X77353956Y-53600500D01*
X77353959Y-53600500D01*
X77646044Y-53600500D01*
X77646045Y-53600499D01*
X77794371Y-53583787D01*
X77936271Y-53567800D01*
X77936274Y-53567799D01*
X77936286Y-53567798D01*
X78221045Y-53502803D01*
X78496737Y-53406335D01*
X78759893Y-53279605D01*
X79007206Y-53124208D01*
X79235565Y-52942098D01*
X79442098Y-52735565D01*
X79624208Y-52507206D01*
X79779605Y-52259893D01*
X79906335Y-51996737D01*
X80002803Y-51721045D01*
X80067798Y-51436286D01*
X80069683Y-51419562D01*
X80086978Y-51266058D01*
X80100500Y-51146041D01*
X80100500Y-50853959D01*
X80067798Y-50563714D01*
X80002803Y-50278955D01*
X79906335Y-50003263D01*
X79779605Y-49740107D01*
X79624208Y-49492794D01*
X79442098Y-49264435D01*
X79235565Y-49057902D01*
X79228269Y-49052084D01*
X79173636Y-49008515D01*
X79007206Y-48875792D01*
X78759893Y-48720395D01*
X78759890Y-48720393D01*
X78496738Y-48593665D01*
X78221046Y-48497197D01*
X78221044Y-48497196D01*
X78001280Y-48447036D01*
X77936286Y-48432202D01*
X77936283Y-48432201D01*
X77936271Y-48432199D01*
X77646047Y-48399500D01*
X77646041Y-48399500D01*
X77353959Y-48399500D01*
X77353952Y-48399500D01*
X77063728Y-48432199D01*
X77063714Y-48432202D01*
X76778955Y-48497196D01*
X76778953Y-48497197D01*
X76503261Y-48593665D01*
X76240109Y-48720393D01*
X75992795Y-48875791D01*
X75764435Y-49057901D01*
X75557901Y-49264435D01*
X75375791Y-49492795D01*
X75220393Y-49740109D01*
X75093665Y-50003261D01*
X74997197Y-50278953D01*
X74997196Y-50278955D01*
X74932202Y-50563714D01*
X74932199Y-50563728D01*
X74899500Y-50853952D01*
X56932500Y-50853952D01*
X56932500Y-45862417D01*
X56952185Y-45795378D01*
X56954450Y-45791977D01*
X56994840Y-45733462D01*
X56994841Y-45733461D01*
X57049566Y-45589162D01*
X57068168Y-45435960D01*
X57049566Y-45282758D01*
X56994841Y-45138459D01*
X56907173Y-45011450D01*
X56869208Y-44977816D01*
X56791658Y-44909112D01*
X56655005Y-44837392D01*
X56505164Y-44800460D01*
X56350836Y-44800460D01*
X56200994Y-44837392D01*
X56064341Y-44909112D01*
X55948828Y-45011448D01*
X55861160Y-45138457D01*
X55861159Y-45138458D01*
X55806433Y-45282757D01*
X55787832Y-45435959D01*
X55787832Y-45435960D01*
X55806433Y-45589162D01*
X55861159Y-45733461D01*
X55861159Y-45733462D01*
X55901550Y-45791977D01*
X55923433Y-45858331D01*
X55923500Y-45862417D01*
X55923500Y-51266058D01*
X55903815Y-51333097D01*
X55901550Y-51336498D01*
X55844214Y-51419562D01*
X55787850Y-51568178D01*
X55768693Y-51725959D01*
X42836693Y-51725959D01*
X44875875Y-49686779D01*
X44937198Y-49653294D01*
X44963556Y-49650460D01*
X46813826Y-49650460D01*
X46813842Y-49650461D01*
X46821438Y-49650461D01*
X46921361Y-49650461D01*
X46921362Y-49650461D01*
X46997480Y-49630064D01*
X46997482Y-49630064D01*
X47010415Y-49626598D01*
X47017882Y-49624598D01*
X47104419Y-49574636D01*
X47175076Y-49503979D01*
X47175076Y-49503977D01*
X47185280Y-49493774D01*
X47185284Y-49493769D01*
X48078882Y-48600170D01*
X48140203Y-48566687D01*
X48209895Y-48571671D01*
X48214013Y-48573292D01*
X48257197Y-48591179D01*
X48295846Y-48607188D01*
X48368223Y-48616716D01*
X48440599Y-48626245D01*
X48440600Y-48626245D01*
X48440601Y-48626245D01*
X48488851Y-48619892D01*
X48585354Y-48607188D01*
X48720243Y-48551315D01*
X48836074Y-48462434D01*
X48924955Y-48346603D01*
X48980828Y-48211714D01*
X48999885Y-48066960D01*
X48999885Y-48066958D01*
X48984704Y-47951645D01*
X48995470Y-47882610D01*
X49041850Y-47830354D01*
X49107643Y-47811460D01*
X49632444Y-47811460D01*
X49699483Y-47831145D01*
X49720125Y-47847779D01*
X50463525Y-48591179D01*
X50497010Y-48652502D01*
X50498783Y-48662674D01*
X50515772Y-48791712D01*
X50515773Y-48791717D01*
X50571642Y-48926598D01*
X50571645Y-48926604D01*
X50660525Y-49042433D01*
X50660526Y-49042434D01*
X50776355Y-49131314D01*
X50776361Y-49131317D01*
X50822471Y-49150416D01*
X50911246Y-49187188D01*
X50974276Y-49195486D01*
X51055999Y-49206245D01*
X51056000Y-49206245D01*
X51056001Y-49206245D01*
X51120967Y-49197692D01*
X51200754Y-49187188D01*
X51335643Y-49131315D01*
X51451474Y-49042434D01*
X51540355Y-48926603D01*
X51596228Y-48791714D01*
X51613622Y-48659591D01*
X51615285Y-48646961D01*
X51615285Y-48646958D01*
X51596690Y-48505714D01*
X51596228Y-48502206D01*
X51540355Y-48367318D01*
X51451474Y-48251486D01*
X51335643Y-48162605D01*
X51335640Y-48162604D01*
X51335638Y-48162602D01*
X51200757Y-48106733D01*
X51200755Y-48106732D01*
X51200754Y-48106732D01*
X51167642Y-48102372D01*
X51071714Y-48089743D01*
X51007818Y-48061476D01*
X51000219Y-48054485D01*
X50562475Y-47616741D01*
X50528990Y-47555418D01*
X50533974Y-47485726D01*
X50575846Y-47429793D01*
X50641310Y-47405376D01*
X50650156Y-47405060D01*
X52533826Y-47405060D01*
X52533842Y-47405061D01*
X52541438Y-47405061D01*
X52641360Y-47405061D01*
X52641362Y-47405061D01*
X52727432Y-47381998D01*
X52737882Y-47379198D01*
X52824419Y-47329236D01*
X52895076Y-47258579D01*
X52895076Y-47258577D01*
X52905280Y-47248374D01*
X52905284Y-47248369D01*
X53292509Y-46861144D01*
X53292514Y-46861140D01*
X53302717Y-46850936D01*
X53302719Y-46850936D01*
X53373376Y-46780279D01*
X53423338Y-46693742D01*
X53449200Y-46597222D01*
X53449200Y-44977816D01*
X53468885Y-44910777D01*
X53485519Y-44890135D01*
X54464875Y-43910779D01*
X54526198Y-43877294D01*
X54552556Y-43874460D01*
X56356815Y-43874460D01*
X56423854Y-43894145D01*
X56432301Y-43900084D01*
X56480368Y-43936967D01*
X56535557Y-43979315D01*
X56535559Y-43979315D01*
X56535561Y-43979317D01*
X56603001Y-44007251D01*
X56670446Y-44035188D01*
X56742823Y-44044716D01*
X56815199Y-44054245D01*
X56815200Y-44054245D01*
X56815201Y-44054245D01*
X56863451Y-44047892D01*
X56959954Y-44035188D01*
X57094843Y-43979315D01*
X57210674Y-43890434D01*
X57299555Y-43774603D01*
X57355428Y-43639714D01*
X57374485Y-43494960D01*
X57374356Y-43493982D01*
X57356102Y-43355324D01*
X57355428Y-43350206D01*
X57299555Y-43215318D01*
X57210674Y-43099486D01*
X57094843Y-43010605D01*
X57094840Y-43010604D01*
X57094838Y-43010602D01*
X56959957Y-42954733D01*
X56959955Y-42954732D01*
X56959954Y-42954732D01*
X56959952Y-42954731D01*
X56952104Y-42952629D01*
X56952456Y-42951312D01*
X56896386Y-42926500D01*
X56857922Y-42868171D01*
X56857098Y-42798307D01*
X56888796Y-42744158D01*
X57913577Y-41719379D01*
X57974900Y-41685894D01*
X58001258Y-41683060D01*
X62067596Y-41683060D01*
X62067612Y-41683061D01*
X62075208Y-41683061D01*
X62175131Y-41683061D01*
X62175132Y-41683061D01*
X62251250Y-41662664D01*
X62251252Y-41662664D01*
X62264185Y-41659198D01*
X62271652Y-41657198D01*
X62358189Y-41607236D01*
X62428846Y-41536579D01*
X62428846Y-41536577D01*
X62439050Y-41526374D01*
X62439053Y-41526369D01*
X63835047Y-40130377D01*
X63896370Y-40096892D01*
X63922728Y-40094058D01*
X64172615Y-40094058D01*
X64239654Y-40113743D01*
X64248101Y-40119682D01*
X64293425Y-40154460D01*
X64351357Y-40198913D01*
X64351359Y-40198913D01*
X64351361Y-40198915D01*
X64412248Y-40224135D01*
X64486246Y-40254786D01*
X64558623Y-40264314D01*
X64630999Y-40273843D01*
X64631000Y-40273843D01*
X64631001Y-40273843D01*
X64679251Y-40267490D01*
X64775754Y-40254786D01*
X64910643Y-40198913D01*
X65026474Y-40110032D01*
X65115355Y-39994201D01*
X65171228Y-39859312D01*
X65190285Y-39714558D01*
X65171228Y-39569804D01*
X65115355Y-39434916D01*
X65026474Y-39319084D01*
X64910643Y-39230203D01*
X64910642Y-39230202D01*
X64910640Y-39230201D01*
X64802530Y-39185421D01*
X64748127Y-39141580D01*
X64726062Y-39075286D01*
X64743341Y-39007587D01*
X64794478Y-38959976D01*
X64849983Y-38946860D01*
X65300708Y-38946860D01*
X65367747Y-38966545D01*
X65388389Y-38983179D01*
X65580181Y-39174971D01*
X65613666Y-39236294D01*
X65616500Y-39262652D01*
X65616500Y-43247785D01*
X65616499Y-43247803D01*
X65616499Y-43355324D01*
X65633426Y-43418492D01*
X65633427Y-43418496D01*
X65642361Y-43451840D01*
X65692321Y-43538375D01*
X65692325Y-43538380D01*
X65770046Y-43616101D01*
X65770052Y-43616106D01*
X66487183Y-44333237D01*
X66487193Y-44333248D01*
X66491523Y-44337578D01*
X66491524Y-44337579D01*
X66562181Y-44408236D01*
X66646071Y-44456670D01*
X66648718Y-44458198D01*
X66650953Y-44458797D01*
X66652626Y-44459816D01*
X66656225Y-44461307D01*
X66655992Y-44461868D01*
X66710613Y-44495160D01*
X66741144Y-44558006D01*
X66732850Y-44627382D01*
X66717815Y-44653298D01*
X66614113Y-44790621D01*
X66522873Y-44973855D01*
X66522872Y-44973859D01*
X66476040Y-45138459D01*
X66466854Y-45170743D01*
X66447968Y-45374559D01*
X66447968Y-45374560D01*
X66466854Y-45578376D01*
X66466854Y-45578378D01*
X66466855Y-45578381D01*
X66510979Y-45733461D01*
X66522873Y-45775264D01*
X66614112Y-45958495D01*
X66737469Y-46121847D01*
X66888737Y-46259745D01*
X66888739Y-46259747D01*
X67062769Y-46367502D01*
X67062775Y-46367505D01*
X67101903Y-46382663D01*
X67253644Y-46441448D01*
X67454853Y-46479060D01*
X67454856Y-46479060D01*
X67659544Y-46479060D01*
X67659547Y-46479060D01*
X67860756Y-46441448D01*
X68051627Y-46367504D01*
X68225662Y-46259746D01*
X68368279Y-46129733D01*
X68376930Y-46121847D01*
X68376932Y-46121845D01*
X68500288Y-45958495D01*
X68591528Y-45775261D01*
X68647545Y-45578381D01*
X68666432Y-45374560D01*
X68647545Y-45170739D01*
X68591528Y-44973859D01*
X68500288Y-44790625D01*
X68500287Y-44790624D01*
X68500286Y-44790621D01*
X68418853Y-44682786D01*
X68394161Y-44617425D01*
X68408726Y-44549091D01*
X68457924Y-44499478D01*
X68517807Y-44484060D01*
X68618644Y-44484060D01*
X68685683Y-44503745D01*
X68706325Y-44520379D01*
X68956381Y-44770435D01*
X68989866Y-44831758D01*
X68992700Y-44858116D01*
X68992700Y-46249623D01*
X69007466Y-46323861D01*
X69063715Y-46408044D01*
X69097434Y-46430574D01*
X69147899Y-46464294D01*
X69147902Y-46464294D01*
X69147903Y-46464295D01*
X69172866Y-46469260D01*
X69222133Y-46479060D01*
X70972266Y-46479059D01*
X71042713Y-46465047D01*
X71112301Y-46471276D01*
X71167478Y-46514139D01*
X71190722Y-46580029D01*
X71190900Y-46586665D01*
X71190900Y-47196585D01*
X71190899Y-47196603D01*
X71190899Y-47204198D01*
X71190899Y-47304122D01*
X71197629Y-47329238D01*
X71211015Y-47379196D01*
X71216761Y-47400639D01*
X71216763Y-47400644D01*
X71266721Y-47487175D01*
X71266725Y-47487180D01*
X71344446Y-47564901D01*
X71344452Y-47564906D01*
X72178927Y-48399381D01*
X72212412Y-48460704D01*
X72214185Y-48470875D01*
X72218772Y-48505714D01*
X72274642Y-48640598D01*
X72274645Y-48640604D01*
X72363525Y-48756433D01*
X72363526Y-48756434D01*
X72479355Y-48845314D01*
X72479361Y-48845317D01*
X72546801Y-48873251D01*
X72614246Y-48901188D01*
X72686623Y-48910716D01*
X72758999Y-48920245D01*
X72759000Y-48920245D01*
X72759001Y-48920245D01*
X72807251Y-48913892D01*
X72903754Y-48901188D01*
X73038643Y-48845315D01*
X73154474Y-48756434D01*
X73243355Y-48640603D01*
X73299228Y-48505714D01*
X73313615Y-48396436D01*
X73318285Y-48360961D01*
X73318285Y-48360958D01*
X73299228Y-48216207D01*
X73299228Y-48216206D01*
X73243355Y-48081318D01*
X73154474Y-47965486D01*
X73038643Y-47876605D01*
X73038640Y-47876604D01*
X73038638Y-47876602D01*
X72903757Y-47820733D01*
X72903752Y-47820731D01*
X72759001Y-47801675D01*
X72758996Y-47801675D01*
X72727377Y-47805837D01*
X72658342Y-47795070D01*
X72623513Y-47770579D01*
X72275585Y-47422651D01*
X72242100Y-47361328D01*
X72247084Y-47291636D01*
X72288956Y-47235703D01*
X72354420Y-47211286D01*
X72379443Y-47212030D01*
X72510200Y-47229245D01*
X72510201Y-47229245D01*
X72558451Y-47222892D01*
X72654954Y-47210188D01*
X72789843Y-47154315D01*
X72905674Y-47065434D01*
X72994555Y-46949603D01*
X73050428Y-46814714D01*
X73069485Y-46669960D01*
X73057645Y-46580029D01*
X73050428Y-46525207D01*
X73050428Y-46525206D01*
X72994555Y-46390318D01*
X72905674Y-46274486D01*
X72789843Y-46185605D01*
X72789840Y-46185604D01*
X72789838Y-46185602D01*
X72654957Y-46129733D01*
X72654955Y-46129732D01*
X72654954Y-46129732D01*
X72633810Y-46126948D01*
X72552114Y-46116192D01*
X72488217Y-46087925D01*
X72449747Y-46029600D01*
X72444300Y-45993253D01*
X72444300Y-39691602D01*
X72463985Y-39624563D01*
X72516789Y-39578808D01*
X72584483Y-39568663D01*
X72699800Y-39583845D01*
X72699801Y-39583845D01*
X72748051Y-39577492D01*
X72844554Y-39564788D01*
X72979443Y-39508915D01*
X73095274Y-39420034D01*
X73184155Y-39304203D01*
X73240028Y-39169314D01*
X73259085Y-39024560D01*
X73258908Y-39023218D01*
X73240028Y-38879807D01*
X73240028Y-38879806D01*
X73184155Y-38744918D01*
X73095274Y-38629086D01*
X72979443Y-38540205D01*
X72979439Y-38540203D01*
X72927247Y-38518584D01*
X72872843Y-38474742D01*
X72850779Y-38408448D01*
X72850700Y-38404023D01*
X72850700Y-34867116D01*
X72870385Y-34800077D01*
X72923189Y-34754322D01*
X72992347Y-34744378D01*
X73055903Y-34773403D01*
X73062381Y-34779435D01*
X73247583Y-34964637D01*
X73247593Y-34964648D01*
X73251923Y-34968978D01*
X73251924Y-34968979D01*
X73322581Y-35039636D01*
X73322583Y-35039637D01*
X73322584Y-35039638D01*
X73362006Y-35062398D01*
X73409118Y-35089598D01*
X73420762Y-35092718D01*
X73426583Y-35094278D01*
X73426584Y-35094278D01*
X73505638Y-35115461D01*
X73505640Y-35115461D01*
X73613158Y-35115461D01*
X73613174Y-35115460D01*
X78269615Y-35115460D01*
X78336654Y-35135145D01*
X78345101Y-35141084D01*
X78393515Y-35178233D01*
X78448357Y-35220315D01*
X78448359Y-35220315D01*
X78448361Y-35220317D01*
X78515801Y-35248251D01*
X78583246Y-35276188D01*
X78655623Y-35285716D01*
X78727999Y-35295245D01*
X78728000Y-35295245D01*
X78728001Y-35295245D01*
X78776251Y-35288892D01*
X78872754Y-35276188D01*
X79007643Y-35220315D01*
X79123474Y-35131434D01*
X79212355Y-35015603D01*
X79268228Y-34880714D01*
X79287285Y-34735960D01*
X79284347Y-34713646D01*
X79268228Y-34591207D01*
X79268228Y-34591206D01*
X79212355Y-34456318D01*
X79123474Y-34340486D01*
X79007643Y-34251605D01*
X79007640Y-34251604D01*
X79007638Y-34251602D01*
X78872757Y-34195733D01*
X78872752Y-34195731D01*
X78728001Y-34176675D01*
X78727999Y-34176675D01*
X78583247Y-34195731D01*
X78583245Y-34195732D01*
X78448360Y-34251603D01*
X78448357Y-34251605D01*
X78345102Y-34330836D01*
X78279933Y-34356030D01*
X78269616Y-34356460D01*
X74878133Y-34356460D01*
X74811094Y-34336775D01*
X74765339Y-34283971D01*
X74755395Y-34214813D01*
X74763572Y-34185007D01*
X74796135Y-34106394D01*
X74815192Y-33961640D01*
X74813091Y-33945684D01*
X74799372Y-33841471D01*
X74796135Y-33816886D01*
X74740262Y-33681998D01*
X74651381Y-33566166D01*
X74535550Y-33477285D01*
X74535546Y-33477283D01*
X74431828Y-33434321D01*
X74377424Y-33390480D01*
X74355360Y-33324185D01*
X74355281Y-33319760D01*
X74355281Y-27853952D01*
X74899500Y-27853952D01*
X74899500Y-28146047D01*
X74932199Y-28436271D01*
X74932202Y-28436285D01*
X74997196Y-28721044D01*
X74997197Y-28721046D01*
X75093665Y-28996738D01*
X75220393Y-29259890D01*
X75220395Y-29259893D01*
X75375792Y-29507206D01*
X75487374Y-29647125D01*
X75534951Y-29706786D01*
X75557902Y-29735565D01*
X75764435Y-29942098D01*
X75992794Y-30124208D01*
X76240107Y-30279605D01*
X76503263Y-30406335D01*
X76778955Y-30502803D01*
X77063714Y-30567798D01*
X77063723Y-30567799D01*
X77063728Y-30567800D01*
X77256081Y-30589472D01*
X77353953Y-30600499D01*
X77353956Y-30600500D01*
X77353959Y-30600500D01*
X77646044Y-30600500D01*
X77646045Y-30600499D01*
X77821571Y-30580723D01*
X77936271Y-30567800D01*
X77936274Y-30567799D01*
X77936286Y-30567798D01*
X78221045Y-30502803D01*
X78496737Y-30406335D01*
X78759893Y-30279605D01*
X79007206Y-30124208D01*
X79235565Y-29942098D01*
X79442098Y-29735565D01*
X79624208Y-29507206D01*
X79779605Y-29259893D01*
X79906335Y-28996737D01*
X80002803Y-28721045D01*
X80067798Y-28436286D01*
X80073490Y-28385772D01*
X80090198Y-28237475D01*
X80100500Y-28146041D01*
X80100500Y-27853959D01*
X80085847Y-27723904D01*
X80067800Y-27563728D01*
X80067799Y-27563723D01*
X80067798Y-27563714D01*
X80002803Y-27278955D01*
X79906335Y-27003263D01*
X79779605Y-26740107D01*
X79624208Y-26492794D01*
X79442098Y-26264435D01*
X79235565Y-26057902D01*
X79007206Y-25875792D01*
X78823121Y-25760124D01*
X78759890Y-25720393D01*
X78496738Y-25593665D01*
X78221046Y-25497197D01*
X78221044Y-25497196D01*
X78001280Y-25447036D01*
X77936286Y-25432202D01*
X77936283Y-25432201D01*
X77936271Y-25432199D01*
X77646047Y-25399500D01*
X77646041Y-25399500D01*
X77353959Y-25399500D01*
X77353952Y-25399500D01*
X77063728Y-25432199D01*
X77063714Y-25432202D01*
X76778955Y-25497196D01*
X76778953Y-25497197D01*
X76503261Y-25593665D01*
X76240109Y-25720393D01*
X75992795Y-25875791D01*
X75764435Y-26057901D01*
X75557901Y-26264435D01*
X75375791Y-26492795D01*
X75220393Y-26740109D01*
X75093665Y-27003261D01*
X74997197Y-27278953D01*
X74997196Y-27278955D01*
X74932202Y-27563714D01*
X74932199Y-27563728D01*
X74899500Y-27853952D01*
X74355281Y-27853952D01*
X74355281Y-26128105D01*
X74355282Y-26128092D01*
X74355282Y-26018180D01*
X74353244Y-26010576D01*
X74329419Y-25921660D01*
X74329419Y-25921659D01*
X74329419Y-25921658D01*
X74279459Y-25835125D01*
X74279458Y-25835124D01*
X74279457Y-25835122D01*
X74208800Y-25764465D01*
X74208799Y-25764464D01*
X74204469Y-25760134D01*
X74204458Y-25760124D01*
X73628546Y-25184212D01*
X73628544Y-25184209D01*
X73550820Y-25106485D01*
X73550815Y-25106481D01*
X73464285Y-25056523D01*
X73464282Y-25056522D01*
X73443884Y-25051056D01*
X73367762Y-25030659D01*
X73267838Y-25030659D01*
X73260242Y-25030659D01*
X73260226Y-25030660D01*
X43880385Y-25030660D01*
X43813346Y-25010975D01*
X43804899Y-25005036D01*
X43697826Y-24922876D01*
X43656623Y-24866448D01*
X43652468Y-24796702D01*
X43686680Y-24735782D01*
X43748398Y-24703029D01*
X43773312Y-24700500D01*
X77960118Y-24700500D01*
X77996519Y-24700500D01*
X78003472Y-24700695D01*
G37*
G04 #@! TD.AperFunction*
G04 #@! TA.AperFunction,Conductor*
G36*
X28942431Y-44090135D02*
G01*
X28998364Y-44132007D01*
X29014815Y-44165874D01*
X29015464Y-44165606D01*
X29074444Y-44307998D01*
X29074447Y-44308004D01*
X29163327Y-44423833D01*
X29163328Y-44423834D01*
X29279157Y-44512714D01*
X29279163Y-44512717D01*
X29316958Y-44528372D01*
X29414048Y-44568588D01*
X29543086Y-44585576D01*
X29606981Y-44613841D01*
X29614581Y-44620833D01*
X29668641Y-44674893D01*
X29702126Y-44736216D01*
X29704960Y-44762574D01*
X29704960Y-46382663D01*
X29685275Y-46449702D01*
X29668641Y-46470344D01*
X28960925Y-47178059D01*
X28960921Y-47178064D01*
X28910961Y-47264597D01*
X28910962Y-47264597D01*
X28910962Y-47264598D01*
X28900166Y-47304888D01*
X28893642Y-47329238D01*
X28885099Y-47361119D01*
X28885099Y-47471031D01*
X28885100Y-47471044D01*
X28885100Y-49142807D01*
X28885099Y-49142825D01*
X28885099Y-49250344D01*
X28902362Y-49314771D01*
X28910960Y-49346859D01*
X28910963Y-49346866D01*
X28960921Y-49433397D01*
X28960925Y-49433402D01*
X29038646Y-49511123D01*
X29038652Y-49511128D01*
X30508536Y-50981012D01*
X30542021Y-51042335D01*
X30537037Y-51112027D01*
X30495165Y-51167960D01*
X30429701Y-51192377D01*
X30420855Y-51192693D01*
X28753099Y-51192693D01*
X28686060Y-51173008D01*
X28665418Y-51156374D01*
X25578656Y-48069612D01*
X25578654Y-48069609D01*
X25500930Y-47991885D01*
X25500925Y-47991881D01*
X25414395Y-47941923D01*
X25406886Y-47938813D01*
X25407736Y-47936760D01*
X25357964Y-47906416D01*
X25327441Y-47843566D01*
X25335743Y-47774191D01*
X25380233Y-47720318D01*
X25380586Y-47720080D01*
X25405484Y-47703444D01*
X25461734Y-47619261D01*
X25476500Y-47545027D01*
X25476499Y-46669959D01*
X25802768Y-46669959D01*
X25802768Y-46669960D01*
X25821654Y-46873776D01*
X25821654Y-46873778D01*
X25821655Y-46873781D01*
X25860388Y-47009914D01*
X25877673Y-47070664D01*
X25968912Y-47253895D01*
X26092269Y-47417247D01*
X26243537Y-47555145D01*
X26243539Y-47555147D01*
X26417569Y-47662902D01*
X26417575Y-47662905D01*
X26458010Y-47678569D01*
X26608444Y-47736848D01*
X26809653Y-47774460D01*
X26809656Y-47774460D01*
X27014344Y-47774460D01*
X27014347Y-47774460D01*
X27215556Y-47736848D01*
X27406427Y-47662904D01*
X27580462Y-47555146D01*
X27731732Y-47417245D01*
X27855088Y-47253895D01*
X27946328Y-47070661D01*
X28002345Y-46873781D01*
X28021232Y-46669960D01*
X28002345Y-46466139D01*
X27946328Y-46269259D01*
X27855088Y-46086025D01*
X27731732Y-45922675D01*
X27731730Y-45922672D01*
X27580462Y-45784774D01*
X27580460Y-45784772D01*
X27406430Y-45677017D01*
X27406424Y-45677014D01*
X27255993Y-45618737D01*
X27215556Y-45603072D01*
X27014347Y-45565460D01*
X26809653Y-45565460D01*
X26608444Y-45603072D01*
X26608441Y-45603072D01*
X26608441Y-45603073D01*
X26417575Y-45677014D01*
X26417569Y-45677017D01*
X26243539Y-45784772D01*
X26243537Y-45784774D01*
X26092269Y-45922672D01*
X25968912Y-46086024D01*
X25877673Y-46269255D01*
X25821654Y-46466143D01*
X25802768Y-46669959D01*
X25476499Y-46669959D01*
X25476499Y-45794894D01*
X25461734Y-45720659D01*
X25432571Y-45677014D01*
X25405484Y-45636475D01*
X25334674Y-45589162D01*
X25321301Y-45580226D01*
X25321299Y-45580225D01*
X25321296Y-45580224D01*
X25247071Y-45565460D01*
X25247067Y-45565460D01*
X25047260Y-45565460D01*
X24980221Y-45545775D01*
X24934466Y-45492971D01*
X24924522Y-45423813D01*
X24953547Y-45360257D01*
X24994855Y-45329078D01*
X25049578Y-45303560D01*
X25243082Y-45168065D01*
X25410105Y-45001042D01*
X25545600Y-44807538D01*
X25645429Y-44593452D01*
X25645435Y-44593438D01*
X25652844Y-44565786D01*
X25689207Y-44506125D01*
X25752054Y-44475594D01*
X25821429Y-44483888D01*
X25875308Y-44528372D01*
X25883619Y-44542605D01*
X25968912Y-44713895D01*
X26092269Y-44877247D01*
X26198244Y-44973855D01*
X26239481Y-45011448D01*
X26243537Y-45015145D01*
X26243539Y-45015147D01*
X26417569Y-45122902D01*
X26417575Y-45122905D01*
X26457720Y-45138457D01*
X26608444Y-45196848D01*
X26809653Y-45234460D01*
X26809656Y-45234460D01*
X27014344Y-45234460D01*
X27014347Y-45234460D01*
X27215556Y-45196848D01*
X27406427Y-45122904D01*
X27580462Y-45015146D01*
X27731732Y-44877245D01*
X27855088Y-44713895D01*
X27904909Y-44613841D01*
X27922663Y-44578188D01*
X27970166Y-44526951D01*
X28033663Y-44509460D01*
X28205826Y-44509460D01*
X28205842Y-44509461D01*
X28213438Y-44509461D01*
X28313360Y-44509461D01*
X28313362Y-44509461D01*
X28395879Y-44487350D01*
X28409882Y-44483598D01*
X28496419Y-44433636D01*
X28567076Y-44362979D01*
X28567076Y-44362977D01*
X28577280Y-44352774D01*
X28577284Y-44352769D01*
X28811418Y-44118634D01*
X28872739Y-44085151D01*
X28942431Y-44090135D01*
G37*
G04 #@! TD.AperFunction*
G04 #@! TA.AperFunction,Conductor*
G36*
X37069777Y-31905345D02*
G01*
X37115532Y-31958149D01*
X37125476Y-32027307D01*
X37122800Y-32033166D01*
X37122800Y-32064960D01*
X37122800Y-49184560D01*
X41212200Y-49184560D01*
X41212200Y-44626536D01*
X41231885Y-44559497D01*
X41284689Y-44513742D01*
X41353845Y-44503798D01*
X41428000Y-44514460D01*
X41428003Y-44514460D01*
X50476000Y-44514460D01*
X50585149Y-44502726D01*
X50637491Y-44491340D01*
X50741657Y-44456670D01*
X50864612Y-44377652D01*
X50915745Y-44333345D01*
X50917925Y-44331555D01*
X50918268Y-44331158D01*
X50918270Y-44331158D01*
X51013982Y-44220699D01*
X51074698Y-44087750D01*
X51094700Y-44019629D01*
X51115500Y-43874960D01*
X51115500Y-42345460D01*
X51135185Y-42278421D01*
X51187989Y-42232666D01*
X51239500Y-42221460D01*
X54387439Y-42221460D01*
X54454478Y-42241145D01*
X54469665Y-42252644D01*
X54477469Y-42259558D01*
X54477471Y-42259559D01*
X54618207Y-42333423D01*
X54667043Y-42345460D01*
X54772528Y-42371460D01*
X54772529Y-42371460D01*
X54931472Y-42371460D01*
X55008784Y-42352404D01*
X55085793Y-42333423D01*
X55226529Y-42259559D01*
X55345498Y-42154161D01*
X55435787Y-42023355D01*
X55492149Y-41874742D01*
X55511307Y-41716960D01*
X55497984Y-41607238D01*
X55492149Y-41559178D01*
X55492038Y-41558885D01*
X55435787Y-41410565D01*
X55345498Y-41279759D01*
X55345495Y-41279756D01*
X55345493Y-41279754D01*
X55226530Y-41174361D01*
X55087597Y-41101444D01*
X55085793Y-41100497D01*
X55085792Y-41100496D01*
X55085791Y-41100496D01*
X54931472Y-41062460D01*
X54931471Y-41062460D01*
X54772529Y-41062460D01*
X54772528Y-41062460D01*
X54618208Y-41100496D01*
X54477469Y-41174361D01*
X54469665Y-41181276D01*
X54406432Y-41210997D01*
X54387439Y-41212460D01*
X51239500Y-41212460D01*
X51172461Y-41192775D01*
X51126706Y-41139971D01*
X51115500Y-41088460D01*
X51115500Y-34926960D01*
X51103766Y-34817811D01*
X51092380Y-34765469D01*
X51057710Y-34661303D01*
X50978692Y-34538348D01*
X50934381Y-34487211D01*
X50932595Y-34485034D01*
X50821743Y-34388980D01*
X50821737Y-34388977D01*
X50691225Y-34329374D01*
X50688790Y-34328262D01*
X50640914Y-34314204D01*
X50620673Y-34308261D01*
X50620661Y-34308258D01*
X50476000Y-34287460D01*
X41428000Y-34287460D01*
X41427997Y-34287460D01*
X41349454Y-34295904D01*
X41280695Y-34283498D01*
X41229558Y-34235887D01*
X41212200Y-34172614D01*
X41212200Y-32715189D01*
X41231885Y-32648150D01*
X41284689Y-32602395D01*
X41353847Y-32592451D01*
X41417403Y-32621476D01*
X41423881Y-32627508D01*
X42043190Y-33246817D01*
X42043200Y-33246828D01*
X42047530Y-33251158D01*
X42047531Y-33251159D01*
X42118188Y-33321816D01*
X42168151Y-33350662D01*
X42204726Y-33371779D01*
X42301245Y-33397641D01*
X42301247Y-33397641D01*
X42408765Y-33397641D01*
X42408781Y-33397640D01*
X43618076Y-33397640D01*
X43618092Y-33397641D01*
X43625688Y-33397641D01*
X43725610Y-33397641D01*
X43725612Y-33397641D01*
X43788801Y-33380709D01*
X43803864Y-33376673D01*
X43803866Y-33376672D01*
X43822132Y-33371778D01*
X43908669Y-33321816D01*
X43979326Y-33251159D01*
X43979326Y-33251157D01*
X43989530Y-33240954D01*
X43989534Y-33240949D01*
X44278351Y-32952131D01*
X44339672Y-32918648D01*
X44349839Y-32916875D01*
X44478885Y-32899887D01*
X44613774Y-32844014D01*
X44646564Y-32818852D01*
X44661832Y-32807138D01*
X44727001Y-32781944D01*
X44737318Y-32781514D01*
X45179608Y-32781514D01*
X45246647Y-32801199D01*
X45267289Y-32817833D01*
X46140103Y-33690647D01*
X46140113Y-33690658D01*
X46215102Y-33765647D01*
X46237429Y-33778537D01*
X46271277Y-33798079D01*
X46271278Y-33798080D01*
X46301632Y-33815605D01*
X46301635Y-33815607D01*
X46301637Y-33815607D01*
X46301638Y-33815608D01*
X46398158Y-33841471D01*
X46398160Y-33841471D01*
X46505678Y-33841471D01*
X46505694Y-33841470D01*
X51365582Y-33841470D01*
X51432621Y-33861155D01*
X51453263Y-33877789D01*
X51598713Y-34023239D01*
X51632198Y-34084562D01*
X51635032Y-34110920D01*
X51635032Y-39404935D01*
X51635031Y-39404953D01*
X51635031Y-39512474D01*
X51650192Y-39569052D01*
X51650192Y-39569054D01*
X51650193Y-39569054D01*
X51650193Y-39569055D01*
X51650394Y-39569804D01*
X51660894Y-39608993D01*
X51660895Y-39608994D01*
X51710853Y-39695525D01*
X51710857Y-39695530D01*
X51788578Y-39773251D01*
X51788584Y-39773256D01*
X52379965Y-40364637D01*
X52379975Y-40364648D01*
X52384305Y-40368978D01*
X52384306Y-40368979D01*
X52454963Y-40439636D01*
X52454965Y-40439637D01*
X52454966Y-40439638D01*
X52482396Y-40455474D01*
X52541500Y-40489598D01*
X52541499Y-40489598D01*
X52550779Y-40492084D01*
X52561897Y-40495063D01*
X52638020Y-40515461D01*
X52638021Y-40515461D01*
X52745540Y-40515461D01*
X52745556Y-40515460D01*
X56379836Y-40515460D01*
X56446875Y-40535145D01*
X56467517Y-40551779D01*
X57041575Y-41125837D01*
X57041585Y-41125848D01*
X57116574Y-41200837D01*
X57130144Y-41208671D01*
X57178360Y-41259238D01*
X57191584Y-41327845D01*
X57165616Y-41392710D01*
X57155826Y-41403740D01*
X55880427Y-42679141D01*
X55819104Y-42712626D01*
X55792746Y-42715460D01*
X54128352Y-42715460D01*
X54031832Y-42741322D01*
X54031829Y-42741323D01*
X53945298Y-42791281D01*
X53945293Y-42791285D01*
X52366025Y-44370553D01*
X52366021Y-44370558D01*
X52316061Y-44457091D01*
X52316062Y-44457091D01*
X52316062Y-44457092D01*
X52306885Y-44491340D01*
X52291411Y-44549091D01*
X52290199Y-44553613D01*
X52290199Y-44663525D01*
X52290200Y-44663538D01*
X52290200Y-45976704D01*
X52270515Y-46043743D01*
X52253881Y-46064385D01*
X52114925Y-46203341D01*
X52053602Y-46236826D01*
X52027244Y-46239660D01*
X49000736Y-46239660D01*
X48933697Y-46219975D01*
X48887942Y-46167171D01*
X48886175Y-46163112D01*
X48864557Y-46110922D01*
X48864557Y-46110921D01*
X48864555Y-46110918D01*
X48775674Y-45995086D01*
X48659843Y-45906205D01*
X48659840Y-45906204D01*
X48659838Y-45906202D01*
X48524957Y-45850333D01*
X48524952Y-45850331D01*
X48380201Y-45831275D01*
X48380199Y-45831275D01*
X48235447Y-45850331D01*
X48235445Y-45850332D01*
X48100561Y-45906203D01*
X48100558Y-45906204D01*
X48100558Y-45906205D01*
X47984726Y-45995086D01*
X47896032Y-46110675D01*
X47895843Y-46110921D01*
X47839972Y-46245805D01*
X47839971Y-46245807D01*
X47820915Y-46390558D01*
X47820915Y-46390561D01*
X47839971Y-46535312D01*
X47839973Y-46535317D01*
X47840331Y-46536181D01*
X47840415Y-46536968D01*
X47842076Y-46543165D01*
X47841109Y-46543423D01*
X47847798Y-46605650D01*
X47816522Y-46668129D01*
X47787770Y-46691018D01*
X47734309Y-46721883D01*
X47734307Y-46721885D01*
X47675918Y-46780275D01*
X47663652Y-46792541D01*
X47663650Y-46792543D01*
X47250763Y-47205431D01*
X46871053Y-47585141D01*
X46809730Y-47618626D01*
X46783372Y-47621460D01*
X45507838Y-47621460D01*
X45507822Y-47621459D01*
X45500226Y-47621459D01*
X45400302Y-47621459D01*
X45324179Y-47641856D01*
X45324177Y-47641856D01*
X45303783Y-47647321D01*
X45217246Y-47697283D01*
X45217243Y-47697285D01*
X45146586Y-47767943D01*
X43691944Y-49222584D01*
X43630621Y-49256069D01*
X43560929Y-49251085D01*
X43556811Y-49249464D01*
X43437446Y-49200022D01*
X43438411Y-49197692D01*
X43389541Y-49167895D01*
X43359020Y-49105044D01*
X43367324Y-49035670D01*
X43405817Y-48986125D01*
X43492470Y-48919634D01*
X43581351Y-48803803D01*
X43637224Y-48668914D01*
X43656281Y-48524160D01*
X43653852Y-48505712D01*
X43637224Y-48379407D01*
X43637224Y-48379406D01*
X43581351Y-48244518D01*
X43492470Y-48128686D01*
X43376639Y-48039805D01*
X43376636Y-48039804D01*
X43376634Y-48039802D01*
X43234242Y-47980822D01*
X43234903Y-47979225D01*
X43183651Y-47947980D01*
X43153126Y-47885131D01*
X43161426Y-47815756D01*
X43187727Y-47776899D01*
X43544019Y-47420607D01*
X43605340Y-47387124D01*
X43615507Y-47385351D01*
X43744553Y-47368363D01*
X43879442Y-47312490D01*
X43995273Y-47223609D01*
X44084154Y-47107778D01*
X44140027Y-46972889D01*
X44159084Y-46828135D01*
X44140027Y-46683381D01*
X44084154Y-46548493D01*
X43995273Y-46432661D01*
X43879442Y-46343780D01*
X43879439Y-46343779D01*
X43879437Y-46343777D01*
X43744556Y-46287908D01*
X43744551Y-46287906D01*
X43599800Y-46268850D01*
X43599798Y-46268850D01*
X43455046Y-46287906D01*
X43455044Y-46287907D01*
X43320160Y-46343778D01*
X43320157Y-46343779D01*
X43320157Y-46343780D01*
X43204325Y-46432661D01*
X43119335Y-46543423D01*
X43115442Y-46548496D01*
X43059571Y-46683380D01*
X43059570Y-46683382D01*
X43042583Y-46812417D01*
X43014316Y-46876314D01*
X43007325Y-46883913D01*
X42914809Y-46976429D01*
X42853486Y-47009914D01*
X42783794Y-47004930D01*
X42727861Y-46963058D01*
X42704189Y-46904934D01*
X42692228Y-46814073D01*
X42636355Y-46679185D01*
X42547474Y-46563353D01*
X42431643Y-46474472D01*
X42431640Y-46474471D01*
X42431638Y-46474469D01*
X42296757Y-46418600D01*
X42296752Y-46418598D01*
X42152001Y-46399542D01*
X42151999Y-46399542D01*
X42007247Y-46418598D01*
X42007245Y-46418599D01*
X41872361Y-46474470D01*
X41872358Y-46474471D01*
X41872358Y-46474472D01*
X41756526Y-46563353D01*
X41674725Y-46669959D01*
X41667643Y-46679188D01*
X41611772Y-46814072D01*
X41611772Y-46814073D01*
X41594784Y-46943109D01*
X41566517Y-47007005D01*
X41559528Y-47014602D01*
X41543535Y-47030594D01*
X41493574Y-47117130D01*
X41493572Y-47117135D01*
X41490584Y-47128284D01*
X41490585Y-47128285D01*
X41468640Y-47210186D01*
X41467710Y-47213655D01*
X41467710Y-47323567D01*
X41467711Y-47323580D01*
X41467711Y-49547493D01*
X41448026Y-49614532D01*
X41431392Y-49635174D01*
X41129425Y-49937141D01*
X41068102Y-49970626D01*
X41041744Y-49973460D01*
X32546556Y-49973460D01*
X32479517Y-49953775D01*
X32458875Y-49937141D01*
X32168473Y-49646739D01*
X32134988Y-49585416D01*
X32133217Y-49575258D01*
X32116228Y-49446206D01*
X32060355Y-49311318D01*
X32012893Y-49249464D01*
X31994847Y-49225946D01*
X31969653Y-49160777D01*
X31983691Y-49092332D01*
X32032505Y-49042343D01*
X32093223Y-49026460D01*
X34847615Y-49026460D01*
X34914654Y-49046145D01*
X34923101Y-49052084D01*
X35002678Y-49113145D01*
X35026357Y-49131315D01*
X35026359Y-49131315D01*
X35026361Y-49131317D01*
X35072471Y-49150416D01*
X35161246Y-49187188D01*
X35224276Y-49195486D01*
X35305999Y-49206245D01*
X35306000Y-49206245D01*
X35306001Y-49206245D01*
X35370967Y-49197692D01*
X35450754Y-49187188D01*
X35585643Y-49131315D01*
X35701474Y-49042434D01*
X35790355Y-48926603D01*
X35846228Y-48791714D01*
X35863622Y-48659591D01*
X35865285Y-48646961D01*
X35865285Y-48646958D01*
X35846690Y-48505714D01*
X35846228Y-48502206D01*
X35790355Y-48367318D01*
X35701474Y-48251486D01*
X35585643Y-48162605D01*
X35585640Y-48162604D01*
X35585638Y-48162602D01*
X35450757Y-48106733D01*
X35450752Y-48106731D01*
X35306001Y-48087675D01*
X35305999Y-48087675D01*
X35161247Y-48106731D01*
X35161245Y-48106732D01*
X35026360Y-48162603D01*
X35026357Y-48162605D01*
X34923102Y-48241836D01*
X34857933Y-48267030D01*
X34847616Y-48267460D01*
X32105667Y-48267460D01*
X32038628Y-48247775D01*
X31992873Y-48194971D01*
X31982929Y-48125813D01*
X31998282Y-48081456D01*
X32000534Y-48077553D01*
X32000538Y-48077549D01*
X32056411Y-47942660D01*
X32074424Y-47805837D01*
X32075468Y-47797907D01*
X32075468Y-47797904D01*
X32057695Y-47662904D01*
X32056411Y-47653152D01*
X32000538Y-47518264D01*
X31911657Y-47402432D01*
X31795826Y-47313551D01*
X31795823Y-47313550D01*
X31795821Y-47313548D01*
X31660940Y-47257679D01*
X31660938Y-47257678D01*
X31660937Y-47257678D01*
X31627825Y-47253318D01*
X31531897Y-47240689D01*
X31468001Y-47212422D01*
X31460402Y-47205431D01*
X31313090Y-47058119D01*
X31279605Y-46996796D01*
X31276771Y-46970438D01*
X31276771Y-43912241D01*
X31276772Y-43912228D01*
X31276772Y-43802317D01*
X31276772Y-43802315D01*
X31250910Y-43705796D01*
X31237016Y-43681732D01*
X31212265Y-43638862D01*
X31212265Y-43638861D01*
X31212263Y-43638859D01*
X31207125Y-43629960D01*
X31200947Y-43619258D01*
X31130290Y-43548601D01*
X31130289Y-43548600D01*
X31125959Y-43544270D01*
X31125948Y-43544260D01*
X30229291Y-42647603D01*
X30229289Y-42647600D01*
X30151565Y-42569876D01*
X30151560Y-42569872D01*
X30065030Y-42519914D01*
X30065027Y-42519913D01*
X30044629Y-42514447D01*
X29968507Y-42494050D01*
X29868583Y-42494050D01*
X29860987Y-42494050D01*
X29860971Y-42494051D01*
X27862343Y-42494051D01*
X27795304Y-42474366D01*
X27749549Y-42421562D01*
X27739605Y-42352404D01*
X27763389Y-42295324D01*
X27855088Y-42173895D01*
X27930843Y-42021758D01*
X31031515Y-42021758D01*
X31031515Y-42021761D01*
X31050571Y-42166512D01*
X31050573Y-42166517D01*
X31106442Y-42301398D01*
X31106445Y-42301404D01*
X31195325Y-42417233D01*
X31195326Y-42417234D01*
X31311155Y-42506114D01*
X31311161Y-42506117D01*
X31378601Y-42534051D01*
X31446046Y-42561988D01*
X31505962Y-42569876D01*
X31590799Y-42581045D01*
X31590800Y-42581045D01*
X31590801Y-42581045D01*
X31639051Y-42574692D01*
X31735554Y-42561988D01*
X31870443Y-42506115D01*
X31986274Y-42417234D01*
X32075155Y-42301403D01*
X32131028Y-42166514D01*
X32133400Y-42148494D01*
X32161661Y-42084599D01*
X32168646Y-42077006D01*
X32976809Y-41268844D01*
X32976814Y-41268840D01*
X32987017Y-41258636D01*
X32987019Y-41258636D01*
X33057676Y-41187979D01*
X33107638Y-41101442D01*
X33113384Y-41079998D01*
X33113385Y-41079996D01*
X33126771Y-41030037D01*
X33133501Y-41004922D01*
X33133501Y-40904998D01*
X33133501Y-40897403D01*
X33133500Y-40897385D01*
X33133500Y-35980524D01*
X33133501Y-35980511D01*
X33133501Y-35870599D01*
X33121768Y-35826812D01*
X33107638Y-35774078D01*
X33093208Y-35749085D01*
X33057676Y-35687541D01*
X32987019Y-35616884D01*
X32987018Y-35616883D01*
X32982688Y-35612553D01*
X32982677Y-35612543D01*
X32208673Y-34838539D01*
X32175188Y-34777216D01*
X32173417Y-34767058D01*
X32156428Y-34638006D01*
X32100555Y-34503118D01*
X32011674Y-34387286D01*
X31895843Y-34298405D01*
X31895840Y-34298404D01*
X31895838Y-34298402D01*
X31760957Y-34242533D01*
X31760952Y-34242531D01*
X31616201Y-34223475D01*
X31616199Y-34223475D01*
X31471447Y-34242531D01*
X31471445Y-34242532D01*
X31336561Y-34298403D01*
X31336558Y-34298404D01*
X31336558Y-34298405D01*
X31220726Y-34387286D01*
X31145283Y-34485606D01*
X31131843Y-34503121D01*
X31075972Y-34638005D01*
X31075971Y-34638007D01*
X31056915Y-34782758D01*
X31056915Y-34782761D01*
X31075971Y-34927512D01*
X31075973Y-34927517D01*
X31131842Y-35062398D01*
X31131845Y-35062404D01*
X31220725Y-35178233D01*
X31220726Y-35178234D01*
X31336555Y-35267114D01*
X31336561Y-35267117D01*
X31358456Y-35276186D01*
X31471446Y-35322988D01*
X31600484Y-35339976D01*
X31664379Y-35368241D01*
X31671979Y-35375233D01*
X32338181Y-36041435D01*
X32371666Y-36102758D01*
X32374500Y-36129116D01*
X32374500Y-40746403D01*
X32354815Y-40813442D01*
X32338181Y-40834084D01*
X31739187Y-41433077D01*
X31677864Y-41466562D01*
X31635323Y-41468336D01*
X31621846Y-41466562D01*
X31590800Y-41462475D01*
X31590798Y-41462475D01*
X31590797Y-41462475D01*
X31446047Y-41481531D01*
X31446045Y-41481532D01*
X31311161Y-41537403D01*
X31311158Y-41537404D01*
X31311158Y-41537405D01*
X31195326Y-41626286D01*
X31115698Y-41730060D01*
X31106443Y-41742121D01*
X31050572Y-41877005D01*
X31050571Y-41877007D01*
X31031515Y-42021758D01*
X27930843Y-42021758D01*
X27946328Y-41990661D01*
X28002345Y-41793781D01*
X28021232Y-41589960D01*
X28002345Y-41386139D01*
X27946328Y-41189259D01*
X27855088Y-41006025D01*
X27855087Y-41006024D01*
X27855086Y-41006021D01*
X27773653Y-40898186D01*
X27748961Y-40832825D01*
X27763526Y-40764491D01*
X27812724Y-40714878D01*
X27872607Y-40699460D01*
X29492871Y-40699460D01*
X29559910Y-40719145D01*
X29580552Y-40735779D01*
X29799810Y-40955037D01*
X29799820Y-40955048D01*
X29804150Y-40959378D01*
X29804151Y-40959379D01*
X29874808Y-41030036D01*
X29874810Y-41030037D01*
X29874811Y-41030038D01*
X29895262Y-41041845D01*
X29961345Y-41079998D01*
X30057865Y-41105860D01*
X30116415Y-41105860D01*
X30183454Y-41125545D01*
X30191901Y-41131484D01*
X30257222Y-41181606D01*
X30295157Y-41210715D01*
X30295159Y-41210715D01*
X30295161Y-41210717D01*
X30343622Y-41230790D01*
X30430046Y-41266588D01*
X30479708Y-41273126D01*
X30574799Y-41285645D01*
X30574800Y-41285645D01*
X30574801Y-41285645D01*
X30623051Y-41279292D01*
X30719554Y-41266588D01*
X30854443Y-41210715D01*
X30970274Y-41121834D01*
X31059155Y-41006003D01*
X31115028Y-40871114D01*
X31134085Y-40726360D01*
X31132573Y-40714878D01*
X31120561Y-40623636D01*
X31115028Y-40581606D01*
X31059155Y-40446718D01*
X30970274Y-40330886D01*
X30854443Y-40242005D01*
X30854440Y-40242004D01*
X30854438Y-40242002D01*
X30719557Y-40186133D01*
X30719552Y-40186131D01*
X30574801Y-40167075D01*
X30574799Y-40167075D01*
X30430047Y-40186131D01*
X30430045Y-40186132D01*
X30295159Y-40242004D01*
X30291973Y-40243844D01*
X30288945Y-40244578D01*
X30287650Y-40245115D01*
X30287566Y-40244912D01*
X30224072Y-40260313D01*
X30158046Y-40237459D01*
X30142296Y-40224135D01*
X30012173Y-40094012D01*
X30012171Y-40094009D01*
X29934447Y-40016285D01*
X29934442Y-40016281D01*
X29847912Y-39966323D01*
X29847909Y-39966322D01*
X29827511Y-39960856D01*
X29751389Y-39940459D01*
X29651465Y-39940459D01*
X29643869Y-39940459D01*
X29643853Y-39940460D01*
X27872607Y-39940460D01*
X27805568Y-39920775D01*
X27759813Y-39867971D01*
X27749869Y-39798813D01*
X27773653Y-39741734D01*
X27855086Y-39633898D01*
X27855086Y-39633896D01*
X27855088Y-39633895D01*
X27946328Y-39450661D01*
X28002345Y-39253781D01*
X28021232Y-39049960D01*
X28002345Y-38846139D01*
X27946328Y-38649259D01*
X27855088Y-38466025D01*
X27798337Y-38390874D01*
X27792834Y-38383587D01*
X27768142Y-38318225D01*
X27782707Y-38249891D01*
X27831905Y-38200278D01*
X27891788Y-38184860D01*
X29416673Y-38184860D01*
X29483712Y-38204545D01*
X29504354Y-38221179D01*
X29749012Y-38465837D01*
X29749022Y-38465848D01*
X29753352Y-38470178D01*
X29753353Y-38470179D01*
X29824010Y-38540836D01*
X29903759Y-38586879D01*
X29910547Y-38590798D01*
X30007067Y-38616660D01*
X30065617Y-38616660D01*
X30132656Y-38636345D01*
X30141103Y-38642284D01*
X30198290Y-38686165D01*
X30244359Y-38721515D01*
X30244361Y-38721515D01*
X30244363Y-38721517D01*
X30300859Y-38744918D01*
X30379248Y-38777388D01*
X30421534Y-38782955D01*
X30524001Y-38796445D01*
X30524002Y-38796445D01*
X30524003Y-38796445D01*
X30572253Y-38790092D01*
X30668756Y-38777388D01*
X30803645Y-38721515D01*
X30919476Y-38632634D01*
X31008357Y-38516803D01*
X31064230Y-38381914D01*
X31082978Y-38239505D01*
X31083287Y-38237161D01*
X31083287Y-38237158D01*
X31064230Y-38092407D01*
X31064230Y-38092406D01*
X31008357Y-37957518D01*
X30919476Y-37841686D01*
X30803645Y-37752805D01*
X30803642Y-37752804D01*
X30803640Y-37752802D01*
X30668759Y-37696933D01*
X30668754Y-37696931D01*
X30524003Y-37677875D01*
X30524001Y-37677875D01*
X30379249Y-37696931D01*
X30379247Y-37696932D01*
X30244361Y-37752804D01*
X30241175Y-37754644D01*
X30238147Y-37755378D01*
X30236852Y-37755915D01*
X30236768Y-37755712D01*
X30173274Y-37771113D01*
X30107248Y-37748259D01*
X30091498Y-37734935D01*
X29935975Y-37579412D01*
X29935973Y-37579409D01*
X29858249Y-37501685D01*
X29858244Y-37501681D01*
X29771714Y-37451723D01*
X29771711Y-37451722D01*
X29768587Y-37450885D01*
X29751313Y-37446256D01*
X29675191Y-37425859D01*
X29575267Y-37425859D01*
X29567671Y-37425859D01*
X29567655Y-37425860D01*
X27853425Y-37425860D01*
X27786386Y-37406175D01*
X27740631Y-37353371D01*
X27730687Y-37284213D01*
X27754471Y-37227133D01*
X27797144Y-37170625D01*
X27855088Y-37093895D01*
X27946328Y-36910661D01*
X28002345Y-36713781D01*
X28021232Y-36509960D01*
X28021125Y-36508810D01*
X28010227Y-36391203D01*
X28002345Y-36306139D01*
X27946328Y-36109259D01*
X27855088Y-35926025D01*
X27792834Y-35843587D01*
X27768142Y-35778225D01*
X27782707Y-35709891D01*
X27831905Y-35660278D01*
X27891788Y-35644860D01*
X29070842Y-35644860D01*
X29137881Y-35664545D01*
X29158523Y-35681179D01*
X29931525Y-36454181D01*
X29965010Y-36515504D01*
X29966783Y-36525676D01*
X29983772Y-36654714D01*
X29983773Y-36654719D01*
X30039642Y-36789600D01*
X30039645Y-36789606D01*
X30128525Y-36905435D01*
X30128526Y-36905436D01*
X30244355Y-36994316D01*
X30244361Y-36994319D01*
X30311801Y-37022253D01*
X30379246Y-37050190D01*
X30391096Y-37051750D01*
X30523999Y-37069247D01*
X30524000Y-37069247D01*
X30524001Y-37069247D01*
X30577080Y-37062259D01*
X30668754Y-37050190D01*
X30803643Y-36994317D01*
X30919474Y-36905436D01*
X31008355Y-36789605D01*
X31064228Y-36654716D01*
X31081216Y-36525676D01*
X31083285Y-36509963D01*
X31083285Y-36509960D01*
X31064228Y-36365209D01*
X31064228Y-36365208D01*
X31008355Y-36230320D01*
X30919474Y-36114488D01*
X30803643Y-36025607D01*
X30803640Y-36025606D01*
X30803638Y-36025604D01*
X30668757Y-35969735D01*
X30668755Y-35969734D01*
X30668754Y-35969734D01*
X30635642Y-35965374D01*
X30539714Y-35952745D01*
X30475818Y-35924478D01*
X30468219Y-35917487D01*
X29590144Y-35039412D01*
X29590142Y-35039409D01*
X29512418Y-34961685D01*
X29512413Y-34961681D01*
X29425882Y-34911723D01*
X29425875Y-34911720D01*
X29395044Y-34903458D01*
X29395044Y-34903459D01*
X29329360Y-34885859D01*
X29229436Y-34885859D01*
X29221840Y-34885859D01*
X29221824Y-34885860D01*
X28930441Y-34885860D01*
X28863402Y-34866175D01*
X28817647Y-34813371D01*
X28807502Y-34745675D01*
X28822683Y-34630361D01*
X28822683Y-34630358D01*
X28812616Y-34553895D01*
X28803626Y-34485606D01*
X28765101Y-34392600D01*
X28757633Y-34323135D01*
X28788907Y-34260656D01*
X28791951Y-34257501D01*
X29412075Y-33637379D01*
X29473398Y-33603894D01*
X29499756Y-33601060D01*
X30884626Y-33601060D01*
X30884642Y-33601061D01*
X30892238Y-33601061D01*
X30992160Y-33601061D01*
X30992162Y-33601061D01*
X31078814Y-33577842D01*
X31078814Y-33577843D01*
X31078819Y-33577840D01*
X31088682Y-33575198D01*
X31175219Y-33525236D01*
X31245876Y-33454579D01*
X31245876Y-33454577D01*
X31256080Y-33444374D01*
X31256083Y-33444369D01*
X32143475Y-32556979D01*
X32204798Y-32523494D01*
X32231156Y-32520660D01*
X35044015Y-32520660D01*
X35111054Y-32540345D01*
X35119501Y-32546284D01*
X35180705Y-32593247D01*
X35222757Y-32625515D01*
X35222759Y-32625515D01*
X35222761Y-32625517D01*
X35290201Y-32653451D01*
X35357646Y-32681388D01*
X35392876Y-32686026D01*
X35502399Y-32700445D01*
X35502400Y-32700445D01*
X35502401Y-32700445D01*
X35550651Y-32694092D01*
X35647154Y-32681388D01*
X35782043Y-32625515D01*
X35897874Y-32536634D01*
X35986755Y-32420803D01*
X36042628Y-32285914D01*
X36058841Y-32162764D01*
X36061685Y-32141161D01*
X36061685Y-32141158D01*
X36046504Y-32025845D01*
X36057270Y-31956810D01*
X36103650Y-31904554D01*
X36169443Y-31885660D01*
X37002738Y-31885660D01*
X37069777Y-31905345D01*
G37*
G04 #@! TD.AperFunction*
G04 #@! TA.AperFunction,Conductor*
G36*
X23425572Y-24720185D02*
G01*
X23471327Y-24772989D01*
X23481271Y-24842147D01*
X23452246Y-24905703D01*
X23446214Y-24912181D01*
X22507125Y-25851269D01*
X22507121Y-25851274D01*
X22457161Y-25937807D01*
X22457162Y-25937807D01*
X22457162Y-25937808D01*
X22431299Y-26034329D01*
X22431299Y-26144241D01*
X22431300Y-26144254D01*
X22431300Y-28935403D01*
X22411615Y-29002442D01*
X22394981Y-29023084D01*
X21917774Y-29500290D01*
X21856451Y-29533775D01*
X21786759Y-29528791D01*
X21730826Y-29486919D01*
X21706409Y-29421455D01*
X21721261Y-29353182D01*
X21725089Y-29346654D01*
X21779605Y-29259893D01*
X21906335Y-28996737D01*
X22002803Y-28721045D01*
X22067798Y-28436286D01*
X22073490Y-28385772D01*
X22090198Y-28237475D01*
X22100500Y-28146041D01*
X22100500Y-27853959D01*
X22085847Y-27723904D01*
X22067800Y-27563728D01*
X22067799Y-27563723D01*
X22067798Y-27563714D01*
X22002803Y-27278955D01*
X21906335Y-27003263D01*
X21779605Y-26740107D01*
X21624208Y-26492794D01*
X21442098Y-26264435D01*
X21235565Y-26057902D01*
X21007206Y-25875792D01*
X20823121Y-25760124D01*
X20759890Y-25720393D01*
X20496738Y-25593665D01*
X20221046Y-25497197D01*
X20221044Y-25497196D01*
X20001280Y-25447036D01*
X19936286Y-25432202D01*
X19936283Y-25432201D01*
X19936271Y-25432199D01*
X19646047Y-25399500D01*
X19646041Y-25399500D01*
X19353959Y-25399500D01*
X19353952Y-25399500D01*
X19063728Y-25432199D01*
X19063714Y-25432202D01*
X18778955Y-25497196D01*
X18778953Y-25497197D01*
X18503261Y-25593665D01*
X18240109Y-25720393D01*
X17992795Y-25875791D01*
X17764435Y-26057901D01*
X17557901Y-26264435D01*
X17375791Y-26492795D01*
X17220393Y-26740109D01*
X17093665Y-27003261D01*
X16997197Y-27278953D01*
X16997196Y-27278955D01*
X16932202Y-27563714D01*
X16932199Y-27563728D01*
X16899500Y-27853952D01*
X16899500Y-28146047D01*
X16932199Y-28436271D01*
X16932202Y-28436285D01*
X16997196Y-28721044D01*
X16997197Y-28721046D01*
X17093665Y-28996738D01*
X17220393Y-29259890D01*
X17220395Y-29259893D01*
X17375792Y-29507206D01*
X17487374Y-29647125D01*
X17534951Y-29706786D01*
X17557902Y-29735565D01*
X17764435Y-29942098D01*
X17992794Y-30124208D01*
X18240107Y-30279605D01*
X18503263Y-30406335D01*
X18778955Y-30502803D01*
X19063714Y-30567798D01*
X19063723Y-30567799D01*
X19063728Y-30567800D01*
X19256081Y-30589472D01*
X19353953Y-30600499D01*
X19353956Y-30600500D01*
X19353959Y-30600500D01*
X19646044Y-30600500D01*
X19646045Y-30600499D01*
X19821571Y-30580723D01*
X19936271Y-30567800D01*
X19936274Y-30567799D01*
X19936286Y-30567798D01*
X20221045Y-30502803D01*
X20496737Y-30406335D01*
X20759893Y-30279605D01*
X21007206Y-30124208D01*
X21235565Y-29942098D01*
X21418513Y-29759149D01*
X21479834Y-29725666D01*
X21549525Y-29730650D01*
X21605459Y-29772521D01*
X21629876Y-29837986D01*
X21625967Y-29878923D01*
X21618499Y-29906792D01*
X21618499Y-30016711D01*
X21618500Y-30016724D01*
X21618500Y-36623204D01*
X21598815Y-36690243D01*
X21582181Y-36710885D01*
X21462325Y-36830741D01*
X21401002Y-36864226D01*
X21374644Y-36867060D01*
X18767863Y-36867060D01*
X18700824Y-36847375D01*
X18656863Y-36798332D01*
X18601760Y-36687672D01*
X18589288Y-36662625D01*
X18506410Y-36552876D01*
X18465930Y-36499272D01*
X18314662Y-36361374D01*
X18314660Y-36361372D01*
X18140630Y-36253617D01*
X18140624Y-36253614D01*
X17976741Y-36190126D01*
X17949756Y-36179672D01*
X17748547Y-36142060D01*
X17543853Y-36142060D01*
X17342644Y-36179672D01*
X17342641Y-36179672D01*
X17342641Y-36179673D01*
X17151775Y-36253614D01*
X17151769Y-36253617D01*
X16977739Y-36361372D01*
X16977737Y-36361374D01*
X16826469Y-36499272D01*
X16703112Y-36662624D01*
X16611873Y-36845855D01*
X16606646Y-36864226D01*
X16569633Y-36994316D01*
X16555854Y-37042743D01*
X16536968Y-37246559D01*
X16536968Y-37246560D01*
X16555854Y-37450376D01*
X16555854Y-37450378D01*
X16555855Y-37450381D01*
X16611441Y-37645745D01*
X16611873Y-37647264D01*
X16703112Y-37830495D01*
X16826469Y-37993847D01*
X16977737Y-38131745D01*
X16977739Y-38131747D01*
X17151769Y-38239502D01*
X17151775Y-38239505D01*
X17178585Y-38249891D01*
X17342644Y-38313448D01*
X17543853Y-38351060D01*
X17543856Y-38351060D01*
X17748544Y-38351060D01*
X17748547Y-38351060D01*
X17949756Y-38313448D01*
X18140627Y-38239504D01*
X18314662Y-38131746D01*
X18448914Y-38009359D01*
X18465930Y-37993847D01*
X18465932Y-37993845D01*
X18589288Y-37830495D01*
X18630237Y-37748259D01*
X18656863Y-37694788D01*
X18704366Y-37643551D01*
X18767863Y-37626060D01*
X18970644Y-37626060D01*
X19037683Y-37645745D01*
X19083438Y-37698549D01*
X19093382Y-37767707D01*
X19064357Y-37831263D01*
X19058325Y-37837741D01*
X18170243Y-38725821D01*
X18108920Y-38759306D01*
X18039228Y-38754322D01*
X18037769Y-38753767D01*
X17949761Y-38719673D01*
X17949756Y-38719672D01*
X17748547Y-38682060D01*
X17543853Y-38682060D01*
X17342644Y-38719672D01*
X17342641Y-38719672D01*
X17342641Y-38719673D01*
X17151775Y-38793614D01*
X17151769Y-38793617D01*
X16977739Y-38901372D01*
X16977737Y-38901374D01*
X16826469Y-39039272D01*
X16703112Y-39202624D01*
X16611873Y-39385855D01*
X16606444Y-39404935D01*
X16556974Y-39578808D01*
X16555854Y-39582743D01*
X16536968Y-39786559D01*
X16536968Y-39786560D01*
X16555854Y-39990376D01*
X16555854Y-39990378D01*
X16555855Y-39990381D01*
X16611551Y-40186132D01*
X16611873Y-40187264D01*
X16703112Y-40370495D01*
X16826469Y-40533847D01*
X16977737Y-40671745D01*
X16977739Y-40671747D01*
X17099492Y-40747133D01*
X17146128Y-40799161D01*
X17157232Y-40868142D01*
X17129279Y-40932177D01*
X17071144Y-40970933D01*
X17034215Y-40976560D01*
X16748355Y-40976560D01*
X16688827Y-40982961D01*
X16688820Y-40982963D01*
X16554113Y-41033205D01*
X16554106Y-41033209D01*
X16439012Y-41119369D01*
X16439009Y-41119372D01*
X16423766Y-41139735D01*
X16367832Y-41181606D01*
X16298141Y-41186590D01*
X16236818Y-41153104D01*
X16203334Y-41091781D01*
X16200500Y-41065424D01*
X16200500Y-27503480D01*
X16200695Y-27496527D01*
X16205636Y-27408538D01*
X16217713Y-27193494D01*
X16219267Y-27179700D01*
X16269523Y-26883915D01*
X16272616Y-26870363D01*
X16276478Y-26856960D01*
X16355673Y-26582068D01*
X16360265Y-26568948D01*
X16391809Y-26492794D01*
X16475075Y-26291768D01*
X16481097Y-26279262D01*
X16626230Y-26016665D01*
X16633625Y-26004897D01*
X16807245Y-25760201D01*
X16815896Y-25749354D01*
X17015816Y-25525645D01*
X17025647Y-25515815D01*
X17249354Y-25315896D01*
X17260201Y-25307245D01*
X17504902Y-25133621D01*
X17516665Y-25126230D01*
X17779262Y-24981097D01*
X17791768Y-24975075D01*
X18015799Y-24882279D01*
X18068948Y-24860265D01*
X18082068Y-24855673D01*
X18370369Y-24772614D01*
X18383915Y-24769523D01*
X18679700Y-24719267D01*
X18693494Y-24717713D01*
X18996528Y-24700695D01*
X19003481Y-24700500D01*
X19039882Y-24700500D01*
X23358533Y-24700500D01*
X23425572Y-24720185D01*
G37*
G04 #@! TD.AperFunction*
G04 #@! TA.AperFunction,Conductor*
G36*
X66663632Y-34343745D02*
G01*
X66709387Y-34396549D01*
X66719331Y-34465707D01*
X66695547Y-34522786D01*
X66614113Y-34630621D01*
X66522873Y-34813855D01*
X66466854Y-35010743D01*
X66447968Y-35214559D01*
X66447968Y-35214560D01*
X66466854Y-35418376D01*
X66466854Y-35418378D01*
X66466855Y-35418381D01*
X66522099Y-35612543D01*
X66522873Y-35615264D01*
X66614112Y-35798495D01*
X66737469Y-35961847D01*
X66888737Y-36099745D01*
X66888739Y-36099747D01*
X67062769Y-36207502D01*
X67062775Y-36207505D01*
X67103210Y-36223169D01*
X67253644Y-36281448D01*
X67454853Y-36319060D01*
X67454856Y-36319060D01*
X67659544Y-36319060D01*
X67659547Y-36319060D01*
X67860756Y-36281448D01*
X67948771Y-36247350D01*
X68018389Y-36241488D01*
X68080129Y-36274197D01*
X68081242Y-36275296D01*
X68411381Y-36605435D01*
X68444866Y-36666758D01*
X68447700Y-36693116D01*
X68447700Y-36790955D01*
X68428015Y-36857994D01*
X68375211Y-36903749D01*
X68306053Y-36913693D01*
X68242497Y-36884668D01*
X68240162Y-36882592D01*
X68225663Y-36869374D01*
X68225660Y-36869372D01*
X68051630Y-36761617D01*
X68051624Y-36761614D01*
X67876628Y-36693821D01*
X67860756Y-36687672D01*
X67659547Y-36650060D01*
X67454853Y-36650060D01*
X67253644Y-36687672D01*
X67253641Y-36687672D01*
X67253641Y-36687673D01*
X67062775Y-36761614D01*
X67062769Y-36761617D01*
X66888739Y-36869372D01*
X66888737Y-36869374D01*
X66737469Y-37007272D01*
X66614112Y-37170624D01*
X66546537Y-37306332D01*
X66499034Y-37357569D01*
X66435537Y-37375060D01*
X64007536Y-37375060D01*
X64007520Y-37375059D01*
X63999924Y-37375059D01*
X63900000Y-37375059D01*
X63866444Y-37384050D01*
X63832888Y-37393042D01*
X63832887Y-37393041D01*
X63803482Y-37400921D01*
X63803477Y-37400923D01*
X63716946Y-37450881D01*
X63716941Y-37450885D01*
X62763582Y-38404245D01*
X62702259Y-38437730D01*
X62632567Y-38432746D01*
X62576634Y-38390874D01*
X62552217Y-38325410D01*
X62551901Y-38316564D01*
X62551901Y-36866401D01*
X62551901Y-36866399D01*
X62526039Y-36769879D01*
X62494536Y-36715314D01*
X62476079Y-36683345D01*
X62476078Y-36683344D01*
X62476077Y-36683342D01*
X62405420Y-36612685D01*
X62405419Y-36612684D01*
X62401089Y-36608354D01*
X62401078Y-36608344D01*
X61619546Y-35826812D01*
X61619544Y-35826809D01*
X61541820Y-35749085D01*
X61541815Y-35749081D01*
X61455284Y-35699123D01*
X61455277Y-35699120D01*
X61423972Y-35690731D01*
X61423972Y-35690732D01*
X61358762Y-35673259D01*
X61258838Y-35673259D01*
X61251242Y-35673259D01*
X61251226Y-35673260D01*
X61019371Y-35673260D01*
X60952332Y-35653575D01*
X60906577Y-35600771D01*
X60900395Y-35584198D01*
X60891128Y-35552642D01*
X60888534Y-35546963D01*
X60831401Y-35421859D01*
X60791470Y-35359725D01*
X60791460Y-35359713D01*
X60732148Y-35291262D01*
X60703123Y-35227706D01*
X60713067Y-35158548D01*
X60758822Y-35105744D01*
X60825861Y-35086060D01*
X61144426Y-35086060D01*
X61144442Y-35086061D01*
X61152038Y-35086061D01*
X61251960Y-35086061D01*
X61251962Y-35086061D01*
X61337976Y-35063013D01*
X61348482Y-35060198D01*
X61435019Y-35010236D01*
X61505676Y-34939579D01*
X61505676Y-34939577D01*
X61515880Y-34929374D01*
X61515883Y-34929369D01*
X62084875Y-34360379D01*
X62146198Y-34326894D01*
X62172556Y-34324060D01*
X66596593Y-34324060D01*
X66663632Y-34343745D01*
G37*
G04 #@! TD.AperFunction*
G04 #@! TA.AperFunction,Conductor*
G36*
X51456795Y-25809345D02*
G01*
X51502550Y-25862149D01*
X51512494Y-25931307D01*
X51488710Y-25988386D01*
X51471731Y-26010870D01*
X51368912Y-26147024D01*
X51277673Y-26330255D01*
X51221654Y-26527143D01*
X51202768Y-26730959D01*
X51202768Y-26730960D01*
X51221654Y-26934776D01*
X51221654Y-26934778D01*
X51221655Y-26934781D01*
X51241140Y-27003263D01*
X51277673Y-27131664D01*
X51368912Y-27314895D01*
X51492269Y-27478247D01*
X51643537Y-27616145D01*
X51643539Y-27616147D01*
X51817569Y-27723902D01*
X51817575Y-27723905D01*
X51817578Y-27723906D01*
X52008444Y-27797848D01*
X52209653Y-27835460D01*
X52209656Y-27835460D01*
X52414344Y-27835460D01*
X52414347Y-27835460D01*
X52615556Y-27797848D01*
X52806427Y-27723904D01*
X52980462Y-27616146D01*
X53131732Y-27478245D01*
X53255088Y-27314895D01*
X53346328Y-27131661D01*
X53402345Y-26934781D01*
X53421232Y-26730960D01*
X53402345Y-26527139D01*
X53346328Y-26330259D01*
X53255088Y-26147025D01*
X53135289Y-25988386D01*
X53110598Y-25923026D01*
X53125163Y-25854691D01*
X53174360Y-25805078D01*
X53234244Y-25789660D01*
X53929756Y-25789660D01*
X53996795Y-25809345D01*
X54042550Y-25862149D01*
X54052494Y-25931307D01*
X54028710Y-25988386D01*
X54011731Y-26010870D01*
X53908912Y-26147024D01*
X53817673Y-26330255D01*
X53761654Y-26527143D01*
X53742768Y-26730959D01*
X53742768Y-26730960D01*
X53761654Y-26934776D01*
X53761654Y-26934778D01*
X53761655Y-26934781D01*
X53781140Y-27003263D01*
X53817673Y-27131664D01*
X53908912Y-27314895D01*
X54032269Y-27478247D01*
X54183537Y-27616145D01*
X54183539Y-27616147D01*
X54357569Y-27723902D01*
X54357571Y-27723903D01*
X54357573Y-27723904D01*
X54357576Y-27723905D01*
X54357578Y-27723906D01*
X54433737Y-27753410D01*
X54489139Y-27795983D01*
X54512730Y-27861749D01*
X54497019Y-27929830D01*
X54446996Y-27978609D01*
X54421040Y-27988811D01*
X54388519Y-27997525D01*
X54388507Y-27997530D01*
X54174422Y-28097359D01*
X54174420Y-28097360D01*
X53980926Y-28232846D01*
X53980920Y-28232851D01*
X53813891Y-28399880D01*
X53813886Y-28399886D01*
X53678400Y-28593380D01*
X53678399Y-28593382D01*
X53578570Y-28807467D01*
X53578564Y-28807482D01*
X53571154Y-28835137D01*
X53534788Y-28894797D01*
X53471941Y-28925325D01*
X53402566Y-28917030D01*
X53348688Y-28872543D01*
X53340380Y-28858314D01*
X53328838Y-28835134D01*
X53255088Y-28687025D01*
X53131732Y-28523675D01*
X53131730Y-28523672D01*
X52980462Y-28385774D01*
X52980460Y-28385772D01*
X52806430Y-28278017D01*
X52806424Y-28278014D01*
X52655993Y-28219737D01*
X52615556Y-28204072D01*
X52414347Y-28166460D01*
X52209653Y-28166460D01*
X52008444Y-28204072D01*
X52008441Y-28204072D01*
X52008441Y-28204073D01*
X51817575Y-28278014D01*
X51817569Y-28278017D01*
X51643539Y-28385772D01*
X51643537Y-28385774D01*
X51492269Y-28523672D01*
X51368912Y-28687024D01*
X51277673Y-28870255D01*
X51221654Y-29067143D01*
X51202768Y-29270959D01*
X51202768Y-29270960D01*
X51221654Y-29474776D01*
X51221654Y-29474778D01*
X51221655Y-29474781D01*
X51274647Y-29661028D01*
X51277673Y-29671664D01*
X51368912Y-29854895D01*
X51492269Y-30018247D01*
X51643537Y-30156145D01*
X51643539Y-30156147D01*
X51817569Y-30263902D01*
X51817575Y-30263905D01*
X51853293Y-30277742D01*
X52008444Y-30337848D01*
X52209653Y-30375460D01*
X52209656Y-30375460D01*
X52414344Y-30375460D01*
X52414347Y-30375460D01*
X52615556Y-30337848D01*
X52806427Y-30263904D01*
X52980462Y-30156146D01*
X53131732Y-30018245D01*
X53255088Y-29854895D01*
X53340380Y-29683605D01*
X53387883Y-29632368D01*
X53455545Y-29614947D01*
X53521886Y-29636872D01*
X53565841Y-29691184D01*
X53571155Y-29706783D01*
X53578567Y-29734445D01*
X53578570Y-29734452D01*
X53678399Y-29948538D01*
X53813894Y-30142042D01*
X53980917Y-30309065D01*
X54174421Y-30444560D01*
X54388507Y-30544389D01*
X54388516Y-30544393D01*
X54602000Y-30601594D01*
X54602000Y-29703972D01*
X54659007Y-29736885D01*
X54786174Y-29770960D01*
X54917826Y-29770960D01*
X55044993Y-29736885D01*
X55102000Y-29703972D01*
X55102000Y-30601593D01*
X55315483Y-30544393D01*
X55315492Y-30544389D01*
X55529578Y-30444560D01*
X55723082Y-30309065D01*
X55890105Y-30142042D01*
X56025600Y-29948538D01*
X56125429Y-29734452D01*
X56125435Y-29734438D01*
X56132844Y-29706786D01*
X56169207Y-29647125D01*
X56232054Y-29616594D01*
X56301429Y-29624888D01*
X56355308Y-29669372D01*
X56363619Y-29683605D01*
X56448912Y-29854895D01*
X56572269Y-30018247D01*
X56723537Y-30156145D01*
X56723539Y-30156147D01*
X56897569Y-30263902D01*
X56897571Y-30263903D01*
X56897573Y-30263904D01*
X56897576Y-30263905D01*
X56897578Y-30263906D01*
X56933293Y-30277742D01*
X56988695Y-30320314D01*
X57012286Y-30386081D01*
X57012500Y-30393369D01*
X57012500Y-32984952D01*
X56992815Y-33051991D01*
X56986876Y-33060438D01*
X56912845Y-33156917D01*
X56912843Y-33156920D01*
X56856972Y-33291805D01*
X56856971Y-33291807D01*
X56837915Y-33436558D01*
X56837915Y-33436561D01*
X56856971Y-33581312D01*
X56856973Y-33581317D01*
X56912842Y-33716198D01*
X56912845Y-33716204D01*
X57001725Y-33832033D01*
X57001726Y-33832034D01*
X57117555Y-33920914D01*
X57117561Y-33920917D01*
X57167683Y-33941678D01*
X57252446Y-33976788D01*
X57324823Y-33986316D01*
X57397199Y-33995845D01*
X57397200Y-33995845D01*
X57397201Y-33995845D01*
X57449740Y-33988928D01*
X57541954Y-33976788D01*
X57676843Y-33920915D01*
X57792674Y-33832034D01*
X57792676Y-33832032D01*
X57797734Y-33826975D01*
X57859059Y-33793493D01*
X57885411Y-33790660D01*
X58021429Y-33790660D01*
X58088468Y-33810345D01*
X58134223Y-33863149D01*
X58140405Y-33879722D01*
X58149671Y-33911277D01*
X58209395Y-34042054D01*
X58209401Y-34042065D01*
X58249327Y-34104190D01*
X58249332Y-34104198D01*
X58264635Y-34121858D01*
X58293659Y-34185414D01*
X58283715Y-34254572D01*
X58237960Y-34307376D01*
X58170921Y-34327060D01*
X56589756Y-34327060D01*
X56522717Y-34307375D01*
X56502075Y-34290741D01*
X54228156Y-32016822D01*
X54228154Y-32016819D01*
X54150430Y-31939095D01*
X54150425Y-31939091D01*
X54063895Y-31889133D01*
X54063892Y-31889132D01*
X54043494Y-31883666D01*
X53967372Y-31863269D01*
X53867448Y-31863269D01*
X53859852Y-31863269D01*
X53859836Y-31863270D01*
X52571503Y-31863270D01*
X52504464Y-31843585D01*
X52458709Y-31790781D01*
X52448765Y-31721623D01*
X52450916Y-31710567D01*
X52450964Y-31710165D01*
X52450966Y-31710162D01*
X52469568Y-31556960D01*
X52466059Y-31528056D01*
X52450966Y-31403757D01*
X52429415Y-31346931D01*
X52396241Y-31259459D01*
X52308573Y-31132450D01*
X52308571Y-31132448D01*
X52193058Y-31030112D01*
X52056405Y-30958392D01*
X51906564Y-30921460D01*
X51752236Y-30921460D01*
X51602394Y-30958392D01*
X51465738Y-31030114D01*
X51465164Y-31030511D01*
X51464676Y-31030671D01*
X51459101Y-31033598D01*
X51458614Y-31032670D01*
X51398809Y-31052393D01*
X51394726Y-31052460D01*
X48174674Y-31052460D01*
X48110317Y-31033562D01*
X48110299Y-31033598D01*
X48110122Y-31033505D01*
X48107635Y-31032775D01*
X48104236Y-31030511D01*
X48103661Y-31030114D01*
X48007844Y-30979826D01*
X47967007Y-30958393D01*
X47967006Y-30958392D01*
X47967005Y-30958392D01*
X47817164Y-30921460D01*
X47662836Y-30921460D01*
X47512994Y-30958392D01*
X47376338Y-31030114D01*
X47375764Y-31030511D01*
X47375276Y-31030671D01*
X47369701Y-31033598D01*
X47369214Y-31032670D01*
X47309409Y-31052393D01*
X47305326Y-31052460D01*
X47270113Y-31052460D01*
X47203074Y-31032775D01*
X47182432Y-31016141D01*
X46651466Y-30485175D01*
X46617981Y-30423852D01*
X46622965Y-30354160D01*
X46664837Y-30298227D01*
X46730301Y-30273810D01*
X46783940Y-30281866D01*
X46928444Y-30337848D01*
X47129653Y-30375460D01*
X47129656Y-30375460D01*
X47334344Y-30375460D01*
X47334347Y-30375460D01*
X47535556Y-30337848D01*
X47726427Y-30263904D01*
X47900462Y-30156146D01*
X48051732Y-30018245D01*
X48175088Y-29854895D01*
X48266328Y-29671661D01*
X48322345Y-29474781D01*
X48341232Y-29270960D01*
X48341232Y-29270959D01*
X48662768Y-29270959D01*
X48662768Y-29270960D01*
X48681654Y-29474776D01*
X48681654Y-29474778D01*
X48681655Y-29474781D01*
X48734647Y-29661028D01*
X48737673Y-29671664D01*
X48828912Y-29854895D01*
X48952269Y-30018247D01*
X49103537Y-30156145D01*
X49103539Y-30156147D01*
X49277569Y-30263902D01*
X49277575Y-30263905D01*
X49313293Y-30277742D01*
X49468444Y-30337848D01*
X49669653Y-30375460D01*
X49669656Y-30375460D01*
X49874344Y-30375460D01*
X49874347Y-30375460D01*
X50075556Y-30337848D01*
X50266427Y-30263904D01*
X50440462Y-30156146D01*
X50591732Y-30018245D01*
X50715088Y-29854895D01*
X50806328Y-29671661D01*
X50862345Y-29474781D01*
X50881232Y-29270960D01*
X50880206Y-29259893D01*
X50862345Y-29067143D01*
X50862345Y-29067139D01*
X50806328Y-28870259D01*
X50715088Y-28687025D01*
X50591732Y-28523675D01*
X50591730Y-28523672D01*
X50440462Y-28385774D01*
X50440460Y-28385772D01*
X50266430Y-28278017D01*
X50266424Y-28278014D01*
X50115993Y-28219737D01*
X50075556Y-28204072D01*
X49874347Y-28166460D01*
X49669653Y-28166460D01*
X49468444Y-28204072D01*
X49468441Y-28204072D01*
X49468441Y-28204073D01*
X49277575Y-28278014D01*
X49277569Y-28278017D01*
X49103539Y-28385772D01*
X49103537Y-28385774D01*
X48952269Y-28523672D01*
X48828912Y-28687024D01*
X48737673Y-28870255D01*
X48681654Y-29067143D01*
X48662768Y-29270959D01*
X48341232Y-29270959D01*
X48340206Y-29259893D01*
X48322345Y-29067143D01*
X48322345Y-29067139D01*
X48266328Y-28870259D01*
X48175088Y-28687025D01*
X48051732Y-28523675D01*
X48051730Y-28523672D01*
X47900462Y-28385774D01*
X47900460Y-28385772D01*
X47726430Y-28278017D01*
X47726424Y-28278014D01*
X47650261Y-28248509D01*
X47594859Y-28205936D01*
X47571269Y-28140169D01*
X47586980Y-28072089D01*
X47637004Y-28023310D01*
X47662963Y-28013107D01*
X47695481Y-28004394D01*
X47695492Y-28004389D01*
X47909578Y-27904560D01*
X48103082Y-27769065D01*
X48270105Y-27602042D01*
X48405600Y-27408538D01*
X48505429Y-27194452D01*
X48505435Y-27194438D01*
X48512844Y-27166786D01*
X48549207Y-27107125D01*
X48612054Y-27076594D01*
X48681429Y-27084888D01*
X48735308Y-27129372D01*
X48743619Y-27143605D01*
X48828912Y-27314895D01*
X48952269Y-27478247D01*
X49103537Y-27616145D01*
X49103539Y-27616147D01*
X49277569Y-27723902D01*
X49277575Y-27723905D01*
X49277578Y-27723906D01*
X49468444Y-27797848D01*
X49669653Y-27835460D01*
X49669656Y-27835460D01*
X49874344Y-27835460D01*
X49874347Y-27835460D01*
X50075556Y-27797848D01*
X50266427Y-27723904D01*
X50440462Y-27616146D01*
X50591732Y-27478245D01*
X50715088Y-27314895D01*
X50806328Y-27131661D01*
X50862345Y-26934781D01*
X50881232Y-26730960D01*
X50862345Y-26527139D01*
X50806328Y-26330259D01*
X50715088Y-26147025D01*
X50595289Y-25988386D01*
X50570598Y-25923026D01*
X50585163Y-25854691D01*
X50634360Y-25805078D01*
X50694244Y-25789660D01*
X51389756Y-25789660D01*
X51456795Y-25809345D01*
G37*
G04 #@! TD.AperFunction*
G04 #@! TA.AperFunction,Conductor*
G36*
X24778705Y-30395144D02*
G01*
X24799347Y-30411778D01*
X25772430Y-31384861D01*
X25845362Y-31426968D01*
X25887470Y-31451279D01*
X26015781Y-31485660D01*
X26513793Y-31485660D01*
X26580832Y-31505345D01*
X26626587Y-31558149D01*
X26636531Y-31627307D01*
X26607506Y-31690863D01*
X26589280Y-31708035D01*
X26569928Y-31722884D01*
X26569927Y-31722885D01*
X26569926Y-31722886D01*
X26515005Y-31794461D01*
X26481043Y-31838721D01*
X26425172Y-31973605D01*
X26425171Y-31973607D01*
X26406115Y-32118358D01*
X26406115Y-32118361D01*
X26425171Y-32263112D01*
X26425173Y-32263117D01*
X26425625Y-32264208D01*
X26425731Y-32265202D01*
X26427276Y-32270965D01*
X26426377Y-32271205D01*
X26433094Y-32333677D01*
X26401818Y-32396156D01*
X26341729Y-32431808D01*
X26311064Y-32435660D01*
X24998761Y-32435660D01*
X24931722Y-32415975D01*
X24885967Y-32363171D01*
X24884200Y-32359113D01*
X24862585Y-32306932D01*
X24862584Y-32306929D01*
X24773703Y-32191097D01*
X24657872Y-32102216D01*
X24657869Y-32102215D01*
X24657867Y-32102213D01*
X24522986Y-32046344D01*
X24522981Y-32046342D01*
X24378230Y-32027286D01*
X24378228Y-32027286D01*
X24233476Y-32046342D01*
X24233474Y-32046343D01*
X24098590Y-32102214D01*
X24098587Y-32102215D01*
X24098587Y-32102216D01*
X23982755Y-32191097D01*
X23910000Y-32285914D01*
X23893872Y-32306932D01*
X23838001Y-32441816D01*
X23838000Y-32441818D01*
X23818944Y-32586569D01*
X23818944Y-32586572D01*
X23838000Y-32731323D01*
X23838002Y-32731328D01*
X23886734Y-32848979D01*
X23894203Y-32918448D01*
X23862927Y-32980927D01*
X23837451Y-33001858D01*
X23703536Y-33084775D01*
X23552269Y-33222672D01*
X23428910Y-33386027D01*
X23425298Y-33393281D01*
X23377794Y-33444517D01*
X23310130Y-33461936D01*
X23243791Y-33440008D01*
X23199837Y-33385696D01*
X23190300Y-33338006D01*
X23190300Y-31060425D01*
X23209985Y-30993386D01*
X23262789Y-30947631D01*
X23266765Y-30945899D01*
X23381643Y-30898315D01*
X23497474Y-30809434D01*
X23586355Y-30693603D01*
X23642228Y-30558714D01*
X23651196Y-30490588D01*
X23652160Y-30483273D01*
X23680427Y-30419377D01*
X23738751Y-30380906D01*
X23775099Y-30375459D01*
X24711666Y-30375459D01*
X24778705Y-30395144D01*
G37*
G04 #@! TD.AperFunction*
G04 #@! TA.AperFunction,Conductor*
G36*
X56536795Y-25809345D02*
G01*
X56582550Y-25862149D01*
X56592494Y-25931307D01*
X56568710Y-25988386D01*
X56551731Y-26010870D01*
X56448912Y-26147024D01*
X56357673Y-26330255D01*
X56301654Y-26527143D01*
X56282768Y-26730959D01*
X56282768Y-26730960D01*
X56301654Y-26934776D01*
X56301654Y-26934778D01*
X56301655Y-26934781D01*
X56321140Y-27003263D01*
X56357673Y-27131664D01*
X56448912Y-27314895D01*
X56572269Y-27478247D01*
X56723537Y-27616145D01*
X56723539Y-27616147D01*
X56897569Y-27723902D01*
X56897575Y-27723905D01*
X56897578Y-27723906D01*
X57088444Y-27797848D01*
X57289653Y-27835460D01*
X57289656Y-27835460D01*
X57494344Y-27835460D01*
X57494347Y-27835460D01*
X57695556Y-27797848D01*
X57886427Y-27723904D01*
X58060462Y-27616146D01*
X58211732Y-27478245D01*
X58335088Y-27314895D01*
X58420380Y-27143605D01*
X58467883Y-27092368D01*
X58535545Y-27074947D01*
X58601886Y-27096872D01*
X58645841Y-27151184D01*
X58651155Y-27166783D01*
X58658567Y-27194445D01*
X58658570Y-27194452D01*
X58758399Y-27408538D01*
X58893894Y-27602042D01*
X59060917Y-27769065D01*
X59254421Y-27904560D01*
X59468507Y-28004389D01*
X59468516Y-28004393D01*
X59501037Y-28013107D01*
X59560698Y-28049472D01*
X59591227Y-28112318D01*
X59582933Y-28181694D01*
X59538448Y-28235572D01*
X59513739Y-28248508D01*
X59437581Y-28278012D01*
X59437569Y-28278017D01*
X59263539Y-28385772D01*
X59263537Y-28385774D01*
X59112269Y-28523672D01*
X58988912Y-28687024D01*
X58897673Y-28870255D01*
X58841654Y-29067143D01*
X58822768Y-29270959D01*
X58822768Y-29270960D01*
X58841654Y-29474776D01*
X58841654Y-29474778D01*
X58841655Y-29474781D01*
X58894647Y-29661028D01*
X58897673Y-29671664D01*
X58988912Y-29854895D01*
X59112269Y-30018247D01*
X59263537Y-30156145D01*
X59263539Y-30156147D01*
X59437569Y-30263902D01*
X59437575Y-30263905D01*
X59473293Y-30277742D01*
X59628444Y-30337848D01*
X59829653Y-30375460D01*
X59829656Y-30375460D01*
X60034344Y-30375460D01*
X60034347Y-30375460D01*
X60235556Y-30337848D01*
X60426427Y-30263904D01*
X60600462Y-30156146D01*
X60751732Y-30018245D01*
X60875088Y-29854895D01*
X60966328Y-29671661D01*
X61022345Y-29474781D01*
X61041232Y-29270960D01*
X61041232Y-29270959D01*
X61362768Y-29270959D01*
X61362768Y-29270960D01*
X61381654Y-29474776D01*
X61381654Y-29474778D01*
X61381655Y-29474781D01*
X61434647Y-29661028D01*
X61437673Y-29671664D01*
X61528912Y-29854895D01*
X61652269Y-30018247D01*
X61803537Y-30156145D01*
X61803539Y-30156147D01*
X61977569Y-30263902D01*
X61977575Y-30263905D01*
X62013293Y-30277742D01*
X62168444Y-30337848D01*
X62369653Y-30375460D01*
X62369656Y-30375460D01*
X62574344Y-30375460D01*
X62574347Y-30375460D01*
X62775556Y-30337848D01*
X62966427Y-30263904D01*
X63140462Y-30156146D01*
X63291732Y-30018245D01*
X63415088Y-29854895D01*
X63506328Y-29671661D01*
X63562345Y-29474781D01*
X63581232Y-29270960D01*
X63580206Y-29259893D01*
X63562345Y-29067143D01*
X63562345Y-29067139D01*
X63506328Y-28870259D01*
X63415088Y-28687025D01*
X63291732Y-28523675D01*
X63291730Y-28523672D01*
X63140462Y-28385774D01*
X63140460Y-28385772D01*
X62966430Y-28278017D01*
X62966424Y-28278014D01*
X62815993Y-28219737D01*
X62775556Y-28204072D01*
X62574347Y-28166460D01*
X62369653Y-28166460D01*
X62168444Y-28204072D01*
X62168441Y-28204072D01*
X62168441Y-28204073D01*
X61977575Y-28278014D01*
X61977569Y-28278017D01*
X61803539Y-28385772D01*
X61803537Y-28385774D01*
X61652269Y-28523672D01*
X61528912Y-28687024D01*
X61437673Y-28870255D01*
X61381654Y-29067143D01*
X61362768Y-29270959D01*
X61041232Y-29270959D01*
X61040206Y-29259893D01*
X61022345Y-29067143D01*
X61022345Y-29067139D01*
X60966328Y-28870259D01*
X60875088Y-28687025D01*
X60751732Y-28523675D01*
X60751730Y-28523672D01*
X60600462Y-28385774D01*
X60600460Y-28385772D01*
X60426430Y-28278017D01*
X60426424Y-28278014D01*
X60350261Y-28248509D01*
X60294859Y-28205936D01*
X60271269Y-28140169D01*
X60286980Y-28072089D01*
X60337004Y-28023310D01*
X60362963Y-28013107D01*
X60395481Y-28004394D01*
X60395492Y-28004389D01*
X60609578Y-27904560D01*
X60803082Y-27769065D01*
X60970105Y-27602042D01*
X61105600Y-27408538D01*
X61205429Y-27194452D01*
X61205435Y-27194438D01*
X61212844Y-27166786D01*
X61249207Y-27107125D01*
X61312054Y-27076594D01*
X61381429Y-27084888D01*
X61435308Y-27129372D01*
X61443619Y-27143605D01*
X61528912Y-27314895D01*
X61652269Y-27478247D01*
X61803537Y-27616145D01*
X61803539Y-27616147D01*
X61977569Y-27723902D01*
X61977575Y-27723905D01*
X61977578Y-27723906D01*
X62168444Y-27797848D01*
X62369653Y-27835460D01*
X62369656Y-27835460D01*
X62574344Y-27835460D01*
X62574347Y-27835460D01*
X62775556Y-27797848D01*
X62966427Y-27723904D01*
X63140462Y-27616146D01*
X63291732Y-27478245D01*
X63415088Y-27314895D01*
X63500380Y-27143605D01*
X63547883Y-27092368D01*
X63615545Y-27074947D01*
X63681886Y-27096872D01*
X63725841Y-27151184D01*
X63731155Y-27166783D01*
X63738567Y-27194445D01*
X63738570Y-27194452D01*
X63838399Y-27408538D01*
X63973894Y-27602042D01*
X64140917Y-27769065D01*
X64334421Y-27904560D01*
X64548507Y-28004389D01*
X64548516Y-28004393D01*
X64581037Y-28013107D01*
X64640698Y-28049472D01*
X64671227Y-28112318D01*
X64662933Y-28181694D01*
X64618448Y-28235572D01*
X64593739Y-28248508D01*
X64517581Y-28278012D01*
X64517569Y-28278017D01*
X64343539Y-28385772D01*
X64343537Y-28385774D01*
X64192269Y-28523672D01*
X64068912Y-28687024D01*
X63977673Y-28870255D01*
X63921654Y-29067143D01*
X63902768Y-29270959D01*
X63902768Y-29270960D01*
X63921654Y-29474776D01*
X63921654Y-29474778D01*
X63921655Y-29474781D01*
X63974647Y-29661028D01*
X63977673Y-29671664D01*
X64068912Y-29854895D01*
X64192269Y-30018247D01*
X64343537Y-30156145D01*
X64343539Y-30156147D01*
X64517569Y-30263902D01*
X64517575Y-30263905D01*
X64553293Y-30277742D01*
X64708444Y-30337848D01*
X64909653Y-30375460D01*
X64909656Y-30375460D01*
X65114344Y-30375460D01*
X65114347Y-30375460D01*
X65315556Y-30337848D01*
X65506427Y-30263904D01*
X65680462Y-30156146D01*
X65831732Y-30018245D01*
X65955088Y-29854895D01*
X66046328Y-29671661D01*
X66102345Y-29474781D01*
X66121232Y-29270960D01*
X66120206Y-29259893D01*
X66102345Y-29067143D01*
X66102345Y-29067139D01*
X66046328Y-28870259D01*
X65955088Y-28687025D01*
X65831732Y-28523675D01*
X65831730Y-28523672D01*
X65680462Y-28385774D01*
X65680460Y-28385772D01*
X65506430Y-28278017D01*
X65506424Y-28278014D01*
X65430261Y-28248509D01*
X65374859Y-28205936D01*
X65351269Y-28140169D01*
X65366980Y-28072089D01*
X65417004Y-28023310D01*
X65442963Y-28013107D01*
X65475481Y-28004394D01*
X65475492Y-28004389D01*
X65689578Y-27904560D01*
X65883082Y-27769065D01*
X66050105Y-27602042D01*
X66185600Y-27408538D01*
X66285429Y-27194452D01*
X66285435Y-27194438D01*
X66292844Y-27166786D01*
X66329207Y-27107125D01*
X66392054Y-27076594D01*
X66461429Y-27084888D01*
X66515308Y-27129372D01*
X66523619Y-27143605D01*
X66608912Y-27314895D01*
X66732269Y-27478247D01*
X66883537Y-27616145D01*
X66883539Y-27616147D01*
X67057569Y-27723902D01*
X67057575Y-27723905D01*
X67057578Y-27723906D01*
X67248444Y-27797848D01*
X67449653Y-27835460D01*
X67449656Y-27835460D01*
X67654344Y-27835460D01*
X67654347Y-27835460D01*
X67855556Y-27797848D01*
X68046427Y-27723904D01*
X68220462Y-27616146D01*
X68371732Y-27478245D01*
X68495088Y-27314895D01*
X68586328Y-27131661D01*
X68642345Y-26934781D01*
X68661232Y-26730960D01*
X68642345Y-26527139D01*
X68586328Y-26330259D01*
X68495088Y-26147025D01*
X68375289Y-25988386D01*
X68350598Y-25923026D01*
X68365163Y-25854691D01*
X68414360Y-25805078D01*
X68474244Y-25789660D01*
X69169756Y-25789660D01*
X69236795Y-25809345D01*
X69282550Y-25862149D01*
X69292494Y-25931307D01*
X69268710Y-25988386D01*
X69251731Y-26010870D01*
X69148912Y-26147024D01*
X69057673Y-26330255D01*
X69001654Y-26527143D01*
X68982768Y-26730959D01*
X68982768Y-26730960D01*
X69001654Y-26934776D01*
X69001654Y-26934778D01*
X69001655Y-26934781D01*
X69021140Y-27003263D01*
X69057673Y-27131664D01*
X69148912Y-27314895D01*
X69272269Y-27478247D01*
X69423537Y-27616145D01*
X69423539Y-27616147D01*
X69597569Y-27723902D01*
X69597575Y-27723905D01*
X69597578Y-27723906D01*
X69788444Y-27797848D01*
X69989653Y-27835460D01*
X69989656Y-27835460D01*
X70194344Y-27835460D01*
X70194347Y-27835460D01*
X70395556Y-27797848D01*
X70586427Y-27723904D01*
X70760462Y-27616146D01*
X70911732Y-27478245D01*
X71035088Y-27314895D01*
X71126328Y-27131661D01*
X71182345Y-26934781D01*
X71201232Y-26730960D01*
X71182345Y-26527139D01*
X71126328Y-26330259D01*
X71035088Y-26147025D01*
X70915289Y-25988386D01*
X70890598Y-25923026D01*
X70905163Y-25854691D01*
X70954360Y-25805078D01*
X71014244Y-25789660D01*
X71709756Y-25789660D01*
X71776795Y-25809345D01*
X71822550Y-25862149D01*
X71832494Y-25931307D01*
X71808710Y-25988386D01*
X71791731Y-26010870D01*
X71688912Y-26147024D01*
X71597673Y-26330255D01*
X71541654Y-26527143D01*
X71522768Y-26730959D01*
X71522768Y-26730960D01*
X71541654Y-26934776D01*
X71541654Y-26934778D01*
X71541655Y-26934781D01*
X71561140Y-27003263D01*
X71597673Y-27131664D01*
X71688912Y-27314895D01*
X71812269Y-27478247D01*
X71963537Y-27616145D01*
X71963539Y-27616147D01*
X72137569Y-27723902D01*
X72137571Y-27723903D01*
X72137573Y-27723904D01*
X72137576Y-27723905D01*
X72137578Y-27723906D01*
X72213737Y-27753410D01*
X72269139Y-27795983D01*
X72292730Y-27861749D01*
X72277019Y-27929830D01*
X72226996Y-27978609D01*
X72201040Y-27988811D01*
X72168519Y-27997525D01*
X72168507Y-27997530D01*
X71954422Y-28097359D01*
X71954420Y-28097360D01*
X71760926Y-28232846D01*
X71760920Y-28232851D01*
X71593891Y-28399880D01*
X71593886Y-28399886D01*
X71458400Y-28593380D01*
X71458399Y-28593382D01*
X71358570Y-28807467D01*
X71358564Y-28807482D01*
X71351154Y-28835137D01*
X71314788Y-28894797D01*
X71251941Y-28925325D01*
X71182566Y-28917030D01*
X71128688Y-28872543D01*
X71120380Y-28858314D01*
X71108838Y-28835134D01*
X71035088Y-28687025D01*
X70911732Y-28523675D01*
X70911730Y-28523672D01*
X70760462Y-28385774D01*
X70760460Y-28385772D01*
X70586430Y-28278017D01*
X70586424Y-28278014D01*
X70435993Y-28219737D01*
X70395556Y-28204072D01*
X70194347Y-28166460D01*
X69989653Y-28166460D01*
X69788444Y-28204072D01*
X69788441Y-28204072D01*
X69788441Y-28204073D01*
X69597575Y-28278014D01*
X69597569Y-28278017D01*
X69423539Y-28385772D01*
X69423537Y-28385774D01*
X69272269Y-28523672D01*
X69148912Y-28687024D01*
X69057673Y-28870255D01*
X69001654Y-29067143D01*
X68982768Y-29270959D01*
X68982768Y-29270960D01*
X69001654Y-29474776D01*
X69001654Y-29474778D01*
X69001655Y-29474781D01*
X69054647Y-29661028D01*
X69057673Y-29671664D01*
X69148912Y-29854895D01*
X69272269Y-30018247D01*
X69423537Y-30156145D01*
X69423539Y-30156147D01*
X69597569Y-30263902D01*
X69597575Y-30263905D01*
X69633293Y-30277742D01*
X69788444Y-30337848D01*
X69989653Y-30375460D01*
X69989656Y-30375460D01*
X70194344Y-30375460D01*
X70194347Y-30375460D01*
X70395556Y-30337848D01*
X70483571Y-30303750D01*
X70553189Y-30297888D01*
X70614929Y-30330597D01*
X70616042Y-30331696D01*
X70779125Y-30494779D01*
X70812610Y-30556102D01*
X70807626Y-30625794D01*
X70765754Y-30681727D01*
X70700290Y-30706144D01*
X70691444Y-30706460D01*
X69216936Y-30706460D01*
X69142698Y-30721226D01*
X69058515Y-30777475D01*
X69002266Y-30861659D01*
X69002264Y-30861663D01*
X68987500Y-30935888D01*
X68987500Y-32451462D01*
X68967815Y-32518501D01*
X68915011Y-32564256D01*
X68845853Y-32574200D01*
X68782297Y-32545175D01*
X68775819Y-32539143D01*
X67967819Y-31731143D01*
X67934334Y-31669820D01*
X67931500Y-31643462D01*
X67931500Y-30393369D01*
X67951185Y-30326330D01*
X68003989Y-30280575D01*
X68010707Y-30277742D01*
X68018910Y-30274564D01*
X68046427Y-30263904D01*
X68220462Y-30156146D01*
X68371732Y-30018245D01*
X68495088Y-29854895D01*
X68586328Y-29671661D01*
X68642345Y-29474781D01*
X68661232Y-29270960D01*
X68660206Y-29259893D01*
X68642345Y-29067143D01*
X68642345Y-29067139D01*
X68586328Y-28870259D01*
X68495088Y-28687025D01*
X68371732Y-28523675D01*
X68371730Y-28523672D01*
X68220462Y-28385774D01*
X68220460Y-28385772D01*
X68046430Y-28278017D01*
X68046424Y-28278014D01*
X67895993Y-28219737D01*
X67855556Y-28204072D01*
X67654347Y-28166460D01*
X67449653Y-28166460D01*
X67248444Y-28204072D01*
X67248441Y-28204072D01*
X67248441Y-28204073D01*
X67057575Y-28278014D01*
X67057569Y-28278017D01*
X66883539Y-28385772D01*
X66883537Y-28385774D01*
X66732269Y-28523672D01*
X66608912Y-28687024D01*
X66517673Y-28870255D01*
X66461654Y-29067143D01*
X66442768Y-29270959D01*
X66442768Y-29270960D01*
X66461654Y-29474776D01*
X66461654Y-29474778D01*
X66461655Y-29474781D01*
X66514647Y-29661028D01*
X66517673Y-29671664D01*
X66608912Y-29854895D01*
X66732269Y-30018247D01*
X66883537Y-30156145D01*
X66883539Y-30156147D01*
X67057569Y-30263902D01*
X67057571Y-30263903D01*
X67057573Y-30263904D01*
X67057576Y-30263905D01*
X67057578Y-30263906D01*
X67093293Y-30277742D01*
X67148695Y-30320314D01*
X67172286Y-30386081D01*
X67172500Y-30393369D01*
X67172500Y-31794443D01*
X67172499Y-31794461D01*
X67172499Y-31901982D01*
X67185397Y-31950114D01*
X67185397Y-31950116D01*
X67185398Y-31950116D01*
X67185398Y-31950117D01*
X67187550Y-31958149D01*
X67198362Y-31998501D01*
X67198363Y-31998502D01*
X67248321Y-32085033D01*
X67248325Y-32085038D01*
X67326046Y-32162759D01*
X67326052Y-32162764D01*
X67703867Y-32540579D01*
X67737352Y-32601902D01*
X67732368Y-32671594D01*
X67690496Y-32727527D01*
X67625032Y-32751944D01*
X67616186Y-32752260D01*
X62701692Y-32752260D01*
X62634653Y-32732575D01*
X62614011Y-32715941D01*
X61559282Y-31661212D01*
X61559280Y-31661209D01*
X61481556Y-31583485D01*
X61481551Y-31583481D01*
X61395021Y-31533523D01*
X61395018Y-31533522D01*
X61374620Y-31528056D01*
X61298498Y-31507659D01*
X61198574Y-31507659D01*
X61190978Y-31507659D01*
X61190962Y-31507660D01*
X59125585Y-31507660D01*
X59058546Y-31487975D01*
X59050099Y-31482036D01*
X58946843Y-31402805D01*
X58946838Y-31402802D01*
X58811957Y-31346933D01*
X58811952Y-31346931D01*
X58667201Y-31327875D01*
X58667199Y-31327875D01*
X58522447Y-31346931D01*
X58522445Y-31346932D01*
X58387561Y-31402803D01*
X58387558Y-31402804D01*
X58387558Y-31402805D01*
X58271726Y-31491686D01*
X58259470Y-31507659D01*
X58182843Y-31607521D01*
X58126972Y-31742405D01*
X58126971Y-31742407D01*
X58107915Y-31887158D01*
X58107915Y-31887161D01*
X58126971Y-32031912D01*
X58126973Y-32031917D01*
X58182842Y-32166798D01*
X58182845Y-32166804D01*
X58222985Y-32219114D01*
X58271726Y-32282634D01*
X58387557Y-32371515D01*
X58387560Y-32371516D01*
X58389220Y-32372790D01*
X58430422Y-32429218D01*
X58434577Y-32498965D01*
X58400364Y-32559885D01*
X58394937Y-32564878D01*
X58343484Y-32609463D01*
X58249338Y-32718113D01*
X58249327Y-32718129D01*
X58209401Y-32780254D01*
X58209395Y-32780265D01*
X58149671Y-32911042D01*
X58140405Y-32942598D01*
X58102630Y-33001375D01*
X58039073Y-33030398D01*
X58021429Y-33031660D01*
X57895500Y-33031660D01*
X57828461Y-33011975D01*
X57782706Y-32959171D01*
X57771500Y-32907660D01*
X57771500Y-30393369D01*
X57791185Y-30326330D01*
X57843989Y-30280575D01*
X57850707Y-30277742D01*
X57858910Y-30274564D01*
X57886427Y-30263904D01*
X58060462Y-30156146D01*
X58211732Y-30018245D01*
X58335088Y-29854895D01*
X58426328Y-29671661D01*
X58482345Y-29474781D01*
X58501232Y-29270960D01*
X58500206Y-29259893D01*
X58482345Y-29067143D01*
X58482345Y-29067139D01*
X58426328Y-28870259D01*
X58335088Y-28687025D01*
X58211732Y-28523675D01*
X58211730Y-28523672D01*
X58060462Y-28385774D01*
X58060460Y-28385772D01*
X57886430Y-28278017D01*
X57886424Y-28278014D01*
X57735993Y-28219737D01*
X57695556Y-28204072D01*
X57494347Y-28166460D01*
X57289653Y-28166460D01*
X57088444Y-28204072D01*
X57088441Y-28204072D01*
X57088441Y-28204073D01*
X56897575Y-28278014D01*
X56897569Y-28278017D01*
X56723539Y-28385772D01*
X56723537Y-28385774D01*
X56572269Y-28523672D01*
X56448912Y-28687024D01*
X56363619Y-28858314D01*
X56316116Y-28909551D01*
X56248453Y-28926972D01*
X56182112Y-28905046D01*
X56138158Y-28850735D01*
X56132844Y-28835134D01*
X56125434Y-28807478D01*
X56125429Y-28807467D01*
X56025600Y-28593382D01*
X56025599Y-28593380D01*
X55890113Y-28399886D01*
X55890108Y-28399880D01*
X55723082Y-28232854D01*
X55529578Y-28097359D01*
X55315492Y-27997530D01*
X55315477Y-27997524D01*
X55282960Y-27988811D01*
X55223300Y-27952446D01*
X55192772Y-27889598D01*
X55201067Y-27820223D01*
X55245553Y-27766346D01*
X55270257Y-27753412D01*
X55346427Y-27723904D01*
X55520462Y-27616146D01*
X55671732Y-27478245D01*
X55795088Y-27314895D01*
X55886328Y-27131661D01*
X55942345Y-26934781D01*
X55961232Y-26730960D01*
X55942345Y-26527139D01*
X55886328Y-26330259D01*
X55795088Y-26147025D01*
X55675289Y-25988386D01*
X55650598Y-25923026D01*
X55665163Y-25854691D01*
X55714360Y-25805078D01*
X55774244Y-25789660D01*
X56469756Y-25789660D01*
X56536795Y-25809345D01*
G37*
G04 #@! TD.AperFunction*
G04 #@! TA.AperFunction,Conductor*
G36*
X32829283Y-25568945D02*
G01*
X32849925Y-25585579D01*
X33467615Y-26203269D01*
X33501100Y-26264592D01*
X33499201Y-26324883D01*
X33441654Y-26527141D01*
X33422768Y-26730959D01*
X33422768Y-26730960D01*
X33441654Y-26934776D01*
X33441654Y-26934778D01*
X33441655Y-26934781D01*
X33461140Y-27003263D01*
X33497673Y-27131664D01*
X33588912Y-27314895D01*
X33712269Y-27478247D01*
X33863537Y-27616145D01*
X33863539Y-27616147D01*
X34037569Y-27723902D01*
X34037571Y-27723903D01*
X34037573Y-27723904D01*
X34037576Y-27723905D01*
X34037578Y-27723906D01*
X34113737Y-27753410D01*
X34169139Y-27795983D01*
X34192730Y-27861749D01*
X34177019Y-27929830D01*
X34126996Y-27978609D01*
X34101040Y-27988811D01*
X34068519Y-27997525D01*
X34068507Y-27997530D01*
X33854422Y-28097359D01*
X33854420Y-28097360D01*
X33660926Y-28232846D01*
X33660920Y-28232851D01*
X33493891Y-28399880D01*
X33493886Y-28399886D01*
X33358400Y-28593380D01*
X33358399Y-28593382D01*
X33258570Y-28807467D01*
X33258564Y-28807482D01*
X33251154Y-28835137D01*
X33214788Y-28894797D01*
X33151941Y-28925325D01*
X33082566Y-28917030D01*
X33028688Y-28872543D01*
X33020380Y-28858314D01*
X33008838Y-28835134D01*
X32935088Y-28687025D01*
X32811732Y-28523675D01*
X32811730Y-28523672D01*
X32660462Y-28385774D01*
X32660460Y-28385772D01*
X32486430Y-28278017D01*
X32486424Y-28278014D01*
X32335993Y-28219737D01*
X32295556Y-28204072D01*
X32094347Y-28166460D01*
X31889653Y-28166460D01*
X31688444Y-28204072D01*
X31688441Y-28204072D01*
X31688441Y-28204073D01*
X31497575Y-28278014D01*
X31497569Y-28278017D01*
X31323539Y-28385772D01*
X31323537Y-28385774D01*
X31172269Y-28523672D01*
X31048912Y-28687024D01*
X30957673Y-28870255D01*
X30901654Y-29067143D01*
X30882768Y-29270959D01*
X30882768Y-29270960D01*
X30901654Y-29474776D01*
X30901654Y-29474778D01*
X30901655Y-29474781D01*
X30954647Y-29661028D01*
X30957673Y-29671664D01*
X31048912Y-29854895D01*
X31172269Y-30018247D01*
X31288504Y-30124208D01*
X31323538Y-30156146D01*
X31470649Y-30247233D01*
X31517284Y-30299261D01*
X31528388Y-30368243D01*
X31500435Y-30432277D01*
X31442300Y-30471033D01*
X31405371Y-30476660D01*
X30038629Y-30476660D01*
X29971590Y-30456975D01*
X29925835Y-30404171D01*
X29915891Y-30335013D01*
X29944916Y-30271457D01*
X29973349Y-30247234D01*
X30120462Y-30156146D01*
X30271732Y-30018245D01*
X30395088Y-29854895D01*
X30486328Y-29671661D01*
X30542345Y-29474781D01*
X30561232Y-29270960D01*
X30560206Y-29259893D01*
X30542345Y-29067143D01*
X30542345Y-29067139D01*
X30486328Y-28870259D01*
X30395088Y-28687025D01*
X30271732Y-28523675D01*
X30271730Y-28523672D01*
X30120462Y-28385774D01*
X30120460Y-28385772D01*
X29946430Y-28278017D01*
X29946424Y-28278014D01*
X29870261Y-28248509D01*
X29814859Y-28205936D01*
X29791269Y-28140169D01*
X29806980Y-28072089D01*
X29857004Y-28023310D01*
X29882963Y-28013107D01*
X29915481Y-28004394D01*
X29915492Y-28004389D01*
X30129578Y-27904560D01*
X30323082Y-27769065D01*
X30490105Y-27602042D01*
X30625600Y-27408538D01*
X30725429Y-27194452D01*
X30725435Y-27194438D01*
X30732844Y-27166786D01*
X30769207Y-27107125D01*
X30832054Y-27076594D01*
X30901429Y-27084888D01*
X30955308Y-27129372D01*
X30963619Y-27143605D01*
X31048912Y-27314895D01*
X31172269Y-27478247D01*
X31323537Y-27616145D01*
X31323539Y-27616147D01*
X31497569Y-27723902D01*
X31497575Y-27723905D01*
X31497578Y-27723906D01*
X31688444Y-27797848D01*
X31889653Y-27835460D01*
X31889656Y-27835460D01*
X32094344Y-27835460D01*
X32094347Y-27835460D01*
X32295556Y-27797848D01*
X32486427Y-27723904D01*
X32660462Y-27616146D01*
X32811732Y-27478245D01*
X32935088Y-27314895D01*
X33026328Y-27131661D01*
X33082345Y-26934781D01*
X33101232Y-26730960D01*
X33082345Y-26527139D01*
X33026328Y-26330259D01*
X32935088Y-26147025D01*
X32864371Y-26053380D01*
X32811730Y-25983672D01*
X32660462Y-25845774D01*
X32660460Y-25845772D01*
X32552113Y-25778687D01*
X32505477Y-25726659D01*
X32494373Y-25657678D01*
X32522326Y-25593643D01*
X32580461Y-25554887D01*
X32617390Y-25549260D01*
X32762244Y-25549260D01*
X32829283Y-25568945D01*
G37*
G04 #@! TD.AperFunction*
G04 #@! TA.AperFunction,Conductor*
G36*
X43137728Y-24720185D02*
G01*
X43183483Y-24772989D01*
X43193427Y-24842147D01*
X43164402Y-24905703D01*
X43146176Y-24922876D01*
X43142359Y-24925804D01*
X43142358Y-24925805D01*
X43026526Y-25014686D01*
X42938353Y-25129596D01*
X42937643Y-25130521D01*
X42881772Y-25265405D01*
X42881771Y-25265407D01*
X42862715Y-25410158D01*
X42862715Y-25410161D01*
X42881771Y-25554912D01*
X42881773Y-25554917D01*
X42917754Y-25641784D01*
X42925223Y-25711253D01*
X42893947Y-25773732D01*
X42833858Y-25809384D01*
X42764033Y-25806890D01*
X42737916Y-25794663D01*
X42646430Y-25738017D01*
X42646424Y-25738014D01*
X42471431Y-25670222D01*
X42455556Y-25664072D01*
X42254347Y-25626460D01*
X42049653Y-25626460D01*
X41848444Y-25664072D01*
X41848441Y-25664072D01*
X41848441Y-25664073D01*
X41657575Y-25738014D01*
X41657569Y-25738017D01*
X41483539Y-25845772D01*
X41483537Y-25845774D01*
X41332269Y-25983672D01*
X41208912Y-26147024D01*
X41123619Y-26318314D01*
X41076116Y-26369551D01*
X41008453Y-26386972D01*
X40942112Y-26365046D01*
X40898158Y-26310735D01*
X40892844Y-26295134D01*
X40885434Y-26267478D01*
X40885429Y-26267467D01*
X40785600Y-26053382D01*
X40785599Y-26053380D01*
X40650113Y-25859886D01*
X40650108Y-25859880D01*
X40483082Y-25692854D01*
X40289578Y-25557359D01*
X40075492Y-25457530D01*
X40075486Y-25457527D01*
X39862000Y-25400324D01*
X39862000Y-26297948D01*
X39804993Y-26265035D01*
X39677826Y-26230960D01*
X39546174Y-26230960D01*
X39419007Y-26265035D01*
X39362000Y-26297948D01*
X39362000Y-25400324D01*
X39361999Y-25400324D01*
X39148513Y-25457527D01*
X39148507Y-25457530D01*
X38934422Y-25557359D01*
X38934420Y-25557360D01*
X38740926Y-25692846D01*
X38740920Y-25692851D01*
X38573891Y-25859880D01*
X38573886Y-25859886D01*
X38438400Y-26053380D01*
X38438399Y-26053382D01*
X38338570Y-26267467D01*
X38338564Y-26267482D01*
X38331154Y-26295137D01*
X38294788Y-26354797D01*
X38231941Y-26385325D01*
X38162566Y-26377030D01*
X38108688Y-26332543D01*
X38100380Y-26318314D01*
X38080927Y-26279248D01*
X38015088Y-26147025D01*
X37944371Y-26053380D01*
X37891730Y-25983672D01*
X37740462Y-25845774D01*
X37740460Y-25845772D01*
X37566430Y-25738017D01*
X37566424Y-25738014D01*
X37391431Y-25670222D01*
X37375556Y-25664072D01*
X37174347Y-25626460D01*
X36969653Y-25626460D01*
X36768444Y-25664072D01*
X36768441Y-25664072D01*
X36768441Y-25664073D01*
X36577575Y-25738014D01*
X36577569Y-25738017D01*
X36403539Y-25845772D01*
X36403537Y-25845774D01*
X36252269Y-25983672D01*
X36128912Y-26147024D01*
X36037673Y-26330255D01*
X35981654Y-26527143D01*
X35962768Y-26730959D01*
X35962768Y-26730960D01*
X35981654Y-26934776D01*
X35981654Y-26934778D01*
X35981655Y-26934781D01*
X36001140Y-27003263D01*
X36037673Y-27131664D01*
X36128912Y-27314895D01*
X36252269Y-27478247D01*
X36403537Y-27616145D01*
X36403539Y-27616147D01*
X36577569Y-27723902D01*
X36577575Y-27723905D01*
X36577578Y-27723906D01*
X36768444Y-27797848D01*
X36969653Y-27835460D01*
X36969656Y-27835460D01*
X37174344Y-27835460D01*
X37174347Y-27835460D01*
X37375556Y-27797848D01*
X37566427Y-27723904D01*
X37740462Y-27616146D01*
X37891732Y-27478245D01*
X38015088Y-27314895D01*
X38100380Y-27143605D01*
X38147883Y-27092368D01*
X38215545Y-27074947D01*
X38281886Y-27096872D01*
X38325841Y-27151184D01*
X38331155Y-27166783D01*
X38338567Y-27194445D01*
X38338570Y-27194452D01*
X38438399Y-27408538D01*
X38573894Y-27602042D01*
X38740917Y-27769065D01*
X38934421Y-27904560D01*
X39148507Y-28004389D01*
X39148516Y-28004393D01*
X39181037Y-28013107D01*
X39240698Y-28049472D01*
X39271227Y-28112318D01*
X39262933Y-28181694D01*
X39218448Y-28235572D01*
X39193739Y-28248508D01*
X39117581Y-28278012D01*
X39117569Y-28278017D01*
X38943539Y-28385772D01*
X38943537Y-28385774D01*
X38792269Y-28523672D01*
X38668912Y-28687024D01*
X38577673Y-28870255D01*
X38521654Y-29067143D01*
X38502768Y-29270959D01*
X38502768Y-29270960D01*
X38521654Y-29474776D01*
X38521654Y-29474778D01*
X38521655Y-29474781D01*
X38574647Y-29661028D01*
X38577673Y-29671664D01*
X38668912Y-29854895D01*
X38792269Y-30018247D01*
X38908504Y-30124208D01*
X38943538Y-30156146D01*
X39090649Y-30247233D01*
X39137284Y-30299261D01*
X39148388Y-30368243D01*
X39120435Y-30432277D01*
X39062300Y-30471033D01*
X39025371Y-30476660D01*
X37658629Y-30476660D01*
X37591590Y-30456975D01*
X37545835Y-30404171D01*
X37535891Y-30335013D01*
X37564916Y-30271457D01*
X37593349Y-30247234D01*
X37740462Y-30156146D01*
X37891732Y-30018245D01*
X38015088Y-29854895D01*
X38106328Y-29671661D01*
X38162345Y-29474781D01*
X38181232Y-29270960D01*
X38180206Y-29259893D01*
X38162345Y-29067143D01*
X38162345Y-29067139D01*
X38106328Y-28870259D01*
X38015088Y-28687025D01*
X37891732Y-28523675D01*
X37891730Y-28523672D01*
X37740462Y-28385774D01*
X37740460Y-28385772D01*
X37566430Y-28278017D01*
X37566424Y-28278014D01*
X37415993Y-28219737D01*
X37375556Y-28204072D01*
X37174347Y-28166460D01*
X36969653Y-28166460D01*
X36768444Y-28204072D01*
X36768441Y-28204072D01*
X36768441Y-28204073D01*
X36577575Y-28278014D01*
X36577569Y-28278017D01*
X36403539Y-28385772D01*
X36403537Y-28385774D01*
X36252269Y-28523672D01*
X36128912Y-28687024D01*
X36043619Y-28858314D01*
X35996116Y-28909551D01*
X35928453Y-28926972D01*
X35862112Y-28905046D01*
X35818158Y-28850735D01*
X35812844Y-28835134D01*
X35805434Y-28807478D01*
X35805429Y-28807467D01*
X35705600Y-28593382D01*
X35705599Y-28593380D01*
X35570113Y-28399886D01*
X35570108Y-28399880D01*
X35403082Y-28232854D01*
X35209578Y-28097359D01*
X34995492Y-27997530D01*
X34995477Y-27997524D01*
X34962960Y-27988811D01*
X34903300Y-27952446D01*
X34872772Y-27889598D01*
X34881067Y-27820223D01*
X34925553Y-27766346D01*
X34950257Y-27753412D01*
X35026427Y-27723904D01*
X35200462Y-27616146D01*
X35351732Y-27478245D01*
X35475088Y-27314895D01*
X35566328Y-27131661D01*
X35622345Y-26934781D01*
X35641232Y-26730960D01*
X35622345Y-26527139D01*
X35566328Y-26330259D01*
X35475088Y-26147025D01*
X35404371Y-26053380D01*
X35351730Y-25983672D01*
X35200462Y-25845774D01*
X35200460Y-25845772D01*
X35026430Y-25738017D01*
X35026424Y-25738014D01*
X34851431Y-25670222D01*
X34835556Y-25664072D01*
X34634347Y-25626460D01*
X34429653Y-25626460D01*
X34264289Y-25657371D01*
X34228438Y-25664073D01*
X34140430Y-25698168D01*
X34070807Y-25704030D01*
X34009067Y-25671320D01*
X34007956Y-25670222D01*
X33281546Y-24943812D01*
X33281544Y-24943809D01*
X33249916Y-24912181D01*
X33216431Y-24850858D01*
X33221415Y-24781166D01*
X33263287Y-24725233D01*
X33328751Y-24700816D01*
X33337597Y-24700500D01*
X43070689Y-24700500D01*
X43137728Y-24720185D01*
G37*
G04 #@! TD.AperFunction*
G04 #@! TA.AperFunction,Conductor*
G36*
X43217142Y-25925492D02*
G01*
X43277246Y-25950388D01*
X43349623Y-25959916D01*
X43421999Y-25969445D01*
X43422000Y-25969445D01*
X43422001Y-25969445D01*
X43458188Y-25964680D01*
X43566754Y-25950388D01*
X43626856Y-25925492D01*
X43696321Y-25918024D01*
X43758801Y-25949298D01*
X43794454Y-26009387D01*
X43791961Y-26079212D01*
X43773262Y-26114778D01*
X43748913Y-26147022D01*
X43657673Y-26330255D01*
X43601654Y-26527143D01*
X43582768Y-26730959D01*
X43582768Y-26730960D01*
X43601654Y-26934776D01*
X43601654Y-26934778D01*
X43601655Y-26934781D01*
X43621140Y-27003263D01*
X43657673Y-27131664D01*
X43748912Y-27314895D01*
X43872269Y-27478247D01*
X44023537Y-27616145D01*
X44023539Y-27616147D01*
X44197569Y-27723902D01*
X44197575Y-27723905D01*
X44197578Y-27723906D01*
X44388444Y-27797848D01*
X44589653Y-27835460D01*
X44589656Y-27835460D01*
X44794344Y-27835460D01*
X44794347Y-27835460D01*
X44995556Y-27797848D01*
X45186427Y-27723904D01*
X45360462Y-27616146D01*
X45511732Y-27478245D01*
X45635088Y-27314895D01*
X45720380Y-27143605D01*
X45767883Y-27092368D01*
X45835545Y-27074947D01*
X45901886Y-27096872D01*
X45945841Y-27151184D01*
X45951155Y-27166783D01*
X45958567Y-27194445D01*
X45958570Y-27194452D01*
X46058399Y-27408538D01*
X46193894Y-27602042D01*
X46360917Y-27769065D01*
X46554421Y-27904560D01*
X46768507Y-28004389D01*
X46768516Y-28004393D01*
X46801037Y-28013107D01*
X46860698Y-28049472D01*
X46891227Y-28112318D01*
X46882933Y-28181694D01*
X46838448Y-28235572D01*
X46813739Y-28248508D01*
X46737581Y-28278012D01*
X46737569Y-28278017D01*
X46563539Y-28385772D01*
X46563537Y-28385774D01*
X46412269Y-28523672D01*
X46288912Y-28687024D01*
X46197673Y-28870255D01*
X46141654Y-29067143D01*
X46122768Y-29270959D01*
X46122768Y-29270960D01*
X46141654Y-29474776D01*
X46141654Y-29474778D01*
X46141655Y-29474781D01*
X46170160Y-29574965D01*
X46197672Y-29671662D01*
X46215609Y-29707684D01*
X46227869Y-29776469D01*
X46200996Y-29840964D01*
X46143519Y-29880692D01*
X46073689Y-29883038D01*
X46016927Y-29850636D01*
X45802579Y-29636288D01*
X45769094Y-29574965D01*
X45770993Y-29514674D01*
X45782345Y-29474781D01*
X45801232Y-29270960D01*
X45800206Y-29259893D01*
X45782345Y-29067143D01*
X45782345Y-29067139D01*
X45726328Y-28870259D01*
X45635088Y-28687025D01*
X45511732Y-28523675D01*
X45511730Y-28523672D01*
X45360462Y-28385774D01*
X45360460Y-28385772D01*
X45186430Y-28278017D01*
X45186424Y-28278014D01*
X45035993Y-28219737D01*
X44995556Y-28204072D01*
X44794347Y-28166460D01*
X44589653Y-28166460D01*
X44388444Y-28204072D01*
X44388441Y-28204072D01*
X44388441Y-28204073D01*
X44197575Y-28278014D01*
X44197569Y-28278017D01*
X44023539Y-28385772D01*
X44023537Y-28385774D01*
X43872269Y-28523672D01*
X43748912Y-28687024D01*
X43657673Y-28870255D01*
X43601654Y-29067143D01*
X43582768Y-29270959D01*
X43582768Y-29270960D01*
X43601654Y-29474780D01*
X43601655Y-29474783D01*
X43620044Y-29539413D01*
X43619457Y-29609280D01*
X43588459Y-29661028D01*
X43335552Y-29913935D01*
X43274229Y-29947420D01*
X43204537Y-29942436D01*
X43148604Y-29900564D01*
X43124187Y-29835100D01*
X43136871Y-29770983D01*
X43186328Y-29671661D01*
X43242345Y-29474781D01*
X43261232Y-29270960D01*
X43260206Y-29259893D01*
X43242345Y-29067143D01*
X43242345Y-29067139D01*
X43186328Y-28870259D01*
X43095088Y-28687025D01*
X42971732Y-28523675D01*
X42971730Y-28523672D01*
X42820462Y-28385774D01*
X42820460Y-28385772D01*
X42646430Y-28278017D01*
X42646424Y-28278014D01*
X42495993Y-28219737D01*
X42455556Y-28204072D01*
X42254347Y-28166460D01*
X42049653Y-28166460D01*
X41848444Y-28204072D01*
X41848441Y-28204072D01*
X41848441Y-28204073D01*
X41657575Y-28278014D01*
X41657569Y-28278017D01*
X41483539Y-28385772D01*
X41483537Y-28385774D01*
X41332269Y-28523672D01*
X41208912Y-28687024D01*
X41117673Y-28870255D01*
X41061654Y-29067143D01*
X41042768Y-29270959D01*
X41042768Y-29270960D01*
X41061654Y-29474776D01*
X41061654Y-29474778D01*
X41061655Y-29474781D01*
X41114647Y-29661028D01*
X41117673Y-29671664D01*
X41208912Y-29854895D01*
X41332269Y-30018247D01*
X41448504Y-30124208D01*
X41483538Y-30156146D01*
X41630649Y-30247233D01*
X41677284Y-30299261D01*
X41688388Y-30368243D01*
X41660435Y-30432277D01*
X41602300Y-30471033D01*
X41565371Y-30476660D01*
X40198629Y-30476660D01*
X40131590Y-30456975D01*
X40085835Y-30404171D01*
X40075891Y-30335013D01*
X40104916Y-30271457D01*
X40133349Y-30247234D01*
X40280462Y-30156146D01*
X40431732Y-30018245D01*
X40555088Y-29854895D01*
X40646328Y-29671661D01*
X40702345Y-29474781D01*
X40721232Y-29270960D01*
X40720206Y-29259893D01*
X40702345Y-29067143D01*
X40702345Y-29067139D01*
X40646328Y-28870259D01*
X40555088Y-28687025D01*
X40431732Y-28523675D01*
X40431730Y-28523672D01*
X40280462Y-28385774D01*
X40280460Y-28385772D01*
X40106430Y-28278017D01*
X40106424Y-28278014D01*
X40030261Y-28248509D01*
X39974859Y-28205936D01*
X39951269Y-28140169D01*
X39966980Y-28072089D01*
X40017004Y-28023310D01*
X40042963Y-28013107D01*
X40075481Y-28004394D01*
X40075492Y-28004389D01*
X40289578Y-27904560D01*
X40483082Y-27769065D01*
X40650105Y-27602042D01*
X40785600Y-27408538D01*
X40885429Y-27194452D01*
X40885435Y-27194438D01*
X40892844Y-27166786D01*
X40929207Y-27107125D01*
X40992054Y-27076594D01*
X41061429Y-27084888D01*
X41115308Y-27129372D01*
X41123619Y-27143605D01*
X41208912Y-27314895D01*
X41332269Y-27478247D01*
X41483537Y-27616145D01*
X41483539Y-27616147D01*
X41657569Y-27723902D01*
X41657575Y-27723905D01*
X41657578Y-27723906D01*
X41848444Y-27797848D01*
X42049653Y-27835460D01*
X42049656Y-27835460D01*
X42254344Y-27835460D01*
X42254347Y-27835460D01*
X42455556Y-27797848D01*
X42646427Y-27723904D01*
X42820462Y-27616146D01*
X42971732Y-27478245D01*
X43095088Y-27314895D01*
X43186328Y-27131661D01*
X43242345Y-26934781D01*
X43261232Y-26730960D01*
X43242345Y-26527139D01*
X43186328Y-26330259D01*
X43095088Y-26147025D01*
X43080800Y-26128105D01*
X43070738Y-26114780D01*
X43046047Y-26049419D01*
X43060613Y-25981084D01*
X43109810Y-25931472D01*
X43178020Y-25916334D01*
X43217142Y-25925492D01*
G37*
G04 #@! TD.AperFunction*
G04 #@! TA.AperFunction,Conductor*
G36*
X50544121Y-34820962D02*
G01*
X50590614Y-34874618D01*
X50602000Y-34926960D01*
X50602000Y-43874960D01*
X50581998Y-43943081D01*
X50528342Y-43989574D01*
X50476000Y-44000960D01*
X41428000Y-44000960D01*
X41359879Y-43980958D01*
X41313386Y-43927302D01*
X41302000Y-43874960D01*
X41302000Y-34926960D01*
X41322002Y-34858839D01*
X41375658Y-34812346D01*
X41428000Y-34800960D01*
X50476000Y-34800960D01*
X50544121Y-34820962D01*
G37*
G04 #@! TD.AperFunction*
M02*
